<?xml version="1.0" encoding="UTF-8"?>
<svg xmlns="http://www.w3.org/2000/svg" xmlns:xlink="http://www.w3.org/1999/xlink" width="2499.9813pt" height="2500pt" viewBox="0 0 2499.9813 2500" version="1.1">
<g id="surface1">
<path style=" stroke:none;fill-rule:nonzero;fill:rgb(28.235294%,35.294118%,58.823529%);fill-opacity:1;" d="M 2362.015625 2500 C 2438.207031 2500 2499.980469 2438.214844 2499.980469 2362.023438 L 2499.980469 137.976562 C 2499.980469 61.757812 2438.195312 0 2362.015625 0 L 137.976562 0 C 61.757812 0 0 61.765625 0 137.976562 L 0 2362.015625 C 0 2438.214844 61.757812 2499.992188 137.976562 2499.992188 L 2362.015625 2499.992188 Z M 2362.015625 2500 "/>
<path style=" stroke:none;fill-rule:nonzero;fill:rgb(100%,100%,100%);fill-opacity:1;" d="M 1724.949219 2500 L 1724.949219 1531.867188 L 2049.90625 1531.867188 L 2098.558594 1154.566406 L 1724.9375 1154.566406 L 1724.9375 913.675781 C 1724.9375 804.4375 1755.269531 729.996094 1911.921875 729.996094 L 2111.710938 729.902344 L 2111.710938 392.449219 C 2077.15625 387.859375 1958.550781 377.582031 1820.585938 377.582031 C 1532.523438 377.582031 1335.308594 553.410156 1335.308594 876.320312 L 1335.308594 1154.566406 L 1009.515625 1154.566406 L 1009.515625 1531.867188 L 1335.308594 1531.867188 L 1335.308594 2499.992188 L 1724.949219 2499.992188 Z M 1724.949219 2500 "/>
</g>
</svg>
