<?xml version="1.0" encoding="UTF-8" standalone="no"?><!DOCTYPE svg PUBLIC "-//W3C//DTD SVG 1.1//EN" "http://www.w3.org/Graphics/SVG/1.1/DTD/svg11.dtd"><svg width="100%" height="100%" viewBox="0 0 310 256" version="1.1" xmlns="http://www.w3.org/2000/svg" xmlns:xlink="http://www.w3.org/1999/xlink" xml:space="preserve" xmlns:serif="http://www.serif.com/" style="fill-rule:evenodd;clip-rule:evenodd;stroke-linejoin:round;stroke-miterlimit:2;"><g><path d="M54.855,2.268l0,2.216c-0.72,0.11 -1.257,0.427 -1.611,0.952c-0.354,0.525 -0.531,1.276 -0.531,2.252l0,15.912c0,0.281 0.058,0.577 0.174,0.888c0.116,0.311 0.266,0.577 0.449,0.797c0.195,0.244 0.403,0.418 0.622,0.522c0.22,0.103 0.519,0.173 0.897,0.21l0,2.234c-2.368,0 -4.425,-0.616 -6.17,-1.849c-1.538,-1.087 -2.698,-2.549 -3.479,-4.386c-0.781,-1.837 -1.172,-4.013 -1.172,-6.527c0,-1.844 0.253,-3.562 0.76,-5.155c0.506,-1.593 1.242,-2.975 2.206,-4.147c0.977,-1.184 2.146,-2.136 3.507,-2.857c1.361,-0.72 2.67,-1.08 3.927,-1.08l0.421,0.018Zm1.447,2.234l0,-2.215c0.598,0.097 1.083,0.201 1.456,0.311c0.372,0.11 1.046,0.342 2.023,0.696c0.623,0.219 1.038,0.329 1.245,0.329c0.354,0 0.623,-0.158 0.806,-0.476l0.238,-0.439c0.146,-0.293 0.421,-0.44 0.824,-0.44c0.329,0 0.583,0.098 0.76,0.293c0.177,0.196 0.265,0.482 0.265,0.861l0,7.617c0,0.488 -0.11,0.842 -0.329,1.062c-0.22,0.22 -0.47,0.33 -0.751,0.33c-0.293,0 -0.528,-0.095 -0.705,-0.284c-0.177,-0.189 -0.321,-0.498 -0.43,-0.925c-0.257,-0.964 -0.507,-1.721 -0.751,-2.27c-0.525,-1.16 -1.123,-2.1 -1.795,-2.82c-0.451,-0.488 -0.903,-0.864 -1.355,-1.126c-0.451,-0.263 -0.952,-0.431 -1.501,-0.504Zm0.055,23.749l0,-2.234c0.952,-0.073 1.953,-0.433 3.003,-1.08c0.561,-0.354 1.062,-0.827 1.501,-1.419c0.44,-0.592 0.769,-1.242 0.989,-1.95c0.122,-0.391 0.266,-0.669 0.43,-0.834c0.165,-0.164 0.382,-0.247 0.65,-0.247c0.293,0 0.538,0.11 0.733,0.33c0.195,0.22 0.293,0.494 0.293,0.824c0,0.549 -0.211,1.214 -0.632,1.996c-0.421,0.781 -0.961,1.501 -1.62,2.16c-0.806,0.806 -1.633,1.404 -2.481,1.795c-0.849,0.39 -1.804,0.61 -2.866,0.659Z" style="fill-rule:nonzero;"/><path d="M78.641,14.079l2.984,0l0,-7.984c0,-0.683 -0.177,-1.086 -0.531,-1.208l-0.585,-0.183c-0.464,-0.147 -0.696,-0.476 -0.696,-0.989c0,-0.635 0.439,-0.952 1.318,-0.952l9.119,0c0.915,0 1.373,0.317 1.373,0.952c0,0.5 -0.244,0.83 -0.732,0.989c-0.403,0.134 -0.638,0.216 -0.705,0.247c-0.067,0.03 -0.138,0.101 -0.211,0.21c-0.146,0.196 -0.22,0.507 -0.22,0.934l0,18.256c0,0.671 0.183,1.08 0.55,1.227l0.586,0.201c0.488,0.159 0.732,0.494 0.732,1.007c0,0.647 -0.458,0.971 -1.373,0.971l-0.495,0l-8.148,0l-0.513,0c-0.854,0 -1.281,-0.324 -1.281,-0.971c0,-0.513 0.232,-0.848 0.696,-1.007l0.585,-0.201c0.354,-0.11 0.531,-0.519 0.531,-1.227l0,-8.46l-2.984,0l0,-1.812Zm-1.538,13.678l-8.167,0l-0.476,0c-0.439,0 -0.778,-0.083 -1.016,-0.248c-0.238,-0.164 -0.357,-0.399 -0.357,-0.705c0,-0.5 0.244,-0.83 0.732,-0.988c0.403,-0.135 0.638,-0.217 0.705,-0.248c0.067,-0.03 0.138,-0.1 0.211,-0.21c0.146,-0.195 0.22,-0.507 0.22,-0.934l0,-18.329c0,-0.427 -0.074,-0.738 -0.22,-0.934c-0.073,-0.109 -0.144,-0.18 -0.211,-0.21c-0.067,-0.031 -0.302,-0.113 -0.705,-0.247c-0.488,-0.159 -0.732,-0.489 -0.732,-0.989c0,-0.305 0.119,-0.54 0.357,-0.705c0.238,-0.165 0.577,-0.247 1.016,-0.247l9.119,0c0.867,0 1.3,0.317 1.3,0.952c0,0.513 -0.232,0.842 -0.696,0.989l-0.568,0.183c-0.354,0.122 -0.531,0.525 -0.531,1.208l0,18.329c0,0.684 0.177,1.086 0.531,1.209l0.568,0.183c0.464,0.146 0.696,0.476 0.696,0.988c0,0.635 -0.433,0.953 -1.3,0.953l-0.476,0Z" style="fill-rule:nonzero;"/><path d="M105.026,27.757l-8.166,0l-0.476,0c-0.44,0 -0.778,-0.083 -1.016,-0.248c-0.238,-0.164 -0.358,-0.399 -0.358,-0.705c0,-0.5 0.245,-0.83 0.733,-0.988c0.403,-0.135 0.638,-0.217 0.705,-0.248c0.067,-0.03 0.137,-0.1 0.21,-0.21c0.147,-0.195 0.22,-0.507 0.22,-0.934l0,-18.329c0,-0.427 -0.073,-0.738 -0.22,-0.934c-0.073,-0.109 -0.143,-0.18 -0.21,-0.21c-0.067,-0.031 -0.302,-0.113 -0.705,-0.247c-0.488,-0.159 -0.733,-0.489 -0.733,-0.989c0,-0.305 0.12,-0.54 0.358,-0.705c0.238,-0.165 0.576,-0.247 1.016,-0.247l9.118,0c0.44,0 0.779,0.082 1.017,0.247c0.238,0.165 0.357,0.4 0.357,0.705c0,0.5 -0.244,0.83 -0.733,0.989c-0.403,0.134 -0.638,0.216 -0.705,0.247c-0.067,0.03 -0.137,0.101 -0.21,0.21c-0.147,0.196 -0.22,0.507 -0.22,0.934l0,18.329c0,0.427 0.073,0.739 0.22,0.934c0.073,0.11 0.143,0.18 0.21,0.21c0.067,0.031 0.302,0.113 0.705,0.248c0.489,0.158 0.733,0.488 0.733,0.988c0,0.306 -0.119,0.541 -0.357,0.705c-0.238,0.165 -0.577,0.248 -1.017,0.248l-0.476,0Z" style="fill-rule:nonzero;"/><path d="M119.876,27.757l-8.148,0l-0.476,0c-0.44,0 -0.778,-0.083 -1.016,-0.248c-0.238,-0.164 -0.357,-0.399 -0.357,-0.705c0,-0.5 0.244,-0.83 0.732,-0.988c0.403,-0.135 0.638,-0.217 0.705,-0.248c0.067,-0.03 0.137,-0.1 0.211,-0.21c0.146,-0.195 0.219,-0.507 0.219,-0.934l0,-18.329c0,-0.427 -0.073,-0.738 -0.219,-0.934c-0.074,-0.109 -0.144,-0.18 -0.211,-0.21c-0.067,-0.031 -0.302,-0.113 -0.705,-0.247c-0.488,-0.159 -0.732,-0.489 -0.732,-0.989c0,-0.305 0.119,-0.54 0.357,-0.705c0.238,-0.165 0.576,-0.247 1.016,-0.247l9.265,0c0.537,0 0.922,0.073 1.154,0.219c0.317,0.196 0.476,0.452 0.476,0.769c0,0.538 -0.293,0.873 -0.879,1.008c-0.476,0.109 -0.757,0.183 -0.842,0.219c-0.086,0.037 -0.177,0.11 -0.275,0.22c-0.183,0.22 -0.275,0.562 -0.275,1.025l0,21.534Zm1.483,0l0,-2.051c0.599,-0.11 1.072,-0.232 1.419,-0.366c0.348,-0.135 0.681,-0.33 0.998,-0.586c0.513,-0.403 0.983,-0.959 1.41,-1.667c0.428,-0.708 0.775,-1.495 1.044,-2.362c0.195,-0.671 0.375,-1.114 0.54,-1.327c0.165,-0.214 0.406,-0.321 0.723,-0.321c0.342,0 0.592,0.141 0.751,0.422c0.073,0.134 0.11,0.402 0.11,0.805l0,7.453l-6.995,0Z" style="fill-rule:nonzero;"/><path d="M139.853,27.757l-8.148,0l-0.476,0c-0.44,0 -0.778,-0.083 -1.016,-0.248c-0.239,-0.164 -0.358,-0.399 -0.358,-0.705c0,-0.5 0.245,-0.83 0.733,-0.988c0.403,-0.135 0.638,-0.217 0.705,-0.248c0.067,-0.03 0.137,-0.1 0.21,-0.21c0.147,-0.195 0.22,-0.507 0.22,-0.934l0,-18.329c0,-0.427 -0.073,-0.738 -0.22,-0.934c-0.073,-0.109 -0.143,-0.18 -0.21,-0.21c-0.067,-0.031 -0.302,-0.113 -0.705,-0.247c-0.488,-0.159 -0.733,-0.489 -0.733,-0.989c0,-0.305 0.119,-0.54 0.358,-0.705c0.238,-0.165 0.576,-0.247 1.016,-0.247l9.265,0c0.537,0 0.922,0.073 1.153,0.219c0.318,0.196 0.477,0.452 0.477,0.769c0,0.538 -0.293,0.873 -0.879,1.008c-0.476,0.109 -0.757,0.183 -0.843,0.219c-0.085,0.037 -0.177,0.11 -0.274,0.22c-0.183,0.22 -0.275,0.562 -0.275,1.025l0,21.534Zm1.483,0l0,-2.051c0.598,-0.11 1.071,-0.232 1.419,-0.366c0.348,-0.135 0.681,-0.33 0.998,-0.586c0.513,-0.403 0.983,-0.959 1.41,-1.667c0.427,-0.708 0.775,-1.495 1.044,-2.362c0.195,-0.671 0.375,-1.114 0.54,-1.327c0.165,-0.214 0.406,-0.321 0.723,-0.321c0.342,0 0.592,0.141 0.751,0.422c0.073,0.134 0.11,0.402 0.11,0.805l0,7.453l-6.995,0Z" style="fill-rule:nonzero;"/><path d="M159.848,27.757l-8.166,0l-0.476,0c-0.44,0 -0.779,-0.083 -1.017,-0.248c-0.238,-0.164 -0.357,-0.399 -0.357,-0.705c0,-0.5 0.244,-0.83 0.733,-0.988c0.403,-0.135 0.638,-0.217 0.705,-0.248c0.067,-0.03 0.137,-0.1 0.21,-0.21c0.147,-0.195 0.22,-0.507 0.22,-0.934l0,-18.329c0,-0.427 -0.073,-0.738 -0.22,-0.934c-0.073,-0.109 -0.143,-0.18 -0.21,-0.21c-0.067,-0.031 -0.302,-0.113 -0.705,-0.247c-0.489,-0.159 -0.733,-0.489 -0.733,-0.989c0,-0.305 0.119,-0.54 0.357,-0.705c0.238,-0.165 0.577,-0.247 1.017,-0.247l9.118,0c0.44,0 0.778,0.082 1.016,0.247c0.238,0.165 0.358,0.4 0.358,0.705c0,0.5 -0.245,0.83 -0.733,0.989c-0.403,0.134 -0.638,0.216 -0.705,0.247c-0.067,0.03 -0.137,0.101 -0.21,0.21c-0.147,0.196 -0.22,0.507 -0.22,0.934l0,18.329c0,0.427 0.073,0.739 0.22,0.934c0.073,0.11 0.143,0.18 0.21,0.21c0.067,0.031 0.302,0.113 0.705,0.248c0.488,0.158 0.733,0.488 0.733,0.988c0,0.306 -0.12,0.541 -0.358,0.705c-0.238,0.165 -0.576,0.248 -1.016,0.248l-0.476,0Z" style="fill-rule:nonzero;"/><path d="M177.463,18.894l-2.216,8.863l-3.955,0l-5.896,-21.515c-0.134,-0.489 -0.259,-0.818 -0.375,-0.989c-0.116,-0.171 -0.314,-0.311 -0.595,-0.421c-0.488,-0.196 -0.733,-0.519 -0.733,-0.971c0,-0.354 0.153,-0.625 0.458,-0.814c0.305,-0.19 0.733,-0.284 1.282,-0.284l8.569,0c0.537,0 0.904,0.073 1.099,0.219c0.256,0.184 0.384,0.434 0.384,0.751c0,0.379 -0.213,0.696 -0.641,0.952c-0.354,0.208 -0.582,0.382 -0.686,0.522c-0.104,0.141 -0.156,0.351 -0.156,0.632c0,0.134 0.019,0.268 0.055,0.403l3.406,12.652Zm1.739,-16.131l3.772,0l4.395,16.662l-2.088,8.332l-3.991,0l-4.267,-16.095l2.179,-8.899Zm8.863,13.733l-0.952,-3.717l1.336,-5.42c0.11,-0.428 0.165,-0.757 0.165,-0.989c0,-0.366 -0.101,-0.681 -0.302,-0.943c-0.202,-0.263 -0.534,-0.51 -0.998,-0.742c-0.305,-0.158 -0.516,-0.311 -0.632,-0.457c-0.116,-0.147 -0.174,-0.336 -0.174,-0.568c0,-0.317 0.101,-0.546 0.302,-0.687c0.202,-0.14 0.522,-0.21 0.962,-0.21l4.358,0c0.5,0 0.851,0.07 1.052,0.21c0.202,0.141 0.303,0.376 0.303,0.705c0,0.196 -0.052,0.357 -0.156,0.485c-0.104,0.129 -0.278,0.248 -0.522,0.358c-0.549,0.244 -0.952,0.5 -1.208,0.769c-0.562,0.561 -0.983,1.373 -1.264,2.435l-2.27,8.771Z" style="fill-rule:nonzero;"/><path d="M202.841,2.763l7.379,0l5.091,21.515c0.097,0.378 0.207,0.714 0.329,1.007c0.11,0.232 0.354,0.421 0.733,0.567c0.317,0.135 0.537,0.269 0.659,0.403c0.122,0.134 0.183,0.318 0.183,0.549c0,0.635 -0.476,0.953 -1.428,0.953l-9.137,0c-0.366,0 -0.659,-0.089 -0.879,-0.266c-0.22,-0.177 -0.33,-0.412 -0.33,-0.705c0,-0.244 0.049,-0.427 0.147,-0.549c0.098,-0.122 0.317,-0.275 0.659,-0.458c0.244,-0.122 0.415,-0.256 0.513,-0.403c0.097,-0.146 0.146,-0.329 0.146,-0.549c0,-0.208 -0.018,-0.391 -0.055,-0.549l-0.586,-2.655l-5.108,0l0.494,-2.179l4.102,0l-3.369,-14.887l0.457,-1.794Zm-1.263,4.651l0.934,3.79l-3.241,11.828c-0.098,0.342 -0.147,0.66 -0.147,0.953c0,0.769 0.36,1.318 1.081,1.648l0.64,0.293c0.403,0.183 0.605,0.488 0.605,0.915c0,0.61 -0.446,0.916 -1.337,0.916l-4.651,0c-0.452,0 -0.809,-0.095 -1.071,-0.284c-0.262,-0.189 -0.394,-0.449 -0.394,-0.778c0,-0.354 0.269,-0.647 0.806,-0.879c0.5,-0.22 0.87,-0.418 1.108,-0.595c0.238,-0.177 0.467,-0.419 0.686,-0.724c0.342,-0.5 0.623,-1.165 0.843,-1.996l4.138,-15.087Z" style="fill-rule:nonzero;"/><path d="M228.787,2.268l0,2.216c-0.72,0.11 -1.257,0.427 -1.611,0.952c-0.354,0.525 -0.531,1.276 -0.531,2.252l0,15.912c0,0.281 0.058,0.577 0.174,0.888c0.116,0.311 0.265,0.577 0.449,0.797c0.195,0.244 0.402,0.418 0.622,0.522c0.22,0.103 0.519,0.173 0.897,0.21l0,2.234c-2.368,0 -4.425,-0.616 -6.17,-1.849c-1.538,-1.087 -2.698,-2.549 -3.479,-4.386c-0.782,-1.837 -1.172,-4.013 -1.172,-6.527c0,-1.844 0.253,-3.562 0.76,-5.155c0.506,-1.593 1.242,-2.975 2.206,-4.147c0.977,-1.184 2.146,-2.136 3.507,-2.857c1.361,-0.72 2.67,-1.08 3.927,-1.08l0.421,0.018Zm1.447,2.234l0,-2.215c0.598,0.097 1.083,0.201 1.456,0.311c0.372,0.11 1.046,0.342 2.023,0.696c0.622,0.219 1.037,0.329 1.245,0.329c0.354,0 0.623,-0.158 0.806,-0.476l0.238,-0.439c0.146,-0.293 0.421,-0.44 0.824,-0.44c0.329,0 0.583,0.098 0.76,0.293c0.177,0.196 0.265,0.482 0.265,0.861l0,7.617c0,0.488 -0.11,0.842 -0.33,1.062c-0.219,0.22 -0.469,0.33 -0.75,0.33c-0.293,0 -0.528,-0.095 -0.705,-0.284c-0.177,-0.189 -0.321,-0.498 -0.431,-0.925c-0.256,-0.964 -0.506,-1.721 -0.75,-2.27c-0.525,-1.16 -1.123,-2.1 -1.795,-2.82c-0.451,-0.488 -0.903,-0.864 -1.355,-1.126c-0.451,-0.263 -0.952,-0.431 -1.501,-0.504Zm0.055,23.749l0,-2.234c0.952,-0.073 1.953,-0.433 3.003,-1.08c0.561,-0.354 1.062,-0.827 1.501,-1.419c0.44,-0.592 0.769,-1.242 0.989,-1.95c0.122,-0.391 0.265,-0.669 0.43,-0.834c0.165,-0.164 0.382,-0.247 0.65,-0.247c0.293,0 0.537,0.11 0.733,0.33c0.195,0.22 0.293,0.494 0.293,0.824c0,0.549 -0.211,1.214 -0.632,1.996c-0.421,0.781 -0.961,1.501 -1.621,2.16c-0.805,0.806 -1.632,1.404 -2.481,1.795c-0.848,0.39 -1.803,0.61 -2.865,0.659Z" style="fill-rule:nonzero;"/><path d="M251.035,27.757l-8.167,0l-0.476,0c-0.439,0 -0.778,-0.083 -1.016,-0.248c-0.238,-0.164 -0.357,-0.399 -0.357,-0.705c0,-0.5 0.244,-0.83 0.732,-0.988c0.403,-0.135 0.638,-0.217 0.705,-0.248c0.067,-0.03 0.138,-0.1 0.211,-0.21c0.146,-0.195 0.219,-0.507 0.219,-0.934l0,-18.329c0,-0.427 -0.073,-0.738 -0.219,-0.934c-0.073,-0.109 -0.144,-0.18 -0.211,-0.21c-0.067,-0.031 -0.302,-0.113 -0.705,-0.247c-0.488,-0.159 -0.732,-0.489 -0.732,-0.989c0,-0.305 0.119,-0.54 0.357,-0.705c0.238,-0.165 0.577,-0.247 1.016,-0.247l9.119,0c0.439,0 0.778,0.082 1.016,0.247c0.238,0.165 0.357,0.4 0.357,0.705c0,0.5 -0.244,0.83 -0.732,0.989c-0.403,0.134 -0.638,0.216 -0.705,0.247c-0.067,0.03 -0.138,0.101 -0.211,0.21c-0.146,0.196 -0.22,0.507 -0.22,0.934l0,18.329c0,0.684 0.177,1.086 0.531,1.209l0.568,0.183c0.464,0.146 0.696,0.476 0.696,0.988c0,0.635 -0.434,0.953 -1.3,0.953l-0.476,0Zm7.251,-17.743l5.529,14.465c0.147,0.391 0.3,0.687 0.458,0.888c0.159,0.201 0.366,0.357 0.623,0.467c0.256,0.122 0.421,0.214 0.494,0.275c0.171,0.171 0.256,0.396 0.256,0.677c0,0.647 -0.457,0.971 -1.373,0.971l-9.21,0c-0.439,0 -0.778,-0.092 -1.016,-0.275c-0.238,-0.183 -0.357,-0.446 -0.357,-0.787c0,-0.391 0.226,-0.696 0.677,-0.916c0.281,-0.134 0.47,-0.247 0.568,-0.339c0.097,-0.091 0.152,-0.216 0.165,-0.375c0,-0.086 -0.049,-0.281 -0.147,-0.586l-2.344,-6.995c-0.219,-0.647 -0.329,-1.196 -0.329,-1.648c0,-0.427 0.177,-0.891 0.531,-1.391l4.376,-6.171c0.415,-0.574 0.623,-1.172 0.623,-1.794c0,-0.342 -0.092,-0.659 -0.275,-0.952c-0.183,-0.293 -0.427,-0.501 -0.733,-0.623l-0.659,-0.275c-0.415,-0.171 -0.622,-0.457 -0.622,-0.86c0,-0.33 0.128,-0.598 0.384,-0.806c0.171,-0.134 0.452,-0.201 0.843,-0.201l6.518,0c0.427,0 0.76,0.094 0.998,0.284c0.238,0.189 0.357,0.454 0.357,0.796c0,0.513 -0.281,0.879 -0.842,1.099l-0.971,0.384c-0.402,0.147 -0.915,0.476 -1.538,0.989c-0.464,0.391 -1.037,1.044 -1.721,1.959l-1.263,1.74Z" style="fill-rule:nonzero;"/><path d="M54.132,189.768l0,2.106c-0.757,0.208 -1.333,0.528 -1.73,0.961c-0.397,0.434 -0.595,0.968 -0.595,1.602c0,0.611 0.165,1.145 0.494,1.603c0.33,0.457 0.867,0.894 1.611,1.309c0.513,0.281 1.673,0.818 3.479,1.611c1.099,0.476 1.951,0.907 2.555,1.291c0.604,0.385 1.175,0.864 1.712,1.437c1.44,1.514 2.16,3.315 2.16,5.402c0,1.575 -0.39,3.015 -1.171,4.321c-0.782,1.307 -1.856,2.332 -3.223,3.077c-0.732,0.39 -1.535,0.698 -2.408,0.924c-0.873,0.226 -1.688,0.339 -2.444,0.339l0,-2.087c1.062,-0.257 1.828,-0.614 2.298,-1.072c0.47,-0.457 0.705,-1.077 0.705,-1.858c0,-0.818 -0.367,-1.538 -1.099,-2.161c-0.488,-0.403 -1.416,-0.903 -2.783,-1.501c-1.502,-0.659 -2.53,-1.129 -3.086,-1.41c-0.555,-0.281 -1.089,-0.61 -1.602,-0.989c-2.295,-1.636 -3.442,-3.815 -3.442,-6.537c0,-1.391 0.287,-2.676 0.86,-3.854c0.574,-1.178 1.374,-2.127 2.399,-2.847c1.428,-1.001 3.198,-1.557 5.31,-1.667Zm1.447,2.106l0,-2.014c0.732,0.049 1.367,0.143 1.904,0.284c0.537,0.14 1.3,0.418 2.289,0.833c0.244,0.097 0.445,0.146 0.604,0.146c0.232,0 0.403,-0.079 0.513,-0.238l0.403,-0.531c0.195,-0.268 0.433,-0.403 0.714,-0.403c0.329,0 0.57,0.119 0.723,0.357c0.153,0.239 0.229,0.614 0.229,1.127l0,6.042c0,0.354 -0.101,0.644 -0.302,0.87c-0.202,0.226 -0.461,0.339 -0.778,0.339c-0.245,0 -0.47,-0.08 -0.678,-0.238c-0.11,-0.098 -0.198,-0.217 -0.265,-0.358c-0.068,-0.14 -0.132,-0.375 -0.193,-0.705c-0.134,-0.598 -0.366,-1.214 -0.695,-1.849c-0.33,-0.635 -0.715,-1.202 -1.154,-1.703c-0.879,-0.989 -1.984,-1.642 -3.314,-1.959Zm-2.399,21.79l0,2.087c-1.001,0 -2.106,-0.287 -3.314,-0.861c-0.452,-0.207 -0.763,-0.341 -0.934,-0.402c-0.171,-0.061 -0.336,-0.092 -0.494,-0.092c-0.245,0 -0.428,0.04 -0.55,0.119c-0.122,0.079 -0.317,0.278 -0.586,0.595c-0.219,0.269 -0.457,0.403 -0.714,0.403c-0.683,0 -1.025,-0.525 -1.025,-1.575l0,-6.665c0,-0.342 0.098,-0.632 0.293,-0.87c0.195,-0.238 0.439,-0.363 0.732,-0.375c0.269,-0.012 0.479,0.064 0.632,0.229c0.153,0.165 0.284,0.455 0.394,0.87c0.28,1.05 0.686,2.032 1.217,2.948c0.531,0.915 1.151,1.69 1.859,2.325c0.72,0.659 1.55,1.08 2.49,1.264Z" style="fill-rule:nonzero;"/><path d="M68.25,207.951l0,-14.356c0,-0.427 -0.074,-0.738 -0.22,-0.934c-0.073,-0.109 -0.144,-0.18 -0.211,-0.21c-0.067,-0.031 -0.302,-0.113 -0.705,-0.247c-0.488,-0.159 -0.732,-0.483 -0.732,-0.971c0,-0.317 0.119,-0.558 0.357,-0.723c0.238,-0.165 0.577,-0.247 1.016,-0.247l9.119,0l0.659,0.073c0.208,0.061 0.378,0.171 0.513,0.33c0.134,0.158 0.201,0.347 0.201,0.567c0,0.488 -0.244,0.812 -0.732,0.971c-0.403,0.134 -0.638,0.216 -0.705,0.247c-0.067,0.03 -0.138,0.101 -0.211,0.21c-0.146,0.196 -0.219,0.507 -0.219,0.934l0,15.363c0,1.037 0.027,1.761 0.082,2.17c0.055,0.408 0.168,0.778 0.339,1.107c0.158,0.306 0.335,0.525 0.531,0.66c0.195,0.134 0.567,0.286 1.117,0.457l0,2.399l-0.403,0c-1.587,0 -2.905,-0.14 -3.955,-0.421c-1.233,-0.33 -2.314,-0.818 -3.241,-1.465c-0.928,-0.647 -1.587,-1.373 -1.978,-2.179c-0.415,-0.854 -0.622,-2.1 -0.622,-3.735Zm11.883,7.8l0,-2.399c1.221,-0.158 2.24,-0.659 3.058,-1.501c0.928,-0.965 1.392,-2.35 1.392,-4.157l0,-11.938c0,-1.673 -0.641,-2.838 -1.923,-3.497c-0.378,-0.196 -0.626,-0.364 -0.742,-0.504c-0.116,-0.14 -0.173,-0.345 -0.173,-0.613c0,-0.318 0.115,-0.544 0.347,-0.678c0.232,-0.134 0.611,-0.201 1.136,-0.201l4.486,0c0.378,0 0.631,0.009 0.76,0.027c0.128,0.018 0.253,0.064 0.375,0.137c0.317,0.184 0.476,0.434 0.476,0.751c0,0.269 -0.098,0.495 -0.293,0.678c-0.061,0.061 -0.323,0.226 -0.787,0.494c-0.537,0.293 -0.959,0.742 -1.264,1.346c-0.305,0.604 -0.457,1.291 -0.457,2.06l0,11.957c0,2.05 -0.452,3.735 -1.355,5.053c-0.66,0.977 -1.606,1.758 -2.839,2.344c-0.61,0.293 -1.342,0.507 -2.197,0.641Z" style="fill-rule:nonzero;"/><path d="M102.069,190.263l0,24.994l-8.148,0l-0.476,0c-0.44,0 -0.778,-0.083 -1.016,-0.248c-0.238,-0.164 -0.357,-0.399 -0.357,-0.705c0,-0.5 0.244,-0.83 0.732,-0.988c0.403,-0.135 0.638,-0.217 0.705,-0.248c0.067,-0.03 0.137,-0.1 0.211,-0.21c0.146,-0.195 0.219,-0.507 0.219,-0.934l0,-18.329c0,-0.427 -0.073,-0.738 -0.219,-0.934c-0.074,-0.109 -0.144,-0.18 -0.211,-0.21c-0.067,-0.031 -0.302,-0.113 -0.705,-0.247c-0.488,-0.159 -0.732,-0.489 -0.732,-0.989c0,-0.305 0.119,-0.54 0.357,-0.705c0.238,-0.165 0.576,-0.247 1.016,-0.247l8.624,0Zm5.695,12.048c1.098,0.22 1.944,0.433 2.536,0.641c0.592,0.207 1.126,0.47 1.602,0.787c0.818,0.525 1.443,1.218 1.877,2.079c0.433,0.86 0.65,1.821 0.65,2.883c0,2.088 -0.769,3.717 -2.307,4.889c-0.794,0.611 -1.67,1.041 -2.628,1.291c-0.958,0.25 -2.212,0.376 -3.763,0.376l-2.179,0l0,-1.923c0.489,-0.037 0.873,-0.107 1.154,-0.211c0.281,-0.103 0.531,-0.277 0.751,-0.521c0.402,-0.452 0.604,-1.154 0.604,-2.106l0,-4.157c0,-0.61 -0.052,-1.086 -0.156,-1.428c-0.103,-0.342 -0.296,-0.653 -0.577,-0.934c-0.207,-0.219 -0.433,-0.378 -0.677,-0.476c-0.244,-0.097 -0.592,-0.177 -1.044,-0.238l0,-1.904c0.452,-0.037 0.803,-0.098 1.053,-0.183c0.25,-0.086 0.479,-0.226 0.687,-0.421c0.195,-0.183 0.36,-0.422 0.494,-0.714c0.134,-0.293 0.208,-0.562 0.22,-0.806l0,-1.007l0,-3.168c0,-0.33 -0.055,-0.674 -0.165,-1.034c-0.11,-0.361 -0.244,-0.644 -0.403,-0.852c-0.232,-0.281 -0.491,-0.488 -0.778,-0.622c-0.287,-0.135 -0.674,-0.226 -1.163,-0.275l0,-2.014l2.106,0c2.783,0 4.907,0.573 6.372,1.721c0.672,0.525 1.184,1.16 1.538,1.904c0.354,0.745 0.531,1.55 0.531,2.417c0,0.855 -0.18,1.66 -0.54,2.417c-0.36,0.757 -0.864,1.386 -1.511,1.886c-0.476,0.391 -1.025,0.708 -1.647,0.952c-0.623,0.244 -1.502,0.495 -2.637,0.751Z" style="fill-rule:nonzero;"/><path d="M133.545,190.263l8.624,0c0.916,0 1.374,0.317 1.374,0.952c0,0.5 -0.245,0.83 -0.733,0.989c-0.403,0.134 -0.638,0.216 -0.705,0.247c-0.067,0.03 -0.137,0.101 -0.21,0.21c-0.147,0.196 -0.22,0.507 -0.22,0.934l0,18.329c0,0.427 0.073,0.739 0.22,0.934c0.073,0.11 0.143,0.18 0.21,0.21c0.067,0.031 0.302,0.113 0.705,0.248c0.488,0.158 0.733,0.488 0.733,0.988c0,0.635 -0.458,0.953 -1.374,0.953l-0.494,0l-8.148,0l-0.605,0c-0.537,0 -0.943,-0.083 -1.217,-0.248c-0.275,-0.164 -0.412,-0.412 -0.412,-0.741c0,-0.537 0.293,-0.873 0.879,-1.007c0.476,-0.122 0.757,-0.199 0.842,-0.229c0.085,-0.031 0.171,-0.101 0.256,-0.211c0.183,-0.219 0.275,-0.567 0.275,-1.043l0,-21.515Zm-6.738,0l3.607,10.272l1.593,-5.548l0,6.079l-4.23,14.191l-0.97,0l-7.105,-21.076c-0.244,-0.708 -0.5,-1.184 -0.769,-1.428c-0.158,-0.159 -0.433,-0.275 -0.824,-0.348c-0.793,-0.171 -1.19,-0.549 -1.19,-1.135c0,-0.318 0.113,-0.565 0.339,-0.742c0.226,-0.177 0.552,-0.265 0.979,-0.265l8.57,0Zm-7.105,8.423l1.941,5.529l0,5.512c0,0.561 0.022,0.964 0.064,1.208c0.043,0.244 0.138,0.513 0.284,0.806c0.256,0.537 0.61,0.94 1.062,1.208l0.678,0.44c0.463,0.281 0.695,0.592 0.695,0.934c0,0.622 -0.457,0.934 -1.373,0.934l-4.596,0c-0.915,0 -1.373,-0.306 -1.373,-0.916c0,-0.195 0.04,-0.345 0.119,-0.449c0.079,-0.103 0.235,-0.222 0.467,-0.357c1.355,-0.732 2.032,-2.002 2.032,-3.808l0,-11.041Z" style="fill-rule:nonzero;"/><path d="M156.561,215.257l-8.166,0l-0.476,0c-0.44,0 -0.778,-0.083 -1.016,-0.248c-0.238,-0.164 -0.357,-0.399 -0.357,-0.705c0,-0.5 0.244,-0.83 0.732,-0.988c0.403,-0.135 0.638,-0.217 0.705,-0.248c0.067,-0.03 0.137,-0.1 0.21,-0.21c0.147,-0.195 0.22,-0.507 0.22,-0.934l0,-18.329c0,-0.427 -0.073,-0.738 -0.22,-0.934c-0.073,-0.109 -0.143,-0.18 -0.21,-0.21c-0.067,-0.031 -0.302,-0.113 -0.705,-0.247c-0.488,-0.159 -0.732,-0.489 -0.732,-0.989c0,-0.305 0.119,-0.54 0.357,-0.705c0.238,-0.165 0.576,-0.247 1.016,-0.247l9.118,0c0.44,0 0.779,0.082 1.017,0.247c0.238,0.165 0.357,0.4 0.357,0.705c0,0.5 -0.244,0.83 -0.733,0.989c-0.402,0.134 -0.637,0.216 -0.705,0.247c-0.067,0.03 -0.137,0.101 -0.21,0.21c-0.147,0.196 -0.22,0.507 -0.22,0.934l0,18.329c0,0.427 0.073,0.739 0.22,0.934c0.073,0.11 0.143,0.18 0.21,0.21c0.068,0.031 0.303,0.113 0.705,0.248c0.489,0.158 0.733,0.488 0.733,0.988c0,0.306 -0.119,0.541 -0.357,0.705c-0.238,0.165 -0.577,0.248 -1.017,0.248l-0.476,0Z" style="fill-rule:nonzero;"/><path d="M169.855,189.768l0,2.106c-0.757,0.208 -1.334,0.528 -1.73,0.961c-0.397,0.434 -0.596,0.968 -0.596,1.602c0,0.611 0.165,1.145 0.495,1.603c0.329,0.457 0.867,0.894 1.611,1.309c0.513,0.281 1.672,0.818 3.479,1.611c1.099,0.476 1.95,0.907 2.554,1.291c0.605,0.385 1.175,0.864 1.712,1.437c1.441,1.514 2.161,3.315 2.161,5.402c0,1.575 -0.39,3.015 -1.172,4.321c-0.781,1.307 -1.855,2.332 -3.222,3.077c-0.733,0.39 -1.535,0.698 -2.408,0.924c-0.873,0.226 -1.688,0.339 -2.445,0.339l0,-2.087c1.062,-0.257 1.828,-0.614 2.298,-1.072c0.47,-0.457 0.705,-1.077 0.705,-1.858c0,-0.818 -0.366,-1.538 -1.098,-2.161c-0.489,-0.403 -1.416,-0.903 -2.784,-1.501c-1.501,-0.659 -2.53,-1.129 -3.085,-1.41c-0.555,-0.281 -1.089,-0.61 -1.602,-0.989c-2.295,-1.636 -3.442,-3.815 -3.442,-6.537c0,-1.391 0.286,-2.676 0.86,-3.854c0.574,-1.178 1.373,-2.127 2.399,-2.847c1.428,-1.001 3.198,-1.557 5.31,-1.667Zm1.446,2.106l0,-2.014c0.733,0.049 1.368,0.143 1.905,0.284c0.537,0.14 1.3,0.418 2.289,0.833c0.244,0.097 0.445,0.146 0.604,0.146c0.232,0 0.403,-0.079 0.512,-0.238l0.403,-0.531c0.196,-0.268 0.434,-0.403 0.714,-0.403c0.33,0 0.571,0.119 0.724,0.357c0.152,0.239 0.229,0.614 0.229,1.127l0,6.042c0,0.354 -0.101,0.644 -0.303,0.87c-0.201,0.226 -0.46,0.339 -0.778,0.339c-0.244,0 -0.47,-0.08 -0.677,-0.238c-0.11,-0.098 -0.199,-0.217 -0.266,-0.358c-0.067,-0.14 -0.131,-0.375 -0.192,-0.705c-0.134,-0.598 -0.366,-1.214 -0.696,-1.849c-0.329,-0.635 -0.714,-1.202 -1.153,-1.703c-0.879,-0.989 -1.984,-1.642 -3.315,-1.959Zm-2.398,21.79l0,2.087c-1.001,0 -2.106,-0.287 -3.314,-0.861c-0.452,-0.207 -0.763,-0.341 -0.934,-0.402c-0.171,-0.061 -0.336,-0.092 -0.495,-0.092c-0.244,0 -0.427,0.04 -0.549,0.119c-0.122,0.079 -0.317,0.278 -0.586,0.595c-0.22,0.269 -0.458,0.403 -0.714,0.403c-0.684,0 -1.025,-0.525 -1.025,-1.575l0,-6.665c0,-0.342 0.097,-0.632 0.292,-0.87c0.196,-0.238 0.44,-0.363 0.733,-0.375c0.268,-0.012 0.479,0.064 0.632,0.229c0.152,0.165 0.283,0.455 0.393,0.87c0.281,1.05 0.687,2.032 1.218,2.948c0.531,0.915 1.15,1.69 1.858,2.325c0.721,0.659 1.551,1.08 2.491,1.264Z" style="fill-rule:nonzero;"/><path d="M190.857,189.768l0,2.106c-0.757,0.208 -1.334,0.528 -1.73,0.961c-0.397,0.434 -0.595,0.968 -0.595,1.602c0,0.611 0.164,1.145 0.494,1.603c0.33,0.457 0.867,0.894 1.611,1.309c0.513,0.281 1.673,0.818 3.479,1.611c1.099,0.476 1.95,0.907 2.555,1.291c0.604,0.385 1.175,0.864 1.712,1.437c1.44,1.514 2.16,3.315 2.16,5.402c0,1.575 -0.39,3.015 -1.172,4.321c-0.781,1.307 -1.855,2.332 -3.222,3.077c-0.733,0.39 -1.535,0.698 -2.408,0.924c-0.873,0.226 -1.688,0.339 -2.444,0.339l0,-2.087c1.062,-0.257 1.828,-0.614 2.297,-1.072c0.47,-0.457 0.705,-1.077 0.705,-1.858c0,-0.818 -0.366,-1.538 -1.098,-2.161c-0.488,-0.403 -1.416,-0.903 -2.783,-1.501c-1.502,-0.659 -2.53,-1.129 -3.086,-1.41c-0.555,-0.281 -1.089,-0.61 -1.602,-0.989c-2.295,-1.636 -3.442,-3.815 -3.442,-6.537c0,-1.391 0.287,-2.676 0.86,-3.854c0.574,-1.178 1.374,-2.127 2.399,-2.847c1.428,-1.001 3.198,-1.557 5.31,-1.667Zm1.447,2.106l0,-2.014c0.732,0.049 1.367,0.143 1.904,0.284c0.537,0.14 1.3,0.418 2.289,0.833c0.244,0.097 0.445,0.146 0.604,0.146c0.232,0 0.403,-0.079 0.513,-0.238l0.402,-0.531c0.196,-0.268 0.434,-0.403 0.715,-0.403c0.329,0 0.57,0.119 0.723,0.357c0.152,0.239 0.229,0.614 0.229,1.127l0,6.042c0,0.354 -0.101,0.644 -0.302,0.87c-0.202,0.226 -0.461,0.339 -0.779,0.339c-0.244,0 -0.47,-0.08 -0.677,-0.238c-0.11,-0.098 -0.198,-0.217 -0.266,-0.358c-0.067,-0.14 -0.131,-0.375 -0.192,-0.705c-0.134,-0.598 -0.366,-1.214 -0.696,-1.849c-0.329,-0.635 -0.714,-1.202 -1.153,-1.703c-0.879,-0.989 -1.984,-1.642 -3.314,-1.959Zm-2.399,21.79l0,2.087c-1.001,0 -2.106,-0.287 -3.314,-0.861c-0.452,-0.207 -0.763,-0.341 -0.934,-0.402c-0.171,-0.061 -0.336,-0.092 -0.495,-0.092c-0.244,0 -0.427,0.04 -0.549,0.119c-0.122,0.079 -0.317,0.278 -0.586,0.595c-0.22,0.269 -0.458,0.403 -0.714,0.403c-0.683,0 -1.025,-0.525 -1.025,-1.575l0,-6.665c0,-0.342 0.097,-0.632 0.293,-0.87c0.195,-0.238 0.439,-0.363 0.732,-0.375c0.269,-0.012 0.479,0.064 0.632,0.229c0.152,0.165 0.284,0.455 0.394,0.87c0.28,1.05 0.686,2.032 1.217,2.948c0.531,0.915 1.151,1.69 1.859,2.325c0.72,0.659 1.55,1.08 2.49,1.264Z" style="fill-rule:nonzero;"/><path d="M213.434,215.257l-8.167,0l-0.476,0c-0.439,0 -0.778,-0.083 -1.016,-0.248c-0.238,-0.164 -0.357,-0.399 -0.357,-0.705c0,-0.5 0.244,-0.83 0.733,-0.988c0.402,-0.135 0.637,-0.217 0.704,-0.248c0.068,-0.03 0.138,-0.1 0.211,-0.21c0.147,-0.195 0.22,-0.507 0.22,-0.934l0,-18.329c0,-0.427 -0.073,-0.738 -0.22,-0.934c-0.073,-0.109 -0.143,-0.18 -0.211,-0.21c-0.067,-0.031 -0.302,-0.113 -0.704,-0.247c-0.489,-0.159 -0.733,-0.489 -0.733,-0.989c0,-0.305 0.119,-0.54 0.357,-0.705c0.238,-0.165 0.577,-0.247 1.016,-0.247l9.119,0c0.439,0 0.778,0.082 1.016,0.247c0.238,0.165 0.357,0.4 0.357,0.705c0,0.5 -0.244,0.83 -0.732,0.989c-0.403,0.134 -0.638,0.216 -0.705,0.247c-0.067,0.03 -0.137,0.101 -0.211,0.21c-0.146,0.196 -0.219,0.507 -0.219,0.934l0,18.329c0,0.427 0.073,0.739 0.219,0.934c0.074,0.11 0.144,0.18 0.211,0.21c0.067,0.031 0.302,0.113 0.705,0.248c0.488,0.158 0.732,0.488 0.732,0.988c0,0.306 -0.119,0.541 -0.357,0.705c-0.238,0.165 -0.577,0.248 -1.016,0.248l-0.476,0Z" style="fill-rule:nonzero;"/><path d="M227.918,191.746c-0.623,0.22 -1.062,0.519 -1.319,0.897c-0.256,0.378 -0.384,0.934 -0.384,1.666l0,16.37c0,1.074 0.146,1.831 0.439,2.27c0.232,0.367 0.653,0.629 1.264,0.788l0,2.014c-2.71,-0.22 -4.981,-1.239 -6.812,-3.058c-2.38,-2.368 -3.57,-5.67 -3.57,-9.906c0,-2.124 0.314,-4.043 0.943,-5.759c0.628,-1.715 1.559,-3.17 2.792,-4.367c0.94,-0.915 1.953,-1.611 3.039,-2.087c1.087,-0.476 2.289,-0.745 3.608,-0.806l0,1.978Zm1.501,0l0,-1.978c1.318,0.061 2.524,0.33 3.616,0.806c1.093,0.476 2.109,1.172 3.049,2.087c2.49,2.43 3.735,5.805 3.735,10.126c0,4.236 -1.19,7.538 -3.57,9.906c-1.831,1.831 -4.108,2.85 -6.83,3.058l0,-2.014c0.317,-0.073 0.565,-0.168 0.742,-0.284c0.177,-0.116 0.338,-0.284 0.485,-0.504c0.329,-0.5 0.494,-1.257 0.494,-2.27l0,-16.37c0,-0.647 -0.11,-1.159 -0.329,-1.538c-0.147,-0.256 -0.321,-0.458 -0.522,-0.604c-0.202,-0.146 -0.492,-0.287 -0.87,-0.421Z" style="fill-rule:nonzero;"/><path d="M252.435,190.263l9.742,16.919l0,8.075l-4.999,0l-12.433,-21.424c-0.269,-0.464 -0.488,-0.787 -0.659,-0.97c-0.171,-0.183 -0.391,-0.318 -0.659,-0.403l-0.696,-0.256c-0.183,-0.061 -0.33,-0.171 -0.44,-0.33c-0.109,-0.159 -0.164,-0.336 -0.164,-0.531c0,-0.208 0.055,-0.4 0.164,-0.577c0.11,-0.177 0.257,-0.302 0.44,-0.375c0.207,-0.086 0.769,-0.128 1.684,-0.128l8.02,0Zm-7.672,6.427l1.941,3.222l0,9.815c0,0.854 0.144,1.556 0.431,2.106c0.286,0.549 0.741,1 1.364,1.355l0.549,0.311c0.317,0.183 0.476,0.458 0.476,0.824c0,0.281 -0.116,0.512 -0.348,0.696c-0.195,0.158 -0.598,0.238 -1.208,0.238l-4.23,0c-1.111,0 -1.666,-0.318 -1.666,-0.953c0,-0.219 0.058,-0.393 0.174,-0.521c0.116,-0.129 0.369,-0.303 0.759,-0.522c1.172,-0.647 1.758,-1.825 1.758,-3.534l0,-13.037Zm17.414,7.562l-1.941,-3.278l0,-5.072c0,-1.025 -0.15,-1.809 -0.449,-2.353c-0.299,-0.543 -0.827,-1.01 -1.584,-1.4c-0.256,-0.122 -0.433,-0.254 -0.531,-0.394c-0.097,-0.14 -0.146,-0.32 -0.146,-0.54c0,-0.33 0.107,-0.571 0.32,-0.723c0.214,-0.153 0.559,-0.229 1.035,-0.229l4.577,0c0.623,0 1.032,0.097 1.227,0.293c0.208,0.195 0.311,0.427 0.311,0.695c0,0.257 -0.058,0.449 -0.173,0.577c-0.116,0.128 -0.394,0.302 -0.834,0.522c-0.647,0.33 -1.135,0.836 -1.464,1.52c-0.232,0.5 -0.348,1.178 -0.348,2.032l0,8.35Z" style="fill-rule:nonzero;"/><path d="M13.291,227.268l0,2.033c-1.075,0.256 -1.612,1.111 -1.612,2.563l0,17.047c0,0.66 0.092,1.166 0.275,1.52c0.159,0.293 0.494,0.543 1.007,0.751l0,2.069c-0.391,0 -0.748,-0.031 -1.071,-0.092c-0.324,-0.061 -0.754,-0.183 -1.291,-0.366c-1.282,-0.439 -2.442,-1.111 -3.479,-2.014c-1.038,-0.903 -1.892,-1.984 -2.564,-3.241c-1.037,-1.965 -1.556,-4.291 -1.556,-6.976c0,-2.6 0.464,-4.907 1.392,-6.922c0.927,-2.014 2.258,-3.595 3.991,-4.742c1.001,-0.671 2.075,-1.154 3.223,-1.447c0.476,-0.122 1.038,-0.183 1.685,-0.183Zm1.501,1.996l0,-1.977c1.99,0.183 3.625,0.549 4.907,1.098c0.379,0.171 0.672,0.257 0.879,0.257c0.195,0 0.345,-0.046 0.449,-0.138c0.103,-0.091 0.314,-0.351 0.631,-0.778c0.22,-0.305 0.495,-0.458 0.824,-0.458c0.342,0 0.583,0.095 0.724,0.284c0.14,0.189 0.21,0.504 0.21,0.943l0,7.123c0,0.928 -0.342,1.392 -1.025,1.392c-0.342,0 -0.595,-0.092 -0.76,-0.275c-0.165,-0.183 -0.32,-0.543 -0.467,-1.08c-0.183,-0.684 -0.513,-1.481 -0.989,-2.39c-0.476,-0.909 -0.934,-1.627 -1.373,-2.151c-0.5,-0.611 -1.062,-1.059 -1.685,-1.346c-0.622,-0.287 -1.397,-0.455 -2.325,-0.504Zm8.276,20.435c-0.488,0.488 -1.138,0.985 -1.95,1.492c-0.811,0.507 -1.577,0.906 -2.298,1.199c-0.659,0.257 -1.388,0.464 -2.188,0.623c-0.799,0.159 -1.504,0.238 -2.115,0.238l0,-2.069c0.354,-0.086 0.62,-0.189 0.797,-0.311c0.177,-0.122 0.326,-0.293 0.448,-0.513c0.208,-0.379 0.312,-0.861 0.312,-1.447l0,-5.346c0,-0.476 -0.092,-0.818 -0.275,-1.026c-0.085,-0.122 -0.171,-0.198 -0.256,-0.229c-0.086,-0.03 -0.366,-0.1 -0.843,-0.21c-0.585,-0.147 -0.878,-0.488 -0.878,-1.026c0,-0.317 0.137,-0.561 0.412,-0.732c0.274,-0.171 0.68,-0.256 1.217,-0.256l7.306,0c0.549,0 0.937,0.076 1.163,0.229c0.226,0.152 0.339,0.418 0.339,0.796c0,0.232 -0.046,0.424 -0.138,0.577c-0.091,0.152 -0.259,0.314 -0.503,0.485c-0.244,0.171 -0.397,0.33 -0.458,0.476c-0.061,0.147 -0.092,0.415 -0.092,0.806l0,6.244Z" style="fill-rule:nonzero;"/><path d="M37.003,227.763l0,21.515c0,0.476 0.091,0.817 0.274,1.025c0.098,0.122 0.19,0.198 0.275,0.229c0.085,0.03 0.366,0.107 0.842,0.229c0.586,0.134 0.879,0.47 0.879,1.007c0,0.317 -0.158,0.574 -0.476,0.769c-0.232,0.146 -0.616,0.22 -1.153,0.22l-0.623,0l-8.167,0l-0.476,0c-0.439,0 -0.778,-0.083 -1.016,-0.248c-0.238,-0.164 -0.357,-0.399 -0.357,-0.705c0,-0.5 0.244,-0.83 0.733,-0.988c0.402,-0.135 0.637,-0.217 0.705,-0.248c0.067,-0.03 0.137,-0.1 0.21,-0.21c0.147,-0.195 0.22,-0.507 0.22,-0.934l0,-18.329c0,-0.427 -0.073,-0.738 -0.22,-0.934c-0.073,-0.109 -0.143,-0.18 -0.21,-0.21c-0.068,-0.031 -0.303,-0.113 -0.705,-0.247c-0.489,-0.159 -0.733,-0.489 -0.733,-0.989c0,-0.305 0.119,-0.54 0.357,-0.705c0.238,-0.165 0.577,-0.247 1.016,-0.247l8.625,0Zm5.621,12.744c1.123,0.171 1.987,0.36 2.591,0.567c0.604,0.208 1.15,0.489 1.639,0.843c0.512,0.378 0.906,0.83 1.181,1.355c0.274,0.525 0.412,1.08 0.412,1.666l0,3.79c0,0.391 0.128,0.586 0.384,0.586c0.098,0 0.18,-0.027 0.247,-0.082c0.068,-0.055 0.162,-0.162 0.284,-0.321c0.305,-0.415 0.617,-0.622 0.934,-0.622c0.208,0 0.415,0.11 0.623,0.329c0.207,0.22 0.311,0.44 0.311,0.66c0,0.378 -0.18,0.839 -0.54,1.382c-0.36,0.543 -0.809,1.028 -1.346,1.456c-0.5,0.403 -1.044,0.692 -1.63,0.869c-0.586,0.177 -1.275,0.266 -2.069,0.266c-1.611,0 -2.868,-0.461 -3.772,-1.382c-0.903,-0.922 -1.355,-2.207 -1.355,-3.855l0,-3.076c0,-0.684 -0.006,-1.08 -0.018,-1.19c-0.061,-0.488 -0.232,-0.91 -0.513,-1.264c-0.354,-0.427 -0.86,-0.677 -1.519,-0.75l0,-1.96c0.659,-0.097 1.129,-0.268 1.409,-0.512c0.245,-0.22 0.412,-0.47 0.504,-0.751c0.092,-0.281 0.137,-0.696 0.137,-1.245l0,-4.852c0,-0.769 -0.149,-1.343 -0.448,-1.722c-0.299,-0.378 -0.84,-0.677 -1.621,-0.897l0,-2.032l0.476,0c1.355,0 2.509,0.049 3.461,0.146c1.416,0.134 2.679,0.598 3.79,1.392c1.599,1.135 2.399,2.752 2.399,4.852c0,1.721 -0.537,3.131 -1.611,4.23c-0.452,0.464 -0.98,0.842 -1.584,1.135c-0.604,0.293 -1.523,0.623 -2.756,0.989Z" style="fill-rule:nonzero;"/><path d="M60.568,227.763l7.38,0l5.09,21.515c0.097,0.378 0.207,0.714 0.329,1.007c0.11,0.232 0.354,0.421 0.733,0.567c0.317,0.135 0.537,0.269 0.659,0.403c0.122,0.134 0.183,0.318 0.183,0.549c0,0.635 -0.476,0.953 -1.428,0.953l-9.137,0c-0.366,0 -0.659,-0.089 -0.879,-0.266c-0.22,-0.177 -0.33,-0.412 -0.33,-0.705c0,-0.244 0.049,-0.427 0.147,-0.549c0.098,-0.122 0.317,-0.275 0.659,-0.458c0.244,-0.122 0.415,-0.256 0.513,-0.403c0.097,-0.146 0.146,-0.329 0.146,-0.549c0,-0.208 -0.018,-0.391 -0.055,-0.549l-0.586,-2.655l-5.108,0l0.494,-2.179l4.102,0l-3.369,-14.887l0.457,-1.794Zm-1.263,4.651l0.934,3.79l-3.241,11.828c-0.098,0.342 -0.147,0.66 -0.147,0.953c0,0.769 0.36,1.318 1.081,1.648l0.641,0.293c0.402,0.183 0.604,0.488 0.604,0.915c0,0.61 -0.446,0.916 -1.337,0.916l-4.651,0c-0.451,0 -0.809,-0.095 -1.071,-0.284c-0.262,-0.189 -0.394,-0.449 -0.394,-0.778c0,-0.354 0.269,-0.647 0.806,-0.879c0.501,-0.22 0.87,-0.418 1.108,-0.595c0.238,-0.177 0.467,-0.419 0.686,-0.724c0.342,-0.5 0.623,-1.165 0.843,-1.996l4.138,-15.087Z" style="fill-rule:nonzero;"/><path d="M86.441,227.763l0,21.515c0,0.476 0.092,0.817 0.275,1.025c0.097,0.122 0.189,0.198 0.274,0.229c0.086,0.03 0.367,0.107 0.843,0.229c0.586,0.134 0.879,0.47 0.879,1.007c0,0.317 -0.159,0.574 -0.476,0.769c-0.232,0.146 -0.617,0.22 -1.154,0.22l-0.623,0l-8.166,0l-0.476,0c-0.44,0 -0.778,-0.083 -1.016,-0.248c-0.238,-0.164 -0.357,-0.399 -0.357,-0.705c0,-0.5 0.244,-0.83 0.732,-0.988c0.403,-0.135 0.638,-0.217 0.705,-0.248c0.067,-0.03 0.137,-0.1 0.211,-0.21c0.146,-0.195 0.219,-0.507 0.219,-0.934l0,-18.329c0,-0.427 -0.073,-0.738 -0.219,-0.934c-0.074,-0.109 -0.144,-0.18 -0.211,-0.21c-0.067,-0.031 -0.302,-0.113 -0.705,-0.247c-0.488,-0.159 -0.732,-0.489 -0.732,-0.989c0,-0.305 0.119,-0.54 0.357,-0.705c0.238,-0.165 0.576,-0.247 1.016,-0.247l8.624,0Zm1.557,15.417l0,-1.959c0.524,-0.122 0.894,-0.25 1.107,-0.385c0.214,-0.134 0.4,-0.341 0.559,-0.622c0.256,-0.476 0.384,-1.117 0.384,-1.923l0,-5.859c0,-0.574 -0.042,-1.001 -0.128,-1.282c-0.085,-0.281 -0.256,-0.537 -0.513,-0.769c-0.354,-0.342 -0.83,-0.555 -1.428,-0.641l0,-1.977c2.515,0 4.37,0.238 5.567,0.714c1.379,0.549 2.472,1.391 3.277,2.527c0.818,1.159 1.227,2.581 1.227,4.266c0,1.88 -0.415,3.418 -1.245,4.614c-0.83,1.184 -1.99,2.057 -3.479,2.619c-1.233,0.451 -3.009,0.677 -5.328,0.677Z" style="fill-rule:nonzero;"/><path d="M110.3,227.763l0,21.515c0,0.476 0.091,0.817 0.274,1.025c0.098,0.122 0.19,0.198 0.275,0.229c0.086,0.03 0.366,0.107 0.842,0.229c0.586,0.134 0.879,0.47 0.879,1.007c0,0.317 -0.158,0.574 -0.476,0.769c-0.232,0.146 -0.616,0.22 -1.153,0.22l-0.623,0l-8.166,0l-0.476,0c-0.44,0 -0.779,-0.083 -1.017,-0.248c-0.238,-0.164 -0.357,-0.399 -0.357,-0.705c0,-0.5 0.244,-0.83 0.733,-0.988c0.402,-0.135 0.637,-0.217 0.705,-0.248c0.067,-0.03 0.137,-0.1 0.21,-0.21c0.147,-0.195 0.22,-0.507 0.22,-0.934l0,-18.329c0,-0.427 -0.073,-0.738 -0.22,-0.934c-0.073,-0.109 -0.143,-0.18 -0.21,-0.21c-0.068,-0.031 -0.303,-0.113 -0.705,-0.247c-0.489,-0.159 -0.733,-0.489 -0.733,-0.989c0,-0.305 0.119,-0.54 0.357,-0.705c0.238,-0.165 0.577,-0.247 1.017,-0.247l8.624,0Zm1.556,15.417l0,-1.959c0.525,-0.122 0.894,-0.25 1.108,-0.385c0.214,-0.134 0.4,-0.341 0.558,-0.622c0.257,-0.476 0.385,-1.117 0.385,-1.923l0,-5.859c0,-0.574 -0.043,-1.001 -0.128,-1.282c-0.086,-0.281 -0.257,-0.537 -0.513,-0.769c-0.354,-0.342 -0.83,-0.555 -1.428,-0.641l0,-1.977c2.515,0 4.37,0.238 5.566,0.714c1.38,0.549 2.472,1.391 3.278,2.527c0.818,1.159 1.227,2.581 1.227,4.266c0,1.88 -0.415,3.418 -1.245,4.614c-0.831,1.184 -1.99,2.057 -3.479,2.619c-1.233,0.451 -3.009,0.677 -5.329,0.677Z" style="fill-rule:nonzero;"/><path d="M134.158,252.757l-8.148,0l-0.476,0c-0.439,0 -0.778,-0.083 -1.016,-0.248c-0.238,-0.164 -0.357,-0.399 -0.357,-0.705c0,-0.5 0.244,-0.83 0.732,-0.988c0.403,-0.135 0.638,-0.217 0.705,-0.248c0.067,-0.03 0.138,-0.1 0.211,-0.21c0.146,-0.195 0.22,-0.507 0.22,-0.934l0,-18.329c0,-0.427 -0.074,-0.738 -0.22,-0.934c-0.073,-0.109 -0.144,-0.18 -0.211,-0.21c-0.067,-0.031 -0.302,-0.113 -0.705,-0.247c-0.488,-0.159 -0.732,-0.489 -0.732,-0.989c0,-0.305 0.119,-0.54 0.357,-0.705c0.238,-0.165 0.577,-0.247 1.016,-0.247l9.265,0c0.537,0 0.922,0.073 1.154,0.219c0.317,0.196 0.476,0.452 0.476,0.769c0,0.538 -0.293,0.873 -0.879,1.008c-0.476,0.109 -0.757,0.183 -0.842,0.219c-0.086,0.037 -0.177,0.11 -0.275,0.22c-0.183,0.22 -0.275,0.562 -0.275,1.025l0,21.534Zm1.484,0l0,-2.051c0.598,-0.11 1.071,-0.232 1.419,-0.366c0.348,-0.135 0.68,-0.33 0.998,-0.586c0.512,-0.403 0.982,-0.959 1.41,-1.667c0.427,-0.708 0.775,-1.495 1.043,-2.362c0.196,-0.671 0.376,-1.114 0.54,-1.327c0.165,-0.214 0.406,-0.321 0.724,-0.321c0.341,0 0.592,0.141 0.75,0.422c0.074,0.134 0.11,0.402 0.11,0.805l0,7.453l-6.994,0Z" style="fill-rule:nonzero;"/><path d="M154.154,252.757l-8.167,0l-0.476,0c-0.439,0 -0.778,-0.083 -1.016,-0.248c-0.238,-0.164 -0.357,-0.399 -0.357,-0.705c0,-0.5 0.244,-0.83 0.732,-0.988c0.403,-0.135 0.638,-0.217 0.705,-0.248c0.067,-0.03 0.137,-0.1 0.211,-0.21c0.146,-0.195 0.219,-0.507 0.219,-0.934l0,-18.329c0,-0.427 -0.073,-0.738 -0.219,-0.934c-0.074,-0.109 -0.144,-0.18 -0.211,-0.21c-0.067,-0.031 -0.302,-0.113 -0.705,-0.247c-0.488,-0.159 -0.732,-0.489 -0.732,-0.989c0,-0.305 0.119,-0.54 0.357,-0.705c0.238,-0.165 0.577,-0.247 1.016,-0.247l9.119,0c0.439,0 0.778,0.082 1.016,0.247c0.238,0.165 0.357,0.4 0.357,0.705c0,0.5 -0.244,0.83 -0.732,0.989c-0.403,0.134 -0.638,0.216 -0.705,0.247c-0.068,0.03 -0.138,0.101 -0.211,0.21c-0.147,0.196 -0.22,0.507 -0.22,0.934l0,18.329c0,0.427 0.073,0.739 0.22,0.934c0.073,0.11 0.143,0.18 0.211,0.21c0.067,0.031 0.302,0.113 0.705,0.248c0.488,0.158 0.732,0.488 0.732,0.988c0,0.306 -0.119,0.541 -0.357,0.705c-0.238,0.165 -0.577,0.248 -1.016,0.248l-0.476,0Z" style="fill-rule:nonzero;"/><path d="M169.37,227.763l9.741,16.919l0,8.075l-4.999,0l-12.433,-21.424c-0.268,-0.464 -0.488,-0.787 -0.659,-0.97c-0.171,-0.183 -0.391,-0.318 -0.659,-0.403l-0.696,-0.256c-0.183,-0.061 -0.33,-0.171 -0.439,-0.33c-0.11,-0.159 -0.165,-0.336 -0.165,-0.531c0,-0.208 0.055,-0.4 0.165,-0.577c0.109,-0.177 0.256,-0.302 0.439,-0.375c0.208,-0.086 0.769,-0.128 1.685,-0.128l8.02,0Zm-7.672,6.427l1.94,3.222l0,9.815c0,0.854 0.144,1.556 0.431,2.106c0.287,0.549 0.741,1 1.364,1.355l0.549,0.311c0.318,0.183 0.476,0.458 0.476,0.824c0,0.281 -0.116,0.512 -0.348,0.696c-0.195,0.158 -0.598,0.238 -1.208,0.238l-4.23,0c-1.111,0 -1.666,-0.318 -1.666,-0.953c0,-0.219 0.058,-0.393 0.174,-0.521c0.116,-0.129 0.369,-0.303 0.76,-0.522c1.172,-0.647 1.758,-1.825 1.758,-3.534l0,-13.037Zm17.413,7.562l-1.941,-3.278l0,-5.072c0,-1.025 -0.15,-1.809 -0.449,-2.353c-0.299,-0.543 -0.827,-1.01 -1.584,-1.4c-0.256,-0.122 -0.433,-0.254 -0.531,-0.394c-0.097,-0.14 -0.146,-0.32 -0.146,-0.54c0,-0.33 0.107,-0.571 0.32,-0.723c0.214,-0.153 0.559,-0.229 1.035,-0.229l4.578,0c0.622,0 1.031,0.097 1.226,0.293c0.208,0.195 0.312,0.427 0.312,0.695c0,0.257 -0.058,0.449 -0.174,0.577c-0.116,0.128 -0.394,0.302 -0.833,0.522c-0.647,0.33 -1.136,0.836 -1.465,1.52c-0.232,0.5 -0.348,1.178 -0.348,2.032l0,8.35Z" style="fill-rule:nonzero;"/><path d="M193.723,227.268l0,2.033c-1.075,0.256 -1.612,1.111 -1.612,2.563l0,17.047c0,0.66 0.092,1.166 0.275,1.52c0.159,0.293 0.494,0.543 1.007,0.751l0,2.069c-0.391,0 -0.748,-0.031 -1.071,-0.092c-0.324,-0.061 -0.754,-0.183 -1.291,-0.366c-1.282,-0.439 -2.441,-1.111 -3.479,-2.014c-1.038,-0.903 -1.892,-1.984 -2.563,-3.241c-1.038,-1.965 -1.557,-4.291 -1.557,-6.976c0,-2.6 0.464,-4.907 1.392,-6.922c0.927,-2.014 2.258,-3.595 3.991,-4.742c1.001,-0.671 2.076,-1.154 3.223,-1.447c0.476,-0.122 1.038,-0.183 1.685,-0.183Zm1.501,1.996l0,-1.977c1.99,0.183 3.626,0.549 4.907,1.098c0.379,0.171 0.672,0.257 0.879,0.257c0.196,0 0.345,-0.046 0.449,-0.138c0.104,-0.091 0.314,-0.351 0.632,-0.778c0.219,-0.305 0.494,-0.458 0.824,-0.458c0.341,0 0.582,0.095 0.723,0.284c0.14,0.189 0.21,0.504 0.21,0.943l0,7.123c0,0.928 -0.341,1.392 -1.025,1.392c-0.342,0 -0.595,-0.092 -0.76,-0.275c-0.165,-0.183 -0.32,-0.543 -0.467,-1.08c-0.183,-0.684 -0.513,-1.481 -0.989,-2.39c-0.476,-0.909 -0.933,-1.627 -1.373,-2.151c-0.5,-0.611 -1.062,-1.059 -1.684,-1.346c-0.623,-0.287 -1.398,-0.455 -2.326,-0.504Zm8.276,20.435c-0.488,0.488 -1.138,0.985 -1.95,1.492c-0.811,0.507 -1.577,0.906 -2.298,1.199c-0.659,0.257 -1.388,0.464 -2.188,0.623c-0.799,0.159 -1.504,0.238 -2.115,0.238l0,-2.069c0.354,-0.086 0.62,-0.189 0.797,-0.311c0.177,-0.122 0.327,-0.293 0.449,-0.513c0.207,-0.379 0.311,-0.861 0.311,-1.447l0,-5.346c0,-0.476 -0.092,-0.818 -0.275,-1.026c-0.085,-0.122 -0.171,-0.198 -0.256,-0.229c-0.086,-0.03 -0.366,-0.1 -0.842,-0.21c-0.586,-0.147 -0.879,-0.488 -0.879,-1.026c0,-0.317 0.137,-0.561 0.412,-0.732c0.274,-0.171 0.68,-0.256 1.217,-0.256l7.306,0c0.55,0 0.937,0.076 1.163,0.229c0.226,0.152 0.339,0.418 0.339,0.796c0,0.232 -0.046,0.424 -0.138,0.577c-0.091,0.152 -0.259,0.314 -0.503,0.485c-0.244,0.171 -0.397,0.33 -0.458,0.476c-0.061,0.147 -0.092,0.415 -0.092,0.806l0,6.244Z" style="fill-rule:nonzero;"/><path d="M226.883,227.268l0,2.216c-0.72,0.11 -1.257,0.427 -1.611,0.952c-0.354,0.525 -0.531,1.276 -0.531,2.252l0,15.912c0,0.281 0.058,0.577 0.174,0.888c0.116,0.311 0.265,0.577 0.448,0.797c0.196,0.244 0.403,0.418 0.623,0.522c0.22,0.103 0.519,0.173 0.897,0.21l0,2.234c-2.368,0 -4.425,-0.616 -6.171,-1.849c-1.538,-1.087 -2.697,-2.549 -3.479,-4.386c-0.781,-1.837 -1.171,-4.013 -1.171,-6.527c0,-1.844 0.253,-3.562 0.759,-5.155c0.507,-1.593 1.242,-2.975 2.207,-4.147c0.976,-1.184 2.145,-2.136 3.506,-2.857c1.361,-0.72 2.671,-1.08 3.928,-1.08l0.421,0.018Zm1.447,2.234l0,-2.215c0.598,0.097 1.083,0.201 1.455,0.311c0.373,0.11 1.047,0.342 2.024,0.696c0.622,0.219 1.037,0.329 1.245,0.329c0.354,0 0.622,-0.158 0.805,-0.476l0.238,-0.439c0.147,-0.293 0.422,-0.44 0.824,-0.44c0.33,0 0.583,0.098 0.76,0.293c0.177,0.196 0.266,0.482 0.266,0.861l0,7.617c0,0.488 -0.11,0.842 -0.33,1.062c-0.22,0.22 -0.47,0.33 -0.751,0.33c-0.293,0 -0.527,-0.095 -0.705,-0.284c-0.177,-0.189 -0.32,-0.498 -0.43,-0.925c-0.256,-0.964 -0.506,-1.721 -0.751,-2.27c-0.524,-1.16 -1.123,-2.1 -1.794,-2.82c-0.452,-0.488 -0.903,-0.864 -1.355,-1.126c-0.452,-0.263 -0.952,-0.431 -1.501,-0.504Zm0.055,23.749l0,-2.234c0.952,-0.073 1.953,-0.433 3.002,-1.08c0.562,-0.354 1.062,-0.827 1.502,-1.419c0.439,-0.592 0.769,-1.242 0.989,-1.95c0.122,-0.391 0.265,-0.669 0.43,-0.834c0.165,-0.164 0.381,-0.247 0.65,-0.247c0.293,0 0.537,0.11 0.732,0.33c0.196,0.22 0.293,0.494 0.293,0.824c0,0.549 -0.21,1.214 -0.631,1.996c-0.421,0.781 -0.962,1.501 -1.621,2.16c-0.805,0.806 -1.632,1.404 -2.481,1.795c-0.848,0.39 -1.803,0.61 -2.865,0.659Z" style="fill-rule:nonzero;"/><path d="M248.728,252.757l-8.149,0l-0.476,0c-0.439,0 -0.778,-0.083 -1.016,-0.248c-0.238,-0.164 -0.357,-0.399 -0.357,-0.705c0,-0.5 0.244,-0.83 0.732,-0.988c0.403,-0.135 0.638,-0.217 0.705,-0.248c0.067,-0.03 0.138,-0.1 0.211,-0.21c0.146,-0.195 0.22,-0.507 0.22,-0.934l0,-18.329c0,-0.427 -0.074,-0.738 -0.22,-0.934c-0.073,-0.109 -0.144,-0.18 -0.211,-0.21c-0.067,-0.031 -0.302,-0.113 -0.705,-0.247c-0.488,-0.159 -0.732,-0.489 -0.732,-0.989c0,-0.305 0.119,-0.54 0.357,-0.705c0.238,-0.165 0.577,-0.247 1.016,-0.247l9.265,0c0.538,0 0.922,0.073 1.154,0.219c0.317,0.196 0.476,0.452 0.476,0.769c0,0.538 -0.293,0.873 -0.879,1.008c-0.476,0.109 -0.757,0.183 -0.842,0.219c-0.086,0.037 -0.177,0.11 -0.275,0.22c-0.183,0.22 -0.274,0.562 -0.274,1.025l0,21.534Zm1.483,0l0,-2.051c0.598,-0.11 1.071,-0.232 1.419,-0.366c0.348,-0.135 0.68,-0.33 0.998,-0.586c0.512,-0.403 0.982,-0.959 1.41,-1.667c0.427,-0.708 0.775,-1.495 1.043,-2.362c0.196,-0.671 0.376,-1.114 0.54,-1.327c0.165,-0.214 0.406,-0.321 0.724,-0.321c0.342,0 0.592,0.141 0.75,0.422c0.074,0.134 0.11,0.402 0.11,0.805l0,7.453l-6.994,0Z" style="fill-rule:nonzero;"/><path d="M260.263,245.451l0,-14.356c0,-0.427 -0.073,-0.738 -0.22,-0.934c-0.073,-0.109 -0.143,-0.18 -0.21,-0.21c-0.067,-0.031 -0.302,-0.113 -0.705,-0.247c-0.488,-0.159 -0.732,-0.483 -0.732,-0.971c0,-0.317 0.119,-0.558 0.357,-0.723c0.238,-0.165 0.576,-0.247 1.016,-0.247l9.118,0l0.66,0.073c0.207,0.061 0.378,0.171 0.512,0.33c0.135,0.158 0.202,0.347 0.202,0.567c0,0.488 -0.244,0.812 -0.733,0.971c-0.403,0.134 -0.637,0.216 -0.705,0.247c-0.067,0.03 -0.137,0.101 -0.21,0.21c-0.147,0.196 -0.22,0.507 -0.22,0.934l0,15.363c0,1.037 0.028,1.761 0.082,2.17c0.055,0.408 0.168,0.778 0.339,1.107c0.159,0.306 0.336,0.525 0.531,0.66c0.196,0.134 0.568,0.286 1.117,0.457l0,2.399l-0.403,0c-1.587,0 -2.905,-0.14 -3.955,-0.421c-1.233,-0.33 -2.313,-0.818 -3.241,-1.465c-0.927,-0.647 -1.587,-1.373 -1.977,-2.179c-0.415,-0.854 -0.623,-2.1 -0.623,-3.735Zm11.884,7.8l0,-2.399c1.22,-0.158 2.24,-0.659 3.058,-1.501c0.927,-0.965 1.391,-2.35 1.391,-4.157l0,-11.938c0,-1.673 -0.641,-2.838 -1.922,-3.497c-0.379,-0.196 -0.626,-0.364 -0.742,-0.504c-0.116,-0.14 -0.174,-0.345 -0.174,-0.613c0,-0.318 0.116,-0.544 0.348,-0.678c0.232,-0.134 0.61,-0.201 1.135,-0.201l4.486,0c0.379,0 0.632,0.009 0.76,0.027c0.128,0.018 0.253,0.064 0.376,0.137c0.317,0.184 0.476,0.434 0.476,0.751c0,0.269 -0.098,0.495 -0.293,0.678c-0.061,0.061 -0.324,0.226 -0.788,0.494c-0.537,0.293 -0.958,0.742 -1.263,1.346c-0.305,0.604 -0.458,1.291 -0.458,2.06l0,11.957c0,2.05 -0.452,3.735 -1.355,5.053c-0.659,0.977 -1.605,1.758 -2.838,2.344c-0.61,0.293 -1.343,0.507 -2.197,0.641Z" style="fill-rule:nonzero;"/><path d="M294.083,227.763l0,24.994l-8.148,0l-0.477,0c-0.439,0 -0.778,-0.083 -1.016,-0.248c-0.238,-0.164 -0.357,-0.399 -0.357,-0.705c0,-0.5 0.244,-0.83 0.733,-0.988c0.402,-0.135 0.637,-0.217 0.705,-0.248c0.067,-0.03 0.137,-0.1 0.21,-0.21c0.147,-0.195 0.22,-0.507 0.22,-0.934l0,-18.329c0,-0.427 -0.073,-0.738 -0.22,-0.934c-0.073,-0.109 -0.143,-0.18 -0.21,-0.21c-0.068,-0.031 -0.303,-0.113 -0.705,-0.247c-0.489,-0.159 -0.733,-0.489 -0.733,-0.989c0,-0.305 0.119,-0.54 0.357,-0.705c0.238,-0.165 0.577,-0.247 1.016,-0.247l8.625,0Zm5.694,12.048c1.099,0.22 1.944,0.433 2.536,0.641c0.592,0.207 1.126,0.47 1.603,0.787c0.817,0.525 1.443,1.218 1.876,2.079c0.434,0.86 0.65,1.821 0.65,2.883c0,2.088 -0.769,3.717 -2.307,4.889c-0.793,0.611 -1.669,1.041 -2.627,1.291c-0.959,0.25 -2.213,0.376 -3.763,0.376l-2.179,0l0,-1.923c0.488,-0.037 0.873,-0.107 1.153,-0.211c0.281,-0.103 0.531,-0.277 0.751,-0.521c0.403,-0.452 0.604,-1.154 0.604,-2.106l0,-4.157c0,-0.61 -0.051,-1.086 -0.155,-1.428c-0.104,-0.342 -0.296,-0.653 -0.577,-0.934c-0.207,-0.219 -0.433,-0.378 -0.677,-0.476c-0.245,-0.097 -0.592,-0.177 -1.044,-0.238l0,-1.904c0.452,-0.037 0.802,-0.098 1.053,-0.183c0.25,-0.086 0.479,-0.226 0.686,-0.421c0.196,-0.183 0.36,-0.422 0.495,-0.714c0.134,-0.293 0.207,-0.562 0.219,-0.806l0,-1.007l0,-3.168c0,-0.33 -0.054,-0.674 -0.164,-1.034c-0.11,-0.361 -0.244,-0.644 -0.403,-0.852c-0.232,-0.281 -0.491,-0.488 -0.778,-0.622c-0.287,-0.135 -0.675,-0.226 -1.163,-0.275l0,-2.014l2.106,0c2.783,0 4.907,0.573 6.372,1.721c0.671,0.525 1.184,1.16 1.538,1.904c0.354,0.745 0.531,1.55 0.531,2.417c0,0.855 -0.18,1.66 -0.54,2.417c-0.36,0.757 -0.864,1.386 -1.511,1.886c-0.476,0.391 -1.025,0.708 -1.648,0.952c-0.622,0.244 -1.501,0.495 -2.637,0.751Z" style="fill-rule:nonzero;"/></g><g id="svgg"></g><path d="M81.593,48.302c-3.36,2.898 -4.261,4.556 -3.648,6.729c0.275,1.058 0.349,1.791 0.108,1.681c-0.772,-0.351 -1.389,2.922 -0.811,4.468c0.267,0.821 0.204,2.045 -0.209,2.76c-0.95,1.637 0.307,4.89 3.354,8.755c4.691,6.013 5.38,6.996 5.361,8.124c-0.013,0.606 0.662,1.555 1.464,2.095c1.654,1.103 2.616,5.708 1.792,8.859c-0.26,1.018 0.006,3.12 0.584,4.666c0.592,1.58 1.422,5.193 1.872,8.108c0.72,4.815 0.926,5.259 2.33,5.695c2.484,0.752 0.618,1.01 -3.955,0.558c-5.977,-0.567 -10.587,0.597 -13.991,3.591c-3.611,3.193 -2.843,3.426 1.417,0.471c5.081,-3.542 16.735,-4.497 17.878,-1.442c0.223,0.598 0.434,0.519 0.83,-0.35c0.725,-1.593 1.573,-1.789 2.046,-0.525c0.21,0.562 0.007,1.198 -0.471,1.417c-0.492,0.184 0.241,0.431 1.597,0.524c1.356,0.093 2.019,0.366 1.505,0.598c-0.549,0.246 -0.716,0.548 -0.413,0.715c0.338,0.154 0.873,-0.126 1.26,-0.591c0.452,-0.61 0.189,-0.992 -1.057,-1.327c-1.619,-0.475 -1.645,-0.545 -0.736,-1.646c0.523,-0.636 0.849,-1.478 0.704,-1.865c-0.144,-0.386 -0.57,-0.347 -0.957,0.118c-0.558,0.649 -0.597,0.544 -0.171,-0.457c0.797,-1.939 -0.005,-3.441 -1.27,-2.327c-0.817,0.706 -0.949,0.675 -0.531,-0.242c0.396,-0.869 0.852,-1.039 1.765,-0.74c0.961,0.321 1.031,-0.026 0.361,-1.817c-1.086,-2.797 0.185,-5.714 2.331,-5.436c0.799,0.102 1.633,-0.13 1.844,-0.529c0.176,-0.386 0.377,-0.061 0.359,0.746c0.013,0.996 0.245,1.19 0.662,0.593c0.897,-1.136 7.763,-3.223 8.381,-2.534c0.237,0.312 0.698,0.26 0.935,-0.069c0.703,-0.904 0.675,1.91 -0.038,3.858c-0.313,0.877 -1.002,1.495 -1.48,1.394c-0.479,-0.101 -0.567,0.092 -0.176,0.386c0.39,0.295 0.314,1.484 -0.165,2.664c-0.501,1.229 -0.511,2.273 -0.029,2.493c1.207,0.55 3.759,-1.405 3.325,-2.565c-0.21,-0.562 0.054,-1.141 0.581,-1.338c0.491,-0.184 1.032,-1.307 1.204,-2.452c0.159,-1.181 0.77,-2.33 1.354,-2.589c0.725,-0.311 0.743,-0.477 0.102,-0.478c-0.571,-0.027 -1.115,-0.304 -1.246,-0.655c-0.131,-0.351 0.286,-0.627 0.927,-0.627c0.974,0.036 0.882,-0.53 -0.419,-3.046c-1.275,-2.446 -1.384,-3.166 -0.541,-3.481c1.299,-0.486 2.908,1.675 2.27,3.074c-0.263,0.579 -0.237,0.97 0.044,0.865c0.281,-0.105 0.412,0.566 0.279,1.497c-0.177,1.347 -0.001,1.602 0.842,1.287c0.562,-0.211 1.133,-1.145 1.266,-2.075c0.132,-0.931 0.528,-1.799 0.914,-1.944c0.457,-0.171 0.632,0.404 0.482,1.501c-0.142,1.014 -0.006,1.484 0.266,1.142c0.295,-0.391 0.577,-1.777 0.622,-3.155c0.058,-1.343 0.546,-2.607 1.108,-2.817c0.527,-0.197 0.751,-0.561 0.471,-0.777c-0.294,-0.25 -0.446,-1.835 -0.296,-3.573c0.187,-2.712 0.367,-2.979 1.143,-1.868c0.513,0.729 0.714,1.374 0.455,1.431c-1.365,0.31 -1.677,0.868 -0.602,1.066c1.483,0.326 1.629,4.676 0.215,5.925c-0.449,0.408 -0.629,1.317 -0.38,1.984c0.263,0.702 0.601,0.856 0.737,0.365c0.137,-0.492 0.686,-1.057 1.213,-1.254c0.843,-0.316 0.339,-11.938 -0.663,-15.367c-0.14,-0.588 -0.081,-2.252 0.201,-3.638l0.476,-2.581l0.665,2.955c0.354,1.589 0.706,5.421 0.804,8.467c0.204,7.611 0.909,10.03 2.749,9.382c0.772,-0.289 1.51,-0.886 1.625,-1.329c0.127,-0.408 0.663,-0.688 1.19,-0.565c1.338,0.26 1.732,1.634 0.407,1.409c-0.584,-0.062 -0.312,0.237 0.618,0.69c2.439,1.169 3.618,-1.353 4.23,-9.029c0.248,-3.296 0.98,-7.333 1.596,-9.005c0.616,-1.672 1.339,-4.985 1.609,-7.368c0.27,-2.383 0.71,-4.63 1.018,-4.985c0.294,-0.39 0.388,-2.067 0.244,-3.735c-0.591,-6.185 -6.746,-9.368 -12.152,-6.265c-1.278,0.758 -1.879,0.863 -1.448,0.302c0.936,-1.351 -5.875,-2.968 -8.404,-2.022c-1.053,0.394 -2.423,0.586 -2.976,0.392c-0.601,-0.215 -2.853,0.507 -5.009,1.594c-2.832,1.419 -3.75,1.642 -3.174,0.827c0.554,-0.768 0.51,-0.992 -0.135,-0.791c-1.546,0.578 -0.999,2.576 0.931,3.455c1.062,0.484 2.579,2.079 3.416,3.567c0.851,1.524 2.179,2.829 3.026,2.952c1.291,0.238 1.225,0.383 -0.426,1.001c-1.708,0.678 -1.814,1.038 -1.065,3.04c0.473,1.265 1.361,5.137 2.033,8.648c0.66,3.477 1.193,6.401 1.206,6.436c0.289,0.773 -2.023,4.76 -3.081,5.356c-8.993,4.965 -21.797,6.271 -25.977,2.589c-1.837,-1.594 -2.333,-7.415 -0.647,-7.405c0.654,0.036 1.69,-0.512 2.248,-1.161c0.786,-0.894 1.8,-1.073 3.986,-0.69c3.212,0.56 4.758,-0.979 2.965,-2.99c-1.807,-2.047 4.435,-12.87 9.046,-15.635c1.893,-1.149 2.394,-2.057 1.112,-2.058c-0.641,0 -0.947,-0.927 -1.12,-3.424c-0.117,-1.918 -0.568,-3.551 -0.95,-3.609c-0.908,-0.181 -0.976,2.207 -0.121,2.888c0.342,0.273 0.307,0.606 -0.079,0.751c-0.422,0.157 -1.114,-0.945 -1.548,-2.425c-0.604,-1.936 -1.112,-2.546 -1.898,-2.292c-0.632,0.236 -1.742,-0.59 -2.746,-2.096c-1.153,-1.691 -2.504,-2.627 -4.079,-2.879c-1.325,-0.224 -2.545,-0.809 -2.742,-1.336c-0.25,-0.667 -0.891,-0.668 -1.993,0.024c-1.045,0.632 -1.756,0.657 -1.966,0.095c-0.788,-2.107 -6.298,-0.887 -9.97,2.248Zm5.358,2.12c-0.391,0.346 -0.554,1.088 -0.344,1.65c0.21,0.562 -0.001,0.961 -0.479,0.86c-0.479,-0.102 -0.755,0.122 -0.611,0.508c0.407,1.089 2.093,0.779 3.96,-0.76c0.944,-0.794 1.993,-1.306 2.296,-1.139c0.325,0.119 0.228,0.395 -0.229,0.566c-0.456,0.171 -0.689,0.618 -0.545,1.004c0.381,1.019 2.261,0.156 2.253,-1.042c0.027,-0.571 0.663,-0.048 1.417,1.111c0.753,1.16 1.455,1.858 1.6,1.604c0.132,-0.29 1.313,-0.131 2.625,0.38c1.311,0.51 1.75,0.506 0.974,0.035c-1.724,-1.076 -1.526,-2.151 0.159,-1.18c2.435,1.371 1.467,3.495 -1.086,2.448c-1.904,-0.809 -2.177,-0.787 -1.796,0.231c0.237,0.632 0.75,1.041 1.136,0.897c0.387,-0.145 0.847,0.123 1.018,0.58c0.237,0.632 0.026,0.711 -0.746,0.359c-1.207,-0.55 -2.911,0.568 -2.517,1.622c0.132,0.351 1.343,0.058 2.731,-0.621c2.832,-1.42 4.64,-1.616 4.42,-0.492c-0.212,1.04 1.18,0.479 2.503,-1.016c0.865,-1.005 1.067,-1 1.066,-0.039c-0.035,0.654 -0.405,1.273 -0.901,1.338c-0.483,0.1 -0.628,0.675 -0.308,1.316c0.272,0.619 0.148,1.466 -0.265,1.861c-0.518,0.434 -0.821,0.267 -0.812,-0.457c0.028,-1.211 -2.433,-2.653 -3.698,-2.18c-0.948,0.355 -0.274,2.264 0.841,2.248c0.474,-0.017 1.25,0.773 1.75,1.788c0.534,1.001 0.608,1.734 0.178,1.654c-0.395,-0.092 -0.912,-0.619 -1.122,-1.181c-0.21,-0.562 -0.904,-1.024 -1.593,-1.046c-0.64,-0.001 -1.355,-0.414 -1.526,-0.871c-0.631,-1.685 -6.199,1.198 -5.998,3.125c0.13,1.312 -0.155,1.619 -1.639,1.613c-1.163,-0.005 -1.759,-0.422 -1.776,-1.217c0.018,-0.807 -0.372,-1.102 -1.145,-0.813c-0.632,0.237 -0.865,0.684 -0.475,0.979c0.39,0.294 0.192,0.728 -0.405,0.952c-0.597,0.223 -1.272,-0.085 -1.496,-0.682c-0.236,-0.632 -0.859,-0.8 -1.557,-0.418c-0.756,0.442 -1.225,0.258 -1.374,-0.568c-0.144,-0.706 -0.934,-1.212 -1.798,-1.169c-1.813,0.078 -3.265,-1.341 -2.425,-2.416c0.351,-0.451 0.531,-0.399 0.408,0.128c-0.181,0.908 2.132,1.204 3.375,0.459c1.44,-0.859 2.511,-0.779 2.51,0.182c0.021,0.593 0.745,1.243 1.653,1.424c1.936,0.357 1.775,-1.144 -0.204,-2.046c-0.917,-0.417 -0.877,-0.632 0.036,-0.974c0.667,-0.25 1.325,-0.095 1.47,0.291c0.157,0.421 0.548,0.395 0.9,-0.056c0.408,-0.513 0.566,-0.412 0.412,0.246c-0.11,0.562 0.332,1.317 0.999,1.708c0.667,0.391 1.088,1.195 0.991,1.792c-0.15,0.776 0.082,0.649 0.663,-0.368c0.826,-1.431 0.8,-1.501 -0.723,-1.932c-0.934,-0.251 -1.219,-0.585 -0.728,-0.769c0.492,-0.184 0.633,-0.557 0.304,-0.794c-0.342,-0.273 0.189,-0.672 1.142,-0.908c1.611,-0.402 1.651,-0.617 0.475,-1.939c-1.657,-1.863 -1.723,-2.038 -0.845,-2.367c0.422,-0.157 1.343,0.379 2.062,1.231c1.807,2.047 1.987,1.779 0.874,-1.088c-0.6,-1.497 -1.13,-2.059 -1.394,-1.48c-0.264,0.579 -1.238,0.543 -2.611,-0.024c-1.891,-0.774 -2.115,-0.731 -1.734,0.288c0.367,0.983 0.148,1.146 -1.186,1.004c-2.028,-0.283 -2.484,-0.112 -2.156,0.766c0.145,0.387 0.755,0.519 1.317,0.309c0.597,-0.224 1.29,0.238 1.579,1.011c0.381,1.018 0.069,1.575 -1.231,2.061c-1.335,0.499 -1.901,0.271 -2.382,-0.91c-0.513,-1.37 -0.68,-1.388 -1.062,-0.164c-0.383,1.225 -0.629,1.317 -2.09,0.622c-1.351,-0.616 -1.518,-0.954 -0.96,-1.923c0.435,-0.764 0.857,-0.921 1.357,-0.548c0.439,0.317 1.259,0.37 1.856,0.147c0.984,-0.368 0.918,-0.544 -0.617,-1.331c-1.645,-0.866 -1.659,-0.901 -0.109,-1.04c1.69,-0.192 1.748,-1.535 0.063,-1.865c-1.339,-0.261 1.297,-3.168 2.864,-3.154c0.808,0.019 0.957,0.203 0.461,0.589Zm-3.015,19.665c0.179,1.334 1.43,0.506 1.761,-1.18c0.22,-1.123 0.335,-1.246 0.567,-0.412c0.546,1.998 1.633,3.833 1.643,2.789c0.027,-0.571 0.488,-0.943 1.05,-0.833c0.548,0.075 0.325,-0.202 -0.452,-0.672c-0.776,-0.47 -1.263,-1.129 -1.087,-1.515c0.176,-0.386 0.821,-0.267 1.47,0.291c0.636,0.523 1.365,0.65 1.672,0.295c0.998,-1.294 4.452,-1.264 4.429,0.065c-0.001,0.641 0.188,0.931 0.46,0.589c0.488,-0.623 2.57,1.841 2.219,2.613c-0.097,0.277 -0.33,0.083 -0.514,-0.408c-0.17,-0.457 -0.587,-0.501 -0.939,-0.049c-0.351,0.451 -0.588,0.46 -0.544,0.043c0.044,-0.417 -0.947,-1.247 -2.215,-1.854c-1.908,-0.928 -2.145,-0.919 -1.255,0.069c0.916,1.059 0.859,1.12 -0.51,0.671c-0.926,-0.334 -1.444,-0.22 -1.286,0.201c0.157,0.421 0.671,0.83 1.149,0.931c0.513,0.089 0.838,0.528 0.758,0.958c-0.193,0.873 -2.397,0.977 -4.218,0.176c-0.688,-0.343 -1.47,-0.291 -1.777,0.065c-0.273,0.342 -0.659,0.166 -0.882,-0.431c-0.276,-0.738 -0.741,-0.804 -1.466,-0.173c-0.575,0.496 -0.953,0.557 -0.777,0.171c0.163,-0.421 -0.209,-1.203 -0.823,-1.774c-0.93,-0.773 -0.869,-1.037 0.132,-1.251c0.72,-0.109 1.37,0.129 1.435,0.625Zm14.82,-2.661c0.63,1.686 -0.604,2.348 -2.038,1.083c-0.956,-0.844 -1.074,-1.16 -0.416,-1.006c0.514,0.089 0.812,-0.183 0.655,-0.605c-0.158,-0.421 0.092,-0.715 0.571,-0.614c0.478,0.102 1.031,0.616 1.228,1.142Zm28.055,-11.374c2.617,-0.498 7.004,1.384 6.981,3.035c-0.001,0.64 0.354,1.268 0.736,1.326c0.43,0.079 0.773,-0.289 0.8,-0.86c0.013,-0.606 0.206,-0.518 0.517,0.207c0.749,1.682 1.97,0.985 2.082,-1.179c0.098,-1.558 0.185,-1.431 0.618,0.69c0.31,1.365 1.038,2.774 1.621,3.157c1.479,0.848 2.946,-0.581 1.937,-1.886c-0.67,-0.83 -0.613,-0.891 0.299,-0.272c0.864,0.598 1.031,0.295 0.765,-1.487c-0.497,-3.577 -0.405,-3.972 0.392,-1.948c1.17,2.805 -0.664,7.215 -2.797,6.651c-0.886,-0.229 -2.681,-0.639 -3.984,-0.912c-1.304,-0.273 -2.471,-0.717 -2.589,-1.034c-0.118,-0.316 -1.092,-0.992 -2.18,-1.546c-1.075,-0.519 -2.114,-1.372 -2.311,-1.898c-0.184,-0.492 -0.798,-0.743 -1.396,-0.52c-0.562,0.211 -1.172,0.078 -1.316,-0.308c-0.145,-0.386 -1.035,-0.413 -2.019,-0.046c-0.948,0.355 -1.874,0.341 -2.006,-0.01c-0.144,-0.386 0.176,-0.707 0.734,-0.715c0.557,-0.008 1.962,-0.213 3.116,-0.445Zm-1.715,4.726c-0.282,0.746 -0.309,1.316 -0.098,1.237c0.211,-0.078 0.46,0.909 0.578,2.187c0.173,2.177 0.248,2.269 1.342,1.019c0.979,-1.127 1.168,-1.158 1.172,-0.078c-0.01,0.724 0.183,1.133 0.438,0.957c0.426,-0.359 1,0.106 1.368,1.09c0.07,0.294 -0.146,1.536 -0.507,2.712c-0.634,2.159 -0.669,2.172 -1.142,0.587c-0.28,-0.856 -0.156,-2.024 0.31,-2.598c0.602,-0.746 0.233,-0.768 -1.225,-0.063c-1.471,0.671 -1.853,1.254 -1.41,2.009c0.342,0.593 0.372,1.423 0.077,1.813c-0.329,0.404 -0.711,0.346 -0.869,-0.075c-0.157,-0.422 -0.561,-0.431 -0.856,-0.04c-0.329,0.403 -0.268,1.101 0.14,1.549c0.407,0.448 0.446,1.194 0.117,1.598c-0.339,0.487 -0.532,0.399 -0.4,-0.211c0.111,-0.562 -0.126,-0.874 -0.512,-0.729c-1.195,0.446 -1.108,2.176 0.112,2.44c0.693,0.141 0.89,0.348 0.504,0.492c-1.124,0.42 -3.568,-0.547 -3.611,-1.412c-0.017,-0.474 -0.458,-2.831 -0.961,-5.246c-0.896,-4.109 -0.901,-4.227 0.243,-1.492c1.655,4.105 4.365,1.931 4.405,-3.529c0.02,-3.05 -0.401,-3.534 -1.951,-2.433c-1.318,0.973 -1.309,0.89 -0.048,-0.663c1.872,-2.382 3.439,-3.008 2.784,-1.121Zm-34.623,17.794c1.163,0.326 1.434,0.624 0.767,0.874c-0.773,0.289 -0.742,0.478 0.175,0.895c1.979,0.902 1.684,1.613 -0.642,1.602c-2.73,-0.02 -3.827,-0.811 -3.22,-2.399c0.585,-1.54 0.761,-1.606 2.92,-0.972Zm48.403,-11.778c0.363,2.467 -1.045,6.517 -1.72,4.927c-0.399,-0.852 -0.46,-0.268 -0.575,4.779c-0.05,2.221 -0.164,2.344 -1.177,1.241c-1.074,-1.159 -1.074,-1.159 -0.606,0.307c0.302,0.808 0.35,1.791 0.174,2.177c-0.163,0.421 -0.286,0.948 -0.216,1.242c1.067,4.245 0.831,7.897 -0.437,7.29c-2.4,-1.064 -0.076,-17.868 2.478,-18.103c0.65,-0.082 0.624,-0.473 -0.099,-2.405c-0.376,-0.9 -0.543,-0.918 -0.728,-0.128c-0.331,1.685 -2.803,2.89 -4.22,2.099c-0.667,-0.391 -1.092,-0.993 -0.938,-1.331c0.154,-0.338 0.417,-0.276 0.575,0.146c0.144,0.386 0.979,-0.807 1.837,-2.689c1.913,-4.199 5.007,-3.955 5.652,0.448Zm1.846,2.152c0.122,1.075 0.539,1.44 1.36,1.173c0.904,-0.258 0.909,-0.14 -0.053,0.5c-0.659,0.487 -1.481,1.715 -1.824,2.724c-0.493,1.466 -0.827,1.751 -1.559,1.184c-0.575,-0.466 -0.557,-0.632 0.005,-0.522c0.526,0.123 1.024,-1.224 1.17,-3.08c0.262,-3.582 0.671,-4.415 0.901,-1.979Z" style="fill-rule:nonzero;"/><path d="M63.137,64.574c-4.925,4.924 -6.306,18.573 -3.878,38.444c0.876,7.16 1.742,15.043 1.938,17.492c0.195,2.45 0.628,4.57 0.918,4.702c0.93,0.453 -0.112,-12.93 -2.331,-30.317c-0.402,-2.893 -0.482,-6.106 -0.209,-7.089c0.26,-1.018 0.309,-2.277 0.112,-2.804c-0.512,-1.37 1.387,-10.528 2.724,-13.27c0.584,-1.22 0.937,-2.633 0.753,-3.125c-0.88,-2.353 5.921,-5.898 9.761,-5.052c1.185,0.278 2.05,0.234 1.918,-0.117c-1.213,-3.029 -8.236,-2.324 -11.706,1.136Z" style="fill-rule:nonzero;"/><path d="M111.921,59.379c0.407,1.41 0.784,1.669 1.417,1.112c0.632,-0.557 1.277,-0.117 2.373,1.635c0.784,1.348 1.446,1.941 1.403,1.397c-0.021,-1.234 -4.471,-6.495 -5.209,-6.22c-0.281,0.105 -0.26,1.018 0.016,2.076Z" style="fill-rule:nonzero;"/><path d="M198.27,32.931c-0.079,0.43 -1.023,0.903 -2.072,1.096c-1.098,0.17 -1.756,0.657 -1.586,1.113c0.158,0.422 -0.518,1.075 -1.467,1.43c-2.248,0.84 -3.702,2.626 -6.015,7.254c-1.305,2.61 -2.25,3.724 -3.352,3.776c-0.983,0.048 -1.224,0.258 -0.711,0.667c1.403,1.076 3.463,-0.375 5.239,-3.762c3.231,-6.133 9.116,-10.095 14.189,-9.591c2.634,0.297 4.605,-0.641 4.132,-1.905c-0.144,-0.387 -0.798,-0.422 -1.439,-0.103c-2.833,1.42 -4.206,1.494 -2.937,0.178c0.984,-1.009 0.888,-1.053 -0.636,-0.203c-1.001,0.535 -1.756,0.657 -1.699,0.275c0.071,-0.346 -0.241,-0.75 -0.671,-0.83c-0.465,-0.066 -0.895,0.175 -0.975,0.605Z" style="fill-rule:nonzero;"/><path d="M71.251,80.596c-5.687,4.49 -9.134,16.789 -5.485,19.588c0.39,0.295 0.403,0.65 0.052,0.781c-1.335,0.5 -0.852,5.003 1.145,10.983c2.145,6.484 2.381,12.682 0.54,14.291c-0.483,0.421 -0.932,2.11 -0.99,3.774c-0.059,1.663 -0.486,3.625 -0.957,4.401c-0.83,1.312 -0.769,1.369 0.864,1.239c2.449,-0.196 1.86,1.226 -0.915,2.264c-2.88,1.077 -4.345,0.264 -6.317,-3.403c-0.828,-1.572 -2.35,-3.285 -3.341,-3.795c-0.992,-0.51 -2.519,-1.38 -3.369,-1.943c-1.799,-1.169 -1.581,0.271 0.257,1.866c0.859,0.799 0.947,1.247 0.279,1.817c-1.528,1.373 -0.055,3.384 3.376,4.743c1.794,0.73 3.47,1.785 3.68,2.347c0.618,1.651 5.617,0.782 8.314,-1.428c1.349,-1.105 2.806,-1.81 3.465,-1.656c2.461,0.48 2.256,-0.283 -0.477,-2.024c-3.084,-1.929 -3.224,-2.518 -1.977,-8.389c0.128,-0.729 0.165,-2.344 0.047,-3.621c-0.191,-1.69 0.694,-0.179 3.182,5.616c2.098,4.861 2.874,6.292 1.972,3.667c-2.277,-6.836 -1.17,-7.089 1.26,-0.271c1.191,3.398 2.702,6.796 3.346,7.556c0.869,1.037 0.908,1.463 0.135,1.752c-1.019,0.381 -1.755,-0.625 -2.468,-3.281c-0.359,-1.387 -2.317,-1.055 -2.643,0.428c-0.088,0.513 0.74,1.765 1.824,2.841c1.499,1.441 2.012,2.49 2.006,3.974c-0.005,1.483 0.35,2.111 1.324,2.468c1.417,0.47 2.609,2.587 1.354,2.336c-0.43,-0.08 -0.299,0.592 0.231,1.475c1.021,1.66 2.447,2.367 2.874,1.367c0.167,-0.303 -0.329,-0.878 -1.044,-1.291c-0.715,-0.413 -1.232,-0.94 -1.087,-1.195c0.295,-0.711 6.297,1.208 6.626,2.086c0.17,0.457 0.811,0.778 1.403,0.756c0.676,-0.012 0.773,-0.289 0.321,-0.64c-1.403,-1.077 0.563,-1.172 2.12,-0.112c0.816,0.575 1.663,0.699 1.874,0.3c0.211,-0.4 0.299,-0.272 0.202,0.325c-0.212,1.36 5.058,3.353 7.7,2.925c1.769,-0.301 2.164,0.111 5.069,5.311c6.079,10.898 13.357,14.622 18.088,9.289c0.523,-0.636 1.99,-1.745 3.211,-2.442c1.243,-0.745 3.39,-2.068 4.791,-3.033c3.649,-2.446 14.935,-14.554 14.541,-15.608c-0.149,-0.505 0.058,-1.023 0.48,-1.18c0.421,-0.158 1.308,-1.21 2.003,-2.351c0.694,-1.141 1.626,-1.969 2.056,-1.89c0.395,0.093 0.781,-0.693 0.791,-1.737l0.028,-1.852l0.661,1.554c0.329,0.878 0.311,1.686 -0.076,1.83c-0.386,0.145 -0.347,1.211 0.086,2.37c0.434,1.159 1.069,2.003 1.42,1.871c0.317,-0.118 1.019,0.26 1.479,0.848c0.495,0.576 1.368,1.411 2.013,1.85c0.596,0.417 2.289,1.946 3.719,3.413c3.017,3.036 4.631,4.354 7.088,5.677c0.956,0.523 1.938,1.437 2.175,2.069c0.223,0.597 0.819,1.335 1.337,1.542c0.483,0.22 2.031,1.683 3.39,3.176c1.373,1.529 3.447,3.435 4.614,4.2c14.686,9.721 21.324,13.124 20.325,10.455c-0.144,-0.387 -1.241,-1.178 -2.46,-1.762c-9.328,-4.599 -18.806,-11.424 -25.345,-18.307c-0.504,-0.492 -1.973,-1.744 -3.315,-2.763c-1.356,-1.055 -4.071,-3.283 -6.066,-4.978c-2.009,-1.731 -4.557,-3.941 -5.732,-4.943c-1.996,-1.696 -2.202,-2.139 -2.825,-6.911c-0.908,-6.707 -0.068,-8.102 6.324,-10.493c8.571,-3.205 13.015,-1.385 21.236,8.713c3.963,4.923 8.367,8.241 14.251,10.805l3.387,1.456l-2.395,-2.228c-2.969,-2.693 -3.192,-3.29 -2.33,-5.694c0.365,-1.058 1.034,-2.909 1.478,-4.077c2.416,-6.708 3.658,-11.417 4.386,-16.534c0.468,-3.137 1.16,-6.319 1.573,-7.034c1.196,-2.049 14.291,-15.955 14.822,-15.713c0.904,0.382 3.132,12.121 2.893,15.013c-0.284,2.989 0.295,3.893 1.687,2.692c1.977,-1.78 -1.095,-17.807 -3.683,-19.162c-0.895,-0.466 -2.101,-1.976 -2.697,-3.355c-0.56,-1.392 -1.31,-2.433 -1.626,-2.315c-0.316,0.119 -0.781,-0.268 -0.991,-0.83c-0.223,-0.597 -0.043,-1.185 0.343,-1.329c0.422,-0.158 0.396,-0.549 -0.008,-0.878c-0.39,-0.295 -1.442,-2.464 -2.26,-4.76c-1.625,-4.557 -2.805,-4.716 -2.041,-0.318c0.218,1.44 0.134,2.713 -0.217,2.844c-0.387,0.145 -0.374,0.5 0.016,0.795c0.391,0.294 0.114,0.518 -0.645,0.521c-0.975,-0.036 -1.124,-0.22 -0.614,-0.891c0.725,-0.952 0.958,-0.759 -5.855,-5.057c-8.598,-5.432 -20.614,-17.113 -21.19,-20.581c-0.393,-2.335 -0.45,-2.274 -2.132,3.4l-1.492,5.002l3.342,2.513c1.843,1.393 4.544,4.227 6.043,6.308c1.499,2.082 3.227,4.239 3.863,4.761c1.469,1.252 1.815,2.284 0.424,1.243c-0.78,-0.589 -0.969,-0.558 -0.755,0.122c0.197,0.527 0.044,0.865 -0.351,0.772c-0.382,-0.057 -1.13,1.904 -1.597,4.401c-0.587,3.142 -1.488,5.121 -2.89,6.406c-1.172,1.039 -2.531,3.509 -3.094,5.641c-1.215,4.458 -4.051,9.402 -7.024,12.156l-2.1,1.987l-2.061,-2.192c-2.863,-3.053 -7.241,-5.66 -7.945,-4.756c-0.386,0.465 -0.509,0.351 -0.412,-0.246c0.282,-1.387 -6.426,-4.443 -7.287,-3.32c-0.387,0.465 -0.554,0.447 -0.443,-0.115c0.088,-0.513 -0.223,-0.917 -0.733,-0.887c-0.522,-0.005 0.291,-1.47 1.781,-3.268c8.958,-10.838 9.363,-11.79 6.127,-14.983c-1.342,-1.34 -3.425,-3.804 -4.6,-5.447c-1.21,-1.629 -2.442,-2.89 -2.758,-2.772c-0.316,0.119 -0.592,-0.299 -0.592,-0.939c0.001,-0.641 -0.78,-1.871 -1.749,-2.75c-1.004,-0.865 -2.675,-2.763 -3.784,-4.229c-1.109,-1.467 -2.596,-2.873 -3.293,-3.133c-0.72,-0.211 -1.097,-0.15 -0.861,0.162c0.237,0.312 0.433,1.8 0.489,3.34c0.064,2.419 -0.324,4.165 -2.233,9.444c-0.238,0.649 -0.164,1.062 0.13,0.992c0.317,-0.118 0.158,0.421 -0.347,1.211c-0.471,0.776 -0.7,1.663 -0.498,1.988c1.175,1.642 0.456,5.394 -1.552,7.947c-1.054,1.355 -1.041,1.39 0.276,0.417c1.076,-0.763 1.449,-0.622 1.962,0.748c0.63,1.686 -1.35,2.707 -2.877,1.516c-0.342,-0.272 -1.43,-0.185 -2.379,0.169c-0.983,0.368 -1.685,0.31 -1.606,-0.12c0.19,-0.991 -7.207,-0.107 -8.472,1.007c-0.518,0.434 -0.602,1.066 -0.211,1.36c0.39,0.295 0.438,0.637 0.087,0.769c-1.827,0.683 1.023,4.021 3.183,3.693c1.488,-0.196 1.8,-0.112 0.913,0.3c-2.415,1.143 -3.752,3.885 -1.469,3.031c1.019,-0.381 1.91,-0.994 1.968,-1.376c0.211,-1.04 4.54,-2.739 6.037,-2.378c1.136,0.255 1.193,0.514 0.327,1.839c-0.738,1.237 -0.73,1.474 0.113,1.159c1.616,-0.604 2.54,-3.593 1.778,-5.63c-0.748,-2.002 -1.609,-2.161 -4.919,-0.842c-1.265,0.473 -2.362,0.643 -2.48,0.327c-0.315,-0.843 1.626,-2.29 2.415,-1.785c0.378,0.26 1.093,0.353 1.598,0.204c0.505,-0.149 1.585,-0.473 2.384,-0.692c0.834,-0.232 1.409,-0.086 1.329,0.344c-0.066,0.465 0.407,1.089 1.096,1.432c0.689,0.342 1.422,0.909 1.623,1.234c0.18,0.373 0.776,1.111 1.245,1.617c0.693,0.781 0.456,1.11 -1.204,1.491c-1.141,0.266 -1.431,0.455 -0.65,0.403c2.7,-0.169 1.535,1.748 -1.793,2.913c-1.791,0.67 -3.012,1.367 -2.696,1.569c0.294,0.25 0.025,1.031 -0.59,1.742c-0.65,0.723 -1.046,1.592 -0.901,1.978c0.42,1.124 2.91,-0.247 2.92,-1.612c0.001,-0.962 0.589,-1.422 2.134,-1.679c1.216,-0.175 2.38,-0.81 2.666,-1.438c0.352,-0.772 0.598,-0.864 0.795,-0.337c0.157,0.421 -0.102,1.119 -0.621,1.553c-1.322,1.175 -0.537,2.523 0.859,1.44c0.681,-0.534 1.805,-0.634 2.625,-0.261c2.51,1.144 3.064,0.376 1.415,-1.89c-1.933,-2.6 -1.946,-2.635 -0.384,-2.098c1.105,0.387 1.207,0.229 0.69,-0.939c-0.837,-1.809 -1.658,-1.542 -2.134,0.718c-0.463,2.295 -1.121,2.461 -1.765,0.42c-0.35,-1.15 -0.077,-1.813 0.919,-2.146c1.594,-0.556 0.474,-4.301 -1.391,-4.684c-0.514,-0.088 -1.032,-0.295 -1.119,-0.422c-0.395,-0.734 0.796,-7.505 1.279,-7.285c0.338,0.154 0.372,0.782 0.086,1.409c-0.285,0.627 -0.409,1.474 -0.251,1.896c0.157,0.421 0.544,-0.364 0.839,-1.716c0.763,-3.207 2.485,-5.773 3.437,-5.048c0.404,0.329 0.39,0.614 -0.014,0.605c-1.04,0.109 -3.558,8.578 -2.716,9.224c1.294,0.997 3.324,-0.963 5.272,-5.175c1.31,-2.812 2.149,-3.887 2.425,-3.149c0.223,0.597 -0.041,1.497 -0.581,1.979c-0.54,0.482 -0.712,0.987 -0.409,1.154c0.338,0.154 1.431,-0.776 2.477,-2.048c1.714,-2.162 1.854,-2.215 2.007,-0.95c0.087,0.768 -1.104,2.614 -2.58,4.127c-5.131,5.122 -6.274,6.991 -5.508,9.147c0.381,1.018 2.775,-0.397 3.614,-2.113c0.286,-0.627 0.014,-0.605 -0.781,0.052c-0.681,0.535 0.128,-0.728 1.749,-2.816c1.67,-2.066 3.585,-3.903 4.305,-4.012c0.861,-0.162 1.036,-0.548 0.493,-1.145c-0.421,-0.483 -0.495,-1.216 -0.166,-1.62c0.295,-0.39 0.751,-0.241 0.987,0.392c0.263,0.702 0.706,0.817 1.128,0.338c0.387,-0.464 -0.027,0.571 -0.937,2.313c-1.754,3.338 -2.294,3.821 -3.114,2.806c-0.609,-0.773 -2.722,0.858 -2.367,1.806c0.131,0.352 0.623,0.488 1.114,0.304c0.492,-0.184 0.096,0.685 -0.857,1.882c-0.976,1.246 -2.153,3.128 -2.637,4.19c-0.506,1.109 -1.253,2.11 -1.674,2.267c-0.422,0.158 -0.4,0.75 0.082,1.291c0.469,0.505 0.692,1.422 0.512,2.01c-0.216,0.601 -0.252,1.896 -0.06,2.945c0.716,4.056 0.754,6.084 0.122,6.321c-0.386,0.144 -0.435,0.443 -0.106,0.68c0.294,0.25 -0.426,0.68 -1.616,0.925c-2.296,0.498 -3.559,-0.952 -2.03,-2.324c0.518,-0.434 0.804,-1.061 0.673,-1.413c-0.132,-0.351 -0.693,-0.461 -1.29,-0.238c-0.562,0.21 -1.028,0.465 -0.988,0.57c0.039,0.105 0.178,1.334 0.265,2.743c0.139,1.55 0.402,2.252 0.696,1.862c0.308,-0.355 0.641,-0.32 0.786,0.066c0.368,0.984 -1.231,2.703 -4.011,4.263c-1.256,0.71 -2.605,2.135 -2.935,3.18c-0.655,1.886 -1.696,2.956 -1.375,1.355c0.278,-1.506 -2.367,-3.119 -4.088,-2.475c-2.424,0.906 -4.162,0.756 -4.595,-0.403c-0.21,-0.562 -0.034,-0.948 0.431,-0.882c1.22,0.264 1.34,-1.662 0.085,-2.234c-0.772,-0.352 -0.97,-0.238 -0.72,0.429c0.197,0.527 -0.181,0.909 -0.822,0.908c-0.807,-0.018 -0.891,0.294 -0.321,0.961c0.68,0.747 0.57,0.988 -0.488,0.943c-3.717,-0.091 -4.187,0.045 -2.397,0.657c1.202,0.431 1.601,0.962 1.46,1.976c-0.181,1.229 -0.405,1.272 -1.905,0.152c-1.816,-1.323 -1.858,-3.469 -0.049,-4.306c2.626,-1.222 2.889,-1.481 2.267,-1.968c-0.856,-0.681 -0.54,-0.8 2.072,-0.776c1.4,-0.003 1.949,-0.248 1.765,-0.74c-0.158,-0.421 -0.974,-0.676 -1.825,-0.598c-0.852,0.078 -1.734,-0.353 -1.97,-0.985c-0.307,-0.926 -0.214,-1.001 0.553,-0.447c0.719,0.531 1.014,0.461 1.177,-0.28c0.128,-0.729 0.755,-0.763 2.133,-0.077c1.584,0.809 1.86,1.226 1.486,2.367c-0.594,1.623 0.84,2.568 3.171,2.056c1.049,-0.192 1.238,-0.543 0.681,-1.175c-0.421,-0.483 -0.995,-0.629 -1.268,-0.287c-0.272,0.342 -0.671,0.131 -0.895,-0.466c-0.223,-0.597 0.085,-1.272 0.647,-1.483c0.597,-0.223 1.211,0.028 1.421,0.59c0.683,1.826 4.955,0.188 6.134,-2.334c0.571,-1.255 1.314,-2.374 1.701,-2.518c1.299,-0.486 0.128,-1.69 -1.689,-1.731c-1.698,-0.045 -1.76,-0.102 -0.403,-0.65c0.808,-0.302 1.91,-0.354 2.489,-0.09c0.675,0.308 1.097,0.15 1.22,-0.376c0.066,-0.465 -0.715,-0.734 -1.79,-0.612c-1.194,0.126 -1.87,-0.181 -1.773,-0.778c0.155,-0.658 -0.271,-0.619 -1.312,0.13c-0.821,0.588 -1.972,1.258 -2.534,1.468c-0.737,0.276 -0.575,0.496 0.636,0.844c1.031,0.295 1.439,0.743 1.087,1.194c-0.76,0.965 -3.169,0.946 -2.98,-0.046c0.313,-1.518 -1.839,0.007 -2.556,1.837c-0.589,1.421 -1.015,1.781 -1.989,1.425c-1.466,-0.493 -3.362,-5.029 -2.273,-5.436c0.421,-0.158 0.443,-0.526 0.053,-0.821c-0.39,-0.294 0.018,-0.807 0.931,-1.149c1.37,-0.512 3.3,-3.596 2.919,-4.615c-0.053,-0.14 -1.106,-0.066 -2.357,0.121c-2.95,0.463 -3.02,0.489 -2.784,1.121c0.105,0.281 0.443,0.435 0.724,0.33c0.926,-0.306 2.69,0.235 2.953,0.938c0.131,0.351 -1.036,0.547 -2.621,0.379c-1.571,-0.133 -2.808,-0.551 -2.716,-0.946c0.26,-1.338 -1.312,-0.19 -2.187,1.539c-1.103,2.294 -2.324,2.991 -2.604,1.494c-0.135,-0.79 -0.824,-1.133 -1.79,-0.932c-1.154,0.232 -1.387,0.679 -0.932,1.79c0.338,0.795 0.289,1.734 -0.137,2.094c-0.554,0.447 -1.001,-0.106 -1.504,-1.88c-0.609,-2.055 -0.472,-2.546 0.731,-2.756c0.79,-0.135 1.716,-0.762 2.086,-1.381c0.479,-0.859 0.755,-0.763 1.189,0.396c0.302,0.808 0.868,1.357 1.254,1.213c0.386,-0.145 0.571,-0.614 0.413,-1.036c-0.157,-0.421 0.163,-0.741 0.708,-0.785c0.557,-0.008 1.817,-0.599 2.823,-1.336c1.085,-0.846 2.459,-1.24 3.591,-1.103c1.611,0.239 1.668,0.177 0.299,-0.592c-1.079,-0.637 -2.19,-0.502 -4.288,0.523c-2.029,0.999 -3.363,1.178 -4.864,0.698c-1.61,-0.559 -1.821,-0.8 -0.943,-1.129c0.738,-0.276 0.901,-1.017 0.481,-2.141c-0.473,-1.265 -0.337,-1.756 0.554,-1.729c1.282,0.001 3.071,-3.991 2.12,-4.716c-0.917,-0.739 -1.861,0.055 -1.441,1.179c0.223,0.597 0.061,1.018 -0.405,0.952c-1.088,-0.233 -3.978,6.813 -3.184,7.757c0.395,0.413 0.223,0.918 -0.374,1.141c-1.545,0.578 -1.702,-0.805 -0.418,-3.367c1.116,-2.259 1.109,-4.098 -0.015,-3.678c-0.913,0.342 -3.407,6.519 -2.731,6.827c0.302,0.167 -0.015,1.567 -0.754,3.125c-1.64,3.536 -1.239,7.71 0.823,8.3c0.79,0.185 1.329,0.664 1.14,1.015c-0.154,0.338 0.241,0.43 0.838,0.207c0.597,-0.223 1.155,-0.873 1.182,-1.443c0.027,-0.571 0.18,-0.268 0.263,0.702c0.139,1.229 0.521,1.607 1.329,1.305c0.597,-0.223 1.22,-0.056 1.364,0.33c0.158,0.422 0.527,0.444 0.821,0.054c0.294,-0.391 1.238,-0.543 2.063,-0.372c1.304,0.274 1.282,0.322 -0.22,0.483c-0.97,0.083 -1.633,0.451 -1.488,0.837c0.131,0.351 -0.177,1.027 -0.682,1.496c-0.553,0.447 -0.874,0.447 -0.772,-0.031c0.101,-0.479 -0.987,-1.353 -2.443,-1.929c-2.699,-1.113 -5.236,-0.404 -5.167,1.492c0.012,0.676 0.289,0.773 0.64,0.321c0.431,-0.561 1.123,0.541 2.305,3.702c1.905,5.093 6.19,8.735 10.347,8.822c1.198,-0.008 3.375,0.139 4.814,0.241c2.454,0.244 3.635,-0.238 6.924,-2.79c0.646,-0.521 0.553,-0.126 -0.207,0.839c-0.725,0.951 -2.859,2.31 -4.686,2.993c-4.236,1.625 -3.921,2.788 0.499,1.655c4.14,-1.028 9.869,-7.014 10.772,-11.235c0.335,-1.567 2.214,-2.109 2.208,-0.626c-0.015,2.208 1.611,-0.082 2.079,-2.899l0.401,-2.673l6.704,-1.987c10.967,-3.221 14.978,-2.879 26.605,2.301c3.33,1.517 6.408,5.25 6.988,8.516c0.35,2.112 -2.681,10.172 -3.981,10.658c-1.089,0.407 -4.261,-5.613 -3.689,-6.868c0.263,-0.579 0.365,-1.377 0.207,-1.799c-0.157,-0.421 -0.421,-0.163 -0.549,0.566c-0.418,1.878 -4.384,-0.162 -4.51,-2.317c-0.051,-1.102 -0.42,-1.445 -1.122,-1.182c-0.562,0.21 -1.677,-0.414 -2.47,-1.358c-0.807,-0.98 -2.838,-2.022 -4.571,-2.374c-1.721,-0.318 -3.695,-1.101 -4.357,-1.694c-1.36,-1.173 -2.861,-1.012 -2.068,0.253c0.303,0.488 -0.097,0.917 -0.98,1.127c-0.825,0.149 -2.515,0.661 -3.744,1.121c-1.278,0.437 -2.963,0.427 -3.92,-0.096c-0.93,-0.453 -1.895,-0.572 -2.168,-0.23c-0.782,1.013 -0.036,1.936 1.228,1.463c2.213,-0.828 -2.381,7.977 -8.7,16.666c-7.145,9.799 -10.313,13.106 -17.085,17.801c-2.766,1.915 -5.735,4.147 -6.596,4.949c-6.409,5.88 -19.398,-12.043 -24.865,-34.26c-0.963,-3.964 -1.71,-7.568 -1.595,-8.012c0.079,-0.43 -0.438,-1.277 -1.101,-1.87c-0.894,-0.787 -1.104,-1.349 -0.661,-1.875c0.33,-0.403 0.203,-1.277 -0.235,-1.914c-0.452,-0.672 -0.596,-1.378 -0.319,-1.602c1.291,-1.044 -0.763,-6.001 -2.799,-6.841c-5.48,-2.234 -17.47,2.531 -18.949,7.568c-1.378,4.559 -1.985,-9.267 -0.875,-19.251c0.27,-2.383 0.118,-4.608 -0.285,-4.938c-0.452,-0.351 -0.399,-0.531 0.163,-0.421c0.609,0.132 0.636,-0.438 0.106,-1.641c-1.108,-2.428 1.185,-5.288 6.165,-7.711c2.753,-1.31 3.152,-1.419 1.484,-0.315c-1.937,1.245 -1.617,1.245 2.177,-0.173c2.423,-0.907 4.483,-2.037 4.584,-2.516c0.11,-0.561 -0.21,-0.562 -0.843,-0.005c-0.839,0.754 -1.185,0.363 -2.275,-2.552c-2.339,-6.252 -4.288,-6.324 -11.75,-0.37Zm79.341,-5.172c0.228,0.716 0.13,2.274 -0.275,3.546c-0.418,1.237 -0.516,2.795 -0.315,3.441c0.434,1.159 -0.714,3.87 -1.486,3.519c-0.241,-0.11 -0.016,-2.397 0.491,-5.109c0.984,-5.292 0.73,-6.078 -0.731,-2.169c-0.69,1.9 -1.103,2.295 -1.823,1.763c-0.609,-0.453 -0.556,-0.632 0.089,-0.513c0.61,0.132 0.821,-0.267 0.571,-0.935c-0.959,-2.564 0.097,-6.162 1.594,-5.48c0.772,0.352 1.622,1.234 1.885,1.937Zm34.243,-4.68c2.219,2.613 2.539,3.254 1.958,4.272c-0.369,0.619 -0.821,0.908 -0.953,0.557c-1.712,-3.724 -2.694,-5.599 -3.702,-6.903c-2.14,-2.723 -0.065,-1.137 2.697,2.074Zm-28.349,11.124c0.456,0.47 0.429,1.04 0.007,1.198c-0.456,0.171 -1.282,1.28 -1.893,2.43c-1.381,2.838 -2.38,0.81 -1.039,-2.134c1.056,-2.317 1.872,-2.702 2.925,-1.494Zm-73.089,33.342c-2.226,1.113 -4.791,2.713 -5.674,3.563c-0.883,0.851 -1.682,1.39 -1.748,1.215c-0.42,-1.124 3.532,-4.044 7.212,-5.34l4.241,-1.506l-4.031,2.068Zm49.084,-17.558c0.145,0.386 -0.123,0.847 -0.545,1.005c-0.456,0.17 -1.208,1.052 -1.687,1.912c-0.787,1.535 -0.8,1.5 -0.636,-0.523c0.151,-2.058 2.317,-3.869 2.868,-2.394Zm-41.491,17.841c0.645,0.119 -0.462,0.693 -2.705,1.332c-5.321,1.51 -6.168,1.386 -1.966,-0.226c1.918,-0.757 4.012,-1.26 4.671,-1.106Zm-10.649,5.464c0.268,0.821 -2.592,8.056 -2.894,7.248c-0.262,-0.702 1.854,-7.46 2.381,-7.657c0.176,-0.065 0.408,0.128 0.513,0.409Zm9.277,-2.389c-4.067,2.723 -7.249,7.276 -8.244,11.892c-1.186,5.288 -2.063,5.296 -1.15,0.03c0.979,-5.731 4.894,-10.999 9.368,-12.633l2.459,-0.919l-2.433,1.63Zm-32.939,13.842c0.351,-0.132 0.43,0.72 0.165,1.94c-0.573,2.536 -1.758,2.579 -2.69,0.085c-0.513,-1.37 -0.35,-1.791 0.611,-1.79c0.689,0.022 1.563,-0.104 1.914,-0.235Zm36.748,-13.825c0.342,0.272 -0.062,0.584 -0.913,0.662c-0.887,0.091 -1.418,0.49 -1.234,0.982c0.17,0.457 -0.08,0.75 -0.558,0.649c-0.479,-0.101 -0.729,0.193 -0.571,0.614c0.157,0.422 -0.093,0.715 -0.572,0.614c-0.478,-0.101 -2.06,2.412 -3.537,5.527c-2.744,5.831 -3.43,6.568 -2.408,2.662c1.872,-7.306 7.205,-13.705 9.793,-11.71Zm25.028,-1.594c1.448,0.66 1.513,0.835 0.683,2.147c-1.191,1.847 -1.859,2.096 -2.345,0.797c-0.223,-0.597 -0.042,-1.185 0.379,-1.343c0.421,-0.157 0.413,-0.715 -0.008,-1.198c-1.039,-1.173 -0.639,-1.282 1.291,-0.403Zm77.407,-27.15c1.012,2.064 2.982,2.408 2.913,0.512c-0.14,-4.552 9.711,3.375 12.773,10.277c0.503,1.133 0.815,1.216 1.272,0.405c0.347,-0.57 0.927,-0.947 1.265,-0.793c0.302,0.167 -0.418,1.237 -1.635,2.373c-1.217,1.135 -3.747,3.683 -5.623,5.626c-1.863,1.978 -3.325,3.205 -3.246,2.775c0.573,-2.856 -5.246,1.923 -7.04,5.797c-0.585,1.219 -0.884,1.171 -2.366,-0.437c-0.951,-1.045 -2.087,-1.621 -2.54,-1.332c-0.439,0.324 -0.593,0.342 -0.377,0.061c0.773,-0.93 -0.301,-2.41 -2.35,-3.285c-1.132,-0.457 -2.308,-0.498 -2.625,-0.059c-0.58,0.697 -0.033,-1.589 0.961,-3.963c0.272,-0.662 0.8,-2.141 1.174,-3.282c1.035,-3.229 5.355,-9.769 6.83,-10.321c1.053,-0.394 1.08,-0.965 0.301,-2.835c-0.557,-1.274 -1.227,-2.104 -1.443,-1.823c-0.215,0.281 -0.592,0.021 -0.829,-0.611c-0.788,-2.107 1.52,-1.289 2.585,0.915Zm-64.732,28.175c0.657,1.436 0.613,1.532 -0.787,0.895c-0.82,-0.374 -1.812,-0.564 -2.198,-0.419c-0.352,0.131 -0.597,-0.097 -0.518,-0.527c0.252,-1.255 -2.114,-1.692 -2.997,-0.521c-0.624,0.794 -0.431,0.882 0.882,0.431c1.335,-0.499 1.589,-0.354 1.268,0.607c-0.55,1.527 0.358,2.028 1.623,0.914c0.632,-0.557 0.896,-0.495 0.755,0.198c-0.282,1.387 -1.797,1.833 -3.324,0.963c-0.715,-0.413 -1.869,-0.502 -2.642,-0.213c-2.213,0.828 -2.122,-1.928 0.13,-3.291c2.683,-1.605 6.831,-1.114 7.808,0.963Zm-43.642,17.124c0.052,1.101 0.144,1.027 0.615,-0.39c0.955,-3.12 2.482,-3.211 3.349,-0.252c0.958,3.205 0.611,8.7 -0.583,9.146c-2.88,1.077 -7.172,-5.045 -5.19,-7.347c0.615,-0.711 0.914,-1.623 0.625,-2.076c-0.325,-0.439 -0.158,-0.742 0.321,-0.64c0.443,0.114 0.859,0.799 0.863,1.559Zm51.545,-15.155c0.798,0.101 2.093,0.138 2.874,0.086c0.795,-0.017 1.365,0.33 1.242,0.857c-0.088,0.513 -0.774,0.929 -1.511,0.885c-0.724,-0.01 -1.813,0.077 -2.449,0.195c-0.601,0.105 -1.422,-0.269 -1.764,-0.862c-0.78,-1.229 -0.468,-1.466 1.608,-1.161Zm47.806,-6.31l3.357,0.626l-2.388,1.214c-2.051,1.047 -2.407,1.06 -2.221,-0.05c0.132,-0.931 -0.324,-1.401 -1.636,-1.591c-1.027,-0.176 -1.558,-0.418 -1.171,-0.563c0.373,-0.179 2.207,0.016 4.059,0.364Zm-2.471,5.809c0.559,-1.931 1.375,-1.996 1.457,-0.065c0.095,1.646 3.884,5.674 5.007,5.254c0.281,-0.105 0.751,0.4 1.027,1.138c0.275,0.737 0.832,1.37 1.188,1.357c0.404,0.009 0.715,0.733 0.723,1.611c0.021,1.233 -0.502,0.908 -2.54,-1.652c-2.149,-2.64 -3.873,-3.717 -9.554,-5.956c-3.804,-1.5 -6.884,-2.99 -6.814,-3.337c0.071,-0.346 2.155,0.195 4.612,1.198c3.866,1.557 4.568,1.615 4.894,0.452Zm-47.643,14.136c0.578,1.545 -1.95,2.491 -4.509,1.646l-2.316,-0.735l3.253,-0.937c2.16,-0.647 3.323,-0.642 3.572,0.026Zm55.781,-15.819c-0.738,0.917 -0.69,1.259 0.363,1.826c1.478,0.849 2.74,3.259 1.897,3.575c-0.351,0.131 -0.807,-0.339 -1.092,-0.993c-0.249,-0.668 -1.139,-1.656 -2.026,-2.205c-1.991,-1.257 -2.166,-1.832 -0.787,-2.749c1.633,-1.091 2.739,-0.704 1.645,0.546Z" style="fill-rule:nonzero;"/><path d="M195.19,105.387c0.091,0.886 0.779,1.87 1.552,2.222c0.724,0.33 1.482,0.967 1.64,1.388c0.144,0.387 0.557,0.633 0.908,0.501c0.703,-0.262 -2.212,-4.737 -3.48,-5.344c-0.435,-0.198 -0.712,0.346 -0.62,1.233Z" style="fill-rule:nonzero;"/><path d="M146.385,52.294c3.243,1.39 17.76,3.808 17.91,3.031c0.079,-0.43 -0.926,-0.975 -2.203,-1.178c-1.312,-0.19 -3.927,-0.653 -5.828,-1.023c-1.9,-0.371 -4.643,-0.746 -6.095,-0.883c-1.453,-0.138 -2.949,-0.499 -3.34,-0.793c-0.39,-0.295 -1.07,-0.401 -1.527,-0.23c-0.421,0.158 0.048,0.663 1.083,1.076Z" style="fill-rule:nonzero;"/><path d="M199.753,40.942c-0.713,1.628 -2.126,2.237 -3.574,1.577c-1.062,-0.484 -3.526,1.919 -3.106,3.043c0.289,0.773 1.255,0.252 1.805,-0.955c0.264,-0.579 0.729,-0.833 1.119,-0.539c0.343,0.273 -0.409,1.474 -1.635,2.694c-1.559,1.504 -2.175,2.855 -2.005,4.273c0.175,1.536 -0.028,1.852 -0.76,1.285c-1.026,-0.817 -1.021,2.944 0.014,4.639c0.78,1.23 -2.595,0.45 -4.226,-1.022c-0.724,-0.65 -0.974,-0.676 -0.562,-0.11c0.412,0.567 0.653,1.318 0.486,1.62c-0.44,0.965 0.506,3.494 1.173,3.245c0.316,-0.118 0.589,-0.781 0.625,-1.435c-0.013,-0.676 0.308,-1.316 0.659,-1.448c0.387,-0.144 0.632,0.084 0.54,0.479c-0.08,0.43 0.513,0.409 1.365,0.01c2.086,-1.06 2.099,-1.025 0.511,-1.953c-1.224,-0.703 -1.229,-0.821 -0.03,-0.829c1.009,0.023 1.154,-0.232 0.523,-0.957c-0.68,-0.746 -0.57,-0.988 0.439,-0.965c0.76,-0.003 1.203,-0.209 1.028,-0.464c-0.737,-1.006 -0.383,-4.021 0.495,-4.349c0.527,-0.197 0.94,-0.912 0.963,-1.601c0.01,-2.006 1.87,-1.1 2.101,1.015c0.157,1.383 0.442,1.717 0.995,1.27c0.427,-0.36 0.489,-1.584 0.104,-2.722c-0.438,-1.277 -0.35,-2.111 0.265,-2.181c1.558,-0.222 3.324,-1.924 2.833,-2.701c-0.263,-0.382 0.08,-1.071 0.752,-1.522c0.87,-0.566 1.243,-0.425 1.224,0.383c-0.01,1.685 1.482,2.569 2.668,1.564c1.884,-1.705 0.248,-3.295 -3.026,-2.952c-2.485,0.209 -3.266,0.581 -3.763,1.608Z" style="fill-rule:nonzero;"/><path d="M213.248,37.416c1.018,0.58 1.096,0.791 0.359,1.067c-0.632,0.236 -0.383,0.583 0.767,1.194c0.895,0.466 1.789,1.253 1.987,1.78c0.197,0.526 0.464,0.707 0.583,0.382c0.497,-1.027 -2.524,-5.142 -3.77,-5.156c-1.01,-0.023 -1.005,0.096 0.074,0.733Z" style="fill-rule:nonzero;"/><path d="M151.166,61.116c-0.106,0.68 0.152,1.905 0.586,2.744c0.815,1.537 0.78,1.55 -1.7,1.236c-5.648,-0.65 -4.354,0.668 2.675,2.763c8.061,2.39 12.11,5.08 13.656,9.106l0.989,2.432l0.288,-2.229c0.401,-2.673 -1.637,-5.554 -5.419,-7.743c-1.32,-0.747 -2.53,-1.736 -2.701,-2.192c-0.158,-0.422 -1.5,-1.441 -2.917,-2.232c-2.505,-1.345 -2.54,-1.332 -0.781,0.052c2.482,2.034 2.587,2.635 0.275,1.699c-1.409,-0.555 -1.97,-1.306 -2.192,-2.864c-0.367,-2.585 -2.362,-4.602 -2.759,-2.772Z" style="fill-rule:nonzero;"/><path d="M210.106,41.434c0.596,1.378 1.736,2.393 3.408,3.009c2.944,1.021 3.465,1.987 8.269,15.044c1.988,5.422 3.734,11.696 4.511,16.129c1.127,6.545 2.069,8.956 2.838,7.267c1.671,-3.668 -10.085,-42.271 -12.08,-39.683c-0.659,0.807 -6.792,-2.425 -6.58,-3.465c0.088,-0.513 -0.149,-0.825 -0.5,-0.693c-0.386,0.144 -0.348,1.211 0.134,2.392Z" style="fill-rule:nonzero;"/><path d="M204.903,48.504c-0.032,2.375 1.191,3.398 2.202,1.819c0.598,-0.864 0.577,-1.777 0.007,-2.444c-1.114,-1.265 -2.194,-0.942 -2.209,0.625Z" style="fill-rule:nonzero;"/><path d="M208.365,50.052c0.158,0.422 1.18,0.8 2.321,0.854c1.119,0.102 2.786,0.919 3.685,1.824c0.864,0.918 1.838,1.595 2.084,1.503c0.702,-0.263 -1.306,-2.955 -2.867,-3.812c-0.75,-0.4 -1.237,-1.059 -1.061,-1.445c0.176,-0.386 -0.118,-0.316 -0.659,0.166c-0.505,0.47 -1.295,0.605 -1.698,0.275c-0.952,-0.725 -2.147,-0.278 -1.805,0.635Z" style="fill-rule:nonzero;"/><path d="M204.024,60.284c-0.886,9.62 1.627,22.012 4.226,21.04c0.633,-0.236 0.222,-2.085 -1.425,-6.593c-2.185,-5.95 -2.268,-6.599 -1.468,-13.024c0.46,-3.695 0.717,-7.075 0.56,-7.496c-0.71,-1.897 -1.357,0.227 -1.893,6.073Z" style="fill-rule:nonzero;"/><path d="M171.077,83.737c0.645,0.76 0.557,0.953 -0.325,0.842c-0.645,-0.119 0.18,0.373 1.842,1.073c4.23,1.781 7.258,7.094 4.624,8.08c-1.616,0.604 -5.795,-3.078 -6.618,-5.813c-0.42,-1.444 -1.218,-2.827 -1.797,-3.091c-1.496,-0.682 -0.311,4.52 1.775,7.744c0.965,1.4 2.223,3.372 2.828,4.347c0.692,1.102 1.407,1.516 1.912,1.046c0.426,-0.359 1.409,-0.086 2.124,0.647c1.329,1.305 1.351,1.257 1.103,-1.333c-0.331,-3.239 0.758,-4.287 2.521,-2.464c1.333,1.423 0.216,-0.922 -2.663,-5.73c-1.035,-1.695 -0.402,-2.893 0.94,-1.874c0.343,0.273 1.796,-0.231 3.236,-1.09c2.429,-1.429 2.63,-1.424 3.59,0.179c0.658,1.115 0.649,0.878 -0.026,-0.711l-1.024,-2.419l-3.588,1.541c-3.038,1.297 -3.701,1.345 -4.534,0.295c-0.535,-0.681 -1.197,-0.953 -1.47,-0.611c-0.307,0.355 -0.628,0.355 -0.772,-0.032c-0.131,-0.351 -1.206,-0.87 -2.391,-1.147c-2.01,-0.45 -2.115,-0.41 -1.287,0.521Z" style="fill-rule:nonzero;"/><path d="M62.45,127.608c-0.018,1.128 -0.181,1.229 -0.948,0.676c-0.733,-0.567 -0.926,-0.335 -0.857,0.921c0.034,0.948 -0.208,1.799 -0.559,1.93c-0.386,0.145 -0.549,0.566 -0.405,0.952c0.5,1.335 2.581,-0.164 3.562,-2.573c0.99,-2.492 0.938,-3.914 -0.15,-3.507c-0.352,0.131 -0.646,0.842 -0.643,1.601Z" style="fill-rule:nonzero;"/><path d="M219.724,69.826c0.465,1.348 0.53,2.164 0.17,1.738c-0.395,-0.413 -0.895,-0.466 -1.167,-0.124c-0.273,0.342 0.073,1.054 0.758,1.598c0.951,0.725 1.306,1.674 1.366,3.653c0.112,2.441 0.151,2.546 0.627,0.927c0.435,-1.404 0.183,-3.472 -0.506,-4.455c-0.074,-0.093 -0.121,-1.076 -0.116,-2.239c0.014,-1.246 -0.406,-2.37 -0.981,-2.836c-0.719,-0.532 -0.759,0.004 -0.151,1.738Z" style="fill-rule:nonzero;"/><path d="M125.061,106.393c-0.875,1.408 -0.849,1.478 0.832,1.691c1.479,0.207 1.593,0.084 0.826,-0.79c-0.618,-0.689 -0.556,-0.953 0.137,-0.812c0.61,0.133 0.834,-0.232 0.584,-0.899c-0.499,-1.335 -1.131,-1.098 -2.379,0.81Z" style="fill-rule:nonzero;"/><path d="M133.932,105.597c0.509,0.291 0.754,0.839 0.591,1.261c-0.176,0.386 0.11,0.399 0.632,0.084c0.962,-0.64 1.6,-2.04 1.319,-2.896c-0.092,-0.246 -0.917,-0.097 -1.817,0.279c-1.133,0.504 -1.379,0.916 -0.725,1.272Z" style="fill-rule:nonzero;"/><path d="M183.415,89.212c1.731,2.275 3.157,3.303 2.671,2.003c-0.661,-1.874 -2.384,-3.912 -3.087,-3.649c-0.351,0.131 -0.194,0.873 0.416,1.646Z" style="fill-rule:nonzero;"/><path d="M104.346,125.191c0.105,0.281 -0.119,0.645 -0.541,0.803c-0.386,0.144 -1.19,1.206 -1.718,2.364c-0.527,1.158 -0.673,1.733 -0.286,1.268c0.386,-0.465 0.812,-0.504 0.97,-0.082c0.144,0.386 -0.04,0.855 -0.462,1.013c-0.386,0.145 -1.19,1.206 -1.731,2.329l-0.981,2.089l3.342,-1.771c11.25,-5.889 10.745,-5.74 12.481,-3.667c1.092,1.313 1.626,2.635 1.647,4.188c0.034,1.269 0.221,2.52 0.423,2.845c0.465,0.707 0.546,2.959 0.192,5.974c-0.159,1.501 0.086,2.37 0.714,2.656c0.579,0.263 1.894,2.494 2.945,4.984c1.099,2.511 2.212,4.737 2.493,4.953c2.197,1.7 -3.458,9.06 -7.263,9.483c-2.814,0.291 -3.012,0.405 -1.744,1.012c1.689,0.769 4.916,-0.237 7.156,-2.276c1.713,-1.522 5.305,-8.51 4.181,-8.09c-0.351,0.131 -1.24,-1.498 -1.972,-3.667c-0.718,-2.133 -2.111,-4.895 -3.115,-6.081c-1.688,-2.051 -1.697,-2.288 -0.379,-3.582c1.099,-1.131 1.143,-1.548 0.222,-2.084c-0.873,-0.515 -1.32,-1.709 -1.695,-4.852c-0.401,-3.213 -0.786,-4.35 -1.655,-4.746c-0.579,-0.264 -1.307,-1.032 -1.53,-1.629c-1.353,-3.618 -5.28,-5.873 -8.603,-4.91c-1.809,0.516 -3.196,1.195 -3.091,1.476Zm6.693,-0.301c2.199,0.098 -1.699,1.556 -4.566,1.707c-1.777,0.065 -1.755,0.016 0.48,-0.859c1.369,-0.513 3.196,-0.876 4.086,-0.848Z" style="fill-rule:nonzero;"/><path d="M137.264,114.721c-1.366,1.592 -1.353,1.627 0.192,1.049c0.891,-0.293 1.489,-0.837 1.371,-1.153c-0.132,-0.351 0.707,-0.785 1.839,-0.969c1.12,-0.218 1.713,-0.56 1.278,-0.758c-1.281,-0.642 -3.248,0.094 -4.68,1.831Z" style="fill-rule:nonzero;"/><path d="M145.07,112.041c0.118,0.316 1.246,0.976 2.487,1.512c2.747,1.135 3.183,-0.589 0.432,-1.843c-1.834,-0.835 -3.3,-0.687 -2.919,0.331Z" style="fill-rule:nonzero;"/><path d="M229.667,83.243c-0.259,0.698 -0.313,1.518 -0.111,1.843c0.224,0.277 0.328,1.199 0.31,2.006c-0.054,0.821 0.152,1.585 0.49,1.739c0.952,0.404 2.17,-2.333 1.403,-3.207c-0.395,-0.413 -0.478,-1.063 -0.183,-1.453c0.659,-0.807 -0.029,-2.752 -0.872,-2.437c-0.316,0.118 -0.812,0.824 -1.037,1.509Z" style="fill-rule:nonzero;"/><path d="M102.376,134.376c-1.598,0.758 -2.775,1.678 -2.631,2.065c0.158,0.421 0.996,0.308 1.914,-0.236c0.918,-0.543 1.73,-0.727 1.861,-0.376c0.119,0.316 2.178,-0.173 4.575,-1.15l4.338,-1.783l-4.022,1.024l-4.021,1.024l3.627,-1.757c2.007,-0.951 3.873,-1.529 4.153,-1.314c1,0.747 3.253,-0.616 2.846,-1.704c-0.421,-1.124 -2.554,-0.406 -12.64,4.207Z" style="fill-rule:nonzero;"/><path d="M224.678,92.596c-0.121,2.247 0.781,4.552 1.471,3.934c0.356,-0.333 0.296,-1.672 -0.182,-3.055c-0.954,-2.766 -1.222,-2.946 -1.289,-0.879Z" style="fill-rule:nonzero;"/><path d="M229.169,90.796c-0.334,0.926 0.287,3.016 1.978,6.787c1.367,3.012 2.273,5.756 2.001,6.098c-0.273,0.342 -0.243,1.172 0.029,1.791c0.311,0.725 0.491,0.777 0.505,0.172c0.036,-1.615 1.48,-1.715 1.646,-0.095c0.108,1.04 1.635,2.231 4.921,3.844c2.658,1.328 4.724,2.677 4.667,3.059c-0.172,0.825 5.532,3.016 5.862,2.292c0.097,-0.277 -0.917,-1.059 -2.272,-1.793c-11.271,-5.834 -11.74,-6.339 -15.466,-16.196c-1.551,-4.144 -2.031,-6.287 -1.548,-6.707c0.461,-0.373 0.263,-0.58 -0.579,-0.585c-0.689,-0.022 -1.497,0.6 -1.744,1.333Z" style="fill-rule:nonzero;"/><path d="M125.118,141.764c1.847,0.871 2.808,0.872 3.599,0.096c0.975,-0.926 0.936,-1.031 -0.631,-0.725c-0.966,0.201 -2.067,-0.068 -2.488,-0.551c-0.408,-0.448 -1.281,-0.642 -1.914,-0.405c-0.843,0.315 -0.531,0.719 1.434,1.585Z" style="fill-rule:nonzero;"/><path d="M227.644,103.738c0.131,0.351 0.495,0.575 0.847,0.444c0.316,-0.118 0.763,0.435 1.039,1.173c0.254,0.786 0.701,1.339 0.982,1.234c0.294,-0.07 0.474,-0.338 0.408,-0.513c-0.078,-0.211 -0.354,-0.948 -0.63,-1.686c-0.276,-0.738 -1.022,-1.34 -1.698,-1.327c-0.653,-0.036 -1.093,0.289 -0.948,0.675Z" style="fill-rule:nonzero;"/><path d="M177.323,124.521c6.342,10.32 6.908,10.869 6.592,6.062c-0.256,-3.788 -0.401,-4.174 -1.358,-3.415c-0.404,0.311 -2.014,-0.568 -3.584,-1.983c-2.333,-2.17 -2.61,-2.267 -1.65,-0.664Z" style="fill-rule:nonzero;"/><path d="M225.032,109.279c0.499,1.014 0.823,2.415 0.669,3.073c-0.168,0.944 0.025,1.032 0.794,0.304c0.611,-0.509 1.129,-0.943 1.234,-0.982c0.07,-0.027 -0.42,-1.124 -1.06,-2.407c-0.688,-1.304 -1.517,-2.235 -1.903,-2.09c-0.351,0.131 -0.233,1.088 0.266,2.102Z" style="fill-rule:nonzero;"/><path d="M116.692,150.921c-0.45,2.331 1.078,7.485 2.096,7.104c0.562,-0.21 0.751,-0.561 0.471,-0.777c-0.294,-0.25 -0.806,-1.94 -1.134,-3.78c-0.629,-3.608 -1.071,-4.363 -1.433,-2.547Z" style="fill-rule:nonzero;"/><path d="M232.037,109.061c0.329,0.878 0.169,2.379 -0.354,3.336c-0.624,1.114 -0.643,2.562 -0.039,4.178c0.64,1.603 1.061,2.086 1.189,1.357c0.18,-0.908 1.243,-1.065 4.92,-0.759c2.559,0.204 4.595,0.724 4.516,1.154c-0.08,0.43 0.872,0.834 2.132,0.884c1.26,0.049 3.208,0.441 4.375,0.886c1.312,0.51 1.988,0.497 1.778,-0.065c-0.513,-1.369 -2.71,-3.07 -3.588,-2.742c-0.422,0.158 -2.563,-0.322 -4.81,-1.083c-2.198,-0.74 -4.357,-1.053 -4.818,-0.68c-0.413,0.394 -1.997,0.226 -3.515,-0.407l-2.699,-1.113l2.617,-1.459c1.454,-0.824 2.24,-1.398 1.735,-1.25c-0.518,0.114 -1.127,-0.339 -1.377,-1.006c-0.25,-0.667 -0.96,-1.603 -1.556,-2.02c-0.878,-0.633 -0.944,-0.488 -0.506,0.789Z" style="fill-rule:nonzero;"/><path d="M127.713,150.843c-0.725,1.593 -0.055,3.064 1.139,2.617c1.194,-0.447 1.306,-2.29 0.183,-3.151c-0.61,-0.453 -0.926,-0.335 -1.322,0.534Z" style="fill-rule:nonzero;"/><path d="M157.294,142.582c0.315,0.843 1.008,1.625 1.486,1.726c0.513,0.088 0.926,0.655 0.934,1.212c-0.027,0.571 0.749,1.362 1.64,1.709c0.939,0.37 2.583,1.877 3.679,3.308c2.258,3.039 10.288,10.486 11.666,10.851c3.102,0.802 2.235,-0.876 -1.393,-2.762c-1.632,-0.831 -3.027,-1.67 -3.106,-1.881c-0.499,-1.335 -10.673,-12.263 -12.853,-13.81c-2.241,-1.604 -2.539,-1.653 -2.053,-0.353Z" style="fill-rule:nonzero;"/><path d="M169.151,140.029c1.372,1.208 2.58,0.476 1.949,-1.21c-0.21,-0.562 -1.013,-0.782 -1.821,-0.48c-1.194,0.447 -1.22,0.697 -0.128,1.69Z" style="fill-rule:nonzero;"/><path d="M222.214,119.942c-0.132,0.61 0.613,1.853 1.608,2.802c1.228,1.142 1.561,1.818 1.034,2.015c-1.51,0.565 0.961,0.962 4.31,0.711c1.821,-0.161 4.521,-0.971 5.953,-1.747c1.664,-0.902 2.757,-1.191 2.928,-0.734c0.158,0.421 0.908,0.501 1.681,0.212c0.772,-0.289 1.523,-0.21 1.654,0.142c0.145,0.386 1.479,0.848 2.98,1.007c1.5,0.16 3.607,0.653 4.691,1.088c5.19,2.103 20.483,0.387 19.524,-2.177c-0.289,-0.773 -0.939,-0.69 -2.787,0.362c-1.744,1.012 -2.345,1.117 -2.217,0.388c0.141,-0.693 -0.583,-0.703 -2.269,-0.072c-1.335,0.499 -2.753,0.669 -3.143,0.375c-0.391,-0.295 -1.457,-0.256 -2.335,0.072c-0.913,0.342 -3.74,-0.042 -6.333,-0.874c-6.555,-2.112 -12.01,-2.675 -14.996,-1.558c-3.583,1.34 -9.687,0.54 -11.006,-1.488c-0.728,-1.09 -1.149,-1.252 -1.277,-0.524Z" style="fill-rule:nonzero;"/><path d="M167.513,145.927c0.986,1.673 2.716,1.266 2.085,-0.42c-0.328,-0.878 -1.008,-1.304 -1.641,-1.068c-0.667,0.25 -0.834,0.873 -0.444,1.488Z" style="fill-rule:nonzero;"/><path d="M174.798,146.885c1.496,0.682 1.82,1.762 0.521,1.607c-0.584,-0.062 -0.268,0.14 0.693,0.461c1.777,0.577 3.208,-0.199 2.024,-1.117c-0.355,-0.308 -0.355,-0.628 -0.039,-0.746c1.792,-0.67 -0.323,-2.041 -2.176,-1.428c-1.558,0.542 -1.844,0.849 -1.023,1.223Z" style="fill-rule:nonzero;"/><path d="M172.039,149.358c-0.746,0.68 -1.212,1.575 -1.055,1.996c0.158,0.422 0.491,0.457 0.764,0.115c0.272,-0.342 0.759,-0.324 1.058,0.045c0.298,0.369 0.619,-0.272 0.694,-1.461c0.089,-1.154 0.103,-2.08 0.033,-2.054c-0.092,0.074 -0.747,0.68 -1.494,1.359Z" style="fill-rule:nonzero;"/><path d="M258.332,118.885c0.311,0.404 2.229,0.928 4.265,1.127c2.05,0.234 4.222,0.583 4.823,0.799c1.72,0.637 1.887,0.335 0.853,-1.681c-0.534,-1.001 -1.086,-2.156 -1.314,-2.551c-0.18,-0.373 -0.908,-0.501 -1.602,-0.322c-0.681,0.215 -2.107,0.468 -3.183,0.59c-1.04,0.109 -0.224,0.364 1.826,0.599c2.62,0.261 3.427,0.599 2.615,1.103c-0.637,0.439 -2.902,0.485 -5.026,0.159c-2.124,-0.327 -3.616,-0.249 -3.257,0.177Z" style="fill-rule:nonzero;"/><path d="M250.469,121.946c0.157,0.421 5.336,0.887 5.547,0.487c0.515,-1.193 -1.872,-2.222 -3.628,-1.565c-1.124,0.42 -1.985,0.902 -1.919,1.078Z" style="fill-rule:nonzero;"/><path d="M203.101,154.156c-0.132,0.289 0.789,1.466 2.052,2.596c1.228,1.142 2.429,2.534 2.613,3.026c0.197,0.527 1.574,2.174 3.1,3.685c1.526,1.511 3.095,3.566 3.512,4.572c0.416,1.005 0.924,1.616 1.14,1.335c0.522,-0.636 2.768,1.407 3.438,3.198c0.289,0.773 0.899,1.226 1.351,0.936c0.777,-0.491 1.014,-0.179 2.354,2.763c0.298,0.689 0.759,0.958 1.031,0.615c0.624,-0.793 2.566,2.044 2.657,3.891c0.051,1.102 0.148,1.146 0.412,0.247c0.238,-0.97 0.484,-1.062 1.216,-0.495c0.513,0.408 0.627,0.926 0.223,1.238c-0.461,0.372 0.131,1.312 1.762,2.784c2.601,2.35 4.045,2.571 3.283,0.534c-0.359,-1.067 -0.302,-1.129 0.636,-0.439c1.829,1.358 0.567,-1.053 -1.402,-2.678l-1.675,-1.375l0.775,2.072l0.753,2.12l-1.777,-1.217c-0.973,-0.677 -1.526,-1.511 -1.266,-1.888c0.259,-0.377 0.281,-1.067 0.027,-1.532c-0.254,-0.465 -0.6,-1.177 -0.78,-1.55c-0.228,-0.395 -0.653,-0.356 -1.005,0.096c-0.373,0.5 -0.566,0.412 -0.456,-0.15c0.123,-0.527 -2.24,-3.206 -5.236,-5.969c-7.069,-6.484 -11.656,-11.255 -13.979,-14.47c-2.013,-2.81 -4.385,-4.766 -4.759,-3.945Z" style="fill-rule:nonzero;"/><path d="M193.088,161.104c0.969,0.558 0.877,0.953 -0.41,2.115c-1.634,1.412 -1.109,2.817 0.788,2.107c1.229,-0.459 1.615,0.357 0.911,1.902c-0.395,0.868 -0.114,0.763 1.041,-0.43c1.397,-1.403 1.388,-1.64 0.094,-1.996c-1.488,-0.445 -1.973,-2.706 -0.708,-3.179c1.334,-0.499 0.312,-1.518 -1.307,-1.353c-1.313,0.131 -1.379,0.276 -0.409,0.834Z" style="fill-rule:nonzero;"/><path d="M197.392,167.581c0.47,0.506 0.934,1.213 1.079,1.599c0.144,0.386 0.522,0.325 0.851,-0.078c0.317,-0.439 1.028,-0.465 1.541,-0.056c0.513,0.409 1.084,0.435 1.237,0.098c0.141,-0.373 -0.481,-1.181 -1.394,-1.801c-1.996,-1.376 -4.563,-1.176 -3.314,0.238Z" style="fill-rule:nonzero;"/></svg>