<?xml version="1.0" encoding="UTF-8" standalone="no"?><!DOCTYPE svg PUBLIC "-//W3C//DTD SVG 1.1//EN" "http://www.w3.org/Graphics/SVG/1.1/DTD/svg11.dtd"><svg width="100%" height="100%" viewBox="0 0 189 199" version="1.1" xmlns="http://www.w3.org/2000/svg" xmlns:xlink="http://www.w3.org/1999/xlink" xml:space="preserve" xmlns:serif="http://www.serif.com/" style="fill-rule:evenodd;clip-rule:evenodd;stroke-linejoin:round;stroke-miterlimit:2;"><rect id="Artboard1" x="0" y="0" width="188.486" height="198.811" style="fill:none;"/><g><path d="M43.848,148.987l0,2.216c-0.72,0.11 -1.257,0.427 -1.611,0.952c-0.354,0.525 -0.531,1.275 -0.531,2.252l0,15.912c0,0.281 0.058,0.577 0.174,0.888c0.116,0.311 0.265,0.577 0.448,0.796c0.196,0.245 0.403,0.419 0.623,0.522c0.22,0.104 0.519,0.174 0.897,0.211l0,2.234c-2.368,0 -4.425,-0.617 -6.171,-1.85c-1.538,-1.086 -2.697,-2.548 -3.479,-4.385c-0.781,-1.837 -1.171,-4.013 -1.171,-6.528c0,-1.843 0.253,-3.561 0.759,-5.154c0.507,-1.593 1.243,-2.976 2.207,-4.147c0.976,-1.184 2.145,-2.137 3.506,-2.857c1.361,-0.72 2.671,-1.08 3.928,-1.08l0.421,0.018Zm1.447,2.234l0,-2.216c0.598,0.098 1.083,0.202 1.455,0.312c0.373,0.11 1.047,0.342 2.024,0.696c0.622,0.219 1.037,0.329 1.245,0.329c0.354,0 0.622,-0.159 0.805,-0.476l0.239,-0.439c0.146,-0.293 0.421,-0.44 0.823,-0.44c0.33,0 0.583,0.098 0.76,0.293c0.177,0.195 0.266,0.482 0.266,0.861l0,7.617c0,0.488 -0.11,0.842 -0.33,1.062c-0.219,0.22 -0.47,0.329 -0.75,0.329c-0.293,0 -0.528,-0.094 -0.705,-0.283c-0.177,-0.19 -0.321,-0.498 -0.431,-0.925c-0.256,-0.964 -0.506,-1.721 -0.75,-2.271c-0.525,-1.159 -1.123,-2.099 -1.795,-2.819c-0.452,-0.489 -0.903,-0.864 -1.355,-1.126c-0.452,-0.263 -0.952,-0.431 -1.501,-0.504Zm0.055,23.749l0,-2.234c0.952,-0.073 1.953,-0.433 3.003,-1.08c0.561,-0.354 1.062,-0.827 1.501,-1.419c0.439,-0.593 0.769,-1.243 0.989,-1.951c0.122,-0.39 0.265,-0.668 0.43,-0.833c0.165,-0.164 0.382,-0.247 0.65,-0.247c0.293,0 0.537,0.11 0.733,0.33c0.195,0.219 0.292,0.494 0.292,0.824c0,0.549 -0.21,1.214 -0.631,1.996c-0.421,0.781 -0.962,1.501 -1.621,2.16c-0.805,0.806 -1.632,1.404 -2.481,1.795c-0.848,0.39 -1.803,0.61 -2.865,0.659Z" style="fill-rule:nonzero;"/><path d="M60.254,167.847c0.977,0 1.813,0.348 2.509,1.044c0.696,0.695 1.044,1.532 1.044,2.508c0,0.989 -0.348,1.831 -1.044,2.527c-0.696,0.696 -1.532,1.044 -2.509,1.044c-0.988,0 -1.831,-0.348 -2.526,-1.044c-0.696,-0.696 -1.044,-1.538 -1.044,-2.527c0,-0.976 0.348,-1.813 1.044,-2.508c0.695,-0.696 1.538,-1.044 2.526,-1.044Z" style="fill-rule:nonzero;"/><path d="M76.24,148.987l0,2.106c-0.757,0.207 -1.334,0.528 -1.731,0.961c-0.397,0.433 -0.595,0.968 -0.595,1.602c0,0.611 0.165,1.145 0.494,1.602c0.33,0.458 0.867,0.895 1.612,1.31c0.512,0.28 1.672,0.818 3.479,1.611c1.098,0.476 1.95,0.906 2.554,1.291c0.604,0.384 1.175,0.864 1.712,1.437c1.441,1.514 2.161,3.315 2.161,5.402c0,1.575 -0.391,3.015 -1.172,4.321c-0.781,1.306 -1.856,2.332 -3.223,3.076c-0.732,0.391 -1.535,0.699 -2.408,0.925c-0.872,0.226 -1.687,0.339 -2.444,0.339l0,-2.088c1.062,-0.256 1.828,-0.613 2.298,-1.071c0.47,-0.458 0.705,-1.077 0.705,-1.858c0,-0.818 -0.366,-1.538 -1.099,-2.161c-0.488,-0.403 -1.416,-0.903 -2.783,-1.501c-1.501,-0.66 -2.53,-1.13 -3.085,-1.41c-0.556,-0.281 -1.09,-0.611 -1.602,-0.989c-2.295,-1.636 -3.443,-3.815 -3.443,-6.537c0,-1.392 0.287,-2.676 0.861,-3.854c0.573,-1.178 1.373,-2.127 2.398,-2.848c1.429,-1.001 3.199,-1.556 5.311,-1.666Zm1.446,2.106l0,-2.014c0.732,0.049 1.367,0.143 1.904,0.283c0.537,0.141 1.3,0.419 2.289,0.834c0.244,0.097 0.446,0.146 0.604,0.146c0.232,0 0.403,-0.079 0.513,-0.238l0.403,-0.531c0.195,-0.268 0.433,-0.403 0.714,-0.403c0.33,0 0.571,0.119 0.723,0.357c0.153,0.238 0.229,0.614 0.229,1.126l0,6.043c0,0.354 -0.101,0.644 -0.302,0.87c-0.201,0.225 -0.461,0.338 -0.778,0.338c-0.244,0 -0.47,-0.079 -0.678,-0.238c-0.109,-0.097 -0.198,-0.216 -0.265,-0.357c-0.067,-0.14 -0.131,-0.375 -0.192,-0.705c-0.135,-0.598 -0.367,-1.214 -0.696,-1.849c-0.33,-0.635 -0.714,-1.202 -1.154,-1.703c-0.879,-0.989 -1.983,-1.642 -3.314,-1.959Zm-2.399,21.789l0,2.088c-1.001,0 -2.105,-0.287 -3.314,-0.861c-0.452,-0.207 -0.763,-0.342 -0.934,-0.403c-0.171,-0.061 -0.335,-0.091 -0.494,-0.091c-0.244,0 -0.427,0.039 -0.549,0.119c-0.122,0.079 -0.318,0.278 -0.586,0.595c-0.22,0.268 -0.458,0.403 -0.714,0.403c-0.684,0 -1.026,-0.525 -1.026,-1.575l0,-6.665c0,-0.342 0.098,-0.632 0.293,-0.87c0.195,-0.238 0.44,-0.363 0.733,-0.375c0.268,-0.012 0.479,0.064 0.631,0.229c0.153,0.165 0.284,0.454 0.394,0.87c0.281,1.049 0.687,2.032 1.218,2.948c0.531,0.915 1.15,1.69 1.858,2.325c0.72,0.659 1.55,1.08 2.49,1.263Z" style="fill-rule:nonzero;"/><path d="M93.36,167.847c0.976,0 1.813,0.348 2.508,1.044c0.696,0.695 1.044,1.532 1.044,2.508c0,0.989 -0.348,1.831 -1.044,2.527c-0.695,0.696 -1.532,1.044 -2.508,1.044c-0.989,0 -1.831,-0.348 -2.527,-1.044c-0.696,-0.696 -1.044,-1.538 -1.044,-2.527c0,-0.976 0.348,-1.813 1.044,-2.508c0.696,-0.696 1.538,-1.044 2.527,-1.044Z" style="fill-rule:nonzero;"/><path d="M110.444,148.987l0,2.033c-1.075,0.256 -1.612,1.11 -1.612,2.563l0,17.047c0,0.659 0.092,1.166 0.275,1.52c0.159,0.293 0.494,0.543 1.007,0.751l0,2.069c-0.391,0 -0.748,-0.031 -1.071,-0.092c-0.324,-0.061 -0.754,-0.183 -1.291,-0.366c-1.282,-0.439 -2.441,-1.111 -3.479,-2.014c-1.038,-0.903 -1.892,-1.984 -2.564,-3.241c-1.037,-1.965 -1.556,-4.291 -1.556,-6.976c0,-2.601 0.464,-4.908 1.392,-6.922c0.927,-2.014 2.258,-3.595 3.991,-4.742c1.001,-0.672 2.076,-1.154 3.223,-1.447c0.476,-0.122 1.038,-0.183 1.685,-0.183Zm1.501,1.996l0,-1.978c1.99,0.184 3.626,0.55 4.907,1.099c0.379,0.171 0.672,0.256 0.879,0.256c0.196,0 0.345,-0.045 0.449,-0.137c0.104,-0.091 0.314,-0.351 0.632,-0.778c0.219,-0.305 0.494,-0.458 0.823,-0.458c0.342,0 0.583,0.095 0.724,0.284c0.14,0.189 0.21,0.503 0.21,0.943l0,7.123c0,0.927 -0.341,1.391 -1.025,1.391c-0.342,0 -0.595,-0.091 -0.76,-0.274c-0.165,-0.183 -0.32,-0.544 -0.467,-1.081c-0.183,-0.683 -0.513,-1.48 -0.989,-2.389c-0.476,-0.91 -0.933,-1.627 -1.373,-2.152c-0.5,-0.61 -1.062,-1.059 -1.684,-1.345c-0.623,-0.287 -1.398,-0.455 -2.326,-0.504Zm8.276,20.435c-0.488,0.488 -1.138,0.985 -1.95,1.492c-0.811,0.506 -1.577,0.906 -2.298,1.199c-0.659,0.257 -1.388,0.464 -2.188,0.623c-0.799,0.158 -1.504,0.238 -2.115,0.238l0,-2.069c0.354,-0.086 0.62,-0.19 0.797,-0.312c0.177,-0.122 0.326,-0.293 0.449,-0.512c0.207,-0.379 0.311,-0.861 0.311,-1.447l0,-5.346c0,-0.477 -0.092,-0.818 -0.275,-1.026c-0.085,-0.122 -0.171,-0.198 -0.256,-0.229c-0.086,-0.03 -0.366,-0.1 -0.842,-0.21c-0.586,-0.147 -0.879,-0.489 -0.879,-1.026c0,-0.317 0.137,-0.561 0.412,-0.732c0.274,-0.171 0.68,-0.256 1.217,-0.256l7.306,0c0.549,0 0.937,0.076 1.163,0.228c0.226,0.153 0.339,0.418 0.339,0.797c0,0.232 -0.046,0.424 -0.138,0.577c-0.091,0.152 -0.259,0.314 -0.503,0.485c-0.244,0.171 -0.397,0.33 -0.458,0.476c-0.061,0.146 -0.092,0.415 -0.092,0.806l0,6.244Z" style="fill-rule:nonzero;"/><path d="M128.718,167.847c0.976,0 1.812,0.348 2.508,1.044c0.696,0.695 1.044,1.532 1.044,2.508c0,0.989 -0.348,1.831 -1.044,2.527c-0.696,0.696 -1.532,1.044 -2.508,1.044c-0.989,0 -1.832,-0.348 -2.527,-1.044c-0.696,-0.696 -1.044,-1.538 -1.044,-2.527c0,-0.976 0.348,-1.813 1.044,-2.508c0.695,-0.696 1.538,-1.044 2.527,-1.044Z" style="fill-rule:nonzero;"/><path d="M146.332,148.987l0,2.216c-0.72,0.11 -1.257,0.427 -1.611,0.952c-0.354,0.525 -0.531,1.275 -0.531,2.252l0,15.912c0,0.281 0.058,0.577 0.174,0.888c0.116,0.311 0.265,0.577 0.449,0.796c0.195,0.245 0.402,0.419 0.622,0.522c0.22,0.104 0.519,0.174 0.897,0.211l0,2.234c-2.368,0 -4.425,-0.617 -6.17,-1.85c-1.538,-1.086 -2.698,-2.548 -3.479,-4.385c-0.782,-1.837 -1.172,-4.013 -1.172,-6.528c0,-1.843 0.253,-3.561 0.76,-5.154c0.506,-1.593 1.242,-2.976 2.206,-4.147c0.977,-1.184 2.145,-2.137 3.507,-2.857c1.361,-0.72 2.67,-1.08 3.927,-1.08l0.421,0.018Zm1.447,2.234l0,-2.216c0.598,0.098 1.083,0.202 1.455,0.312c0.373,0.11 1.047,0.342 2.024,0.696c0.622,0.219 1.037,0.329 1.245,0.329c0.354,0 0.622,-0.159 0.806,-0.476l0.238,-0.439c0.146,-0.293 0.421,-0.44 0.824,-0.44c0.329,0 0.582,0.098 0.759,0.293c0.177,0.195 0.266,0.482 0.266,0.861l0,7.617c0,0.488 -0.11,0.842 -0.33,1.062c-0.219,0.22 -0.47,0.329 -0.75,0.329c-0.293,0 -0.528,-0.094 -0.705,-0.283c-0.177,-0.19 -0.321,-0.498 -0.431,-0.925c-0.256,-0.964 -0.506,-1.721 -0.75,-2.271c-0.525,-1.159 -1.123,-2.099 -1.795,-2.819c-0.451,-0.489 -0.903,-0.864 -1.355,-1.126c-0.451,-0.263 -0.952,-0.431 -1.501,-0.504Zm0.055,23.749l0,-2.234c0.952,-0.073 1.953,-0.433 3.003,-1.08c0.561,-0.354 1.062,-0.827 1.501,-1.419c0.44,-0.593 0.769,-1.243 0.989,-1.951c0.122,-0.39 0.265,-0.668 0.43,-0.833c0.165,-0.164 0.382,-0.247 0.65,-0.247c0.293,0 0.537,0.11 0.733,0.33c0.195,0.219 0.293,0.494 0.293,0.824c0,0.549 -0.211,1.214 -0.632,1.996c-0.421,0.781 -0.961,1.501 -1.621,2.16c-0.805,0.806 -1.632,1.404 -2.481,1.795c-0.848,0.39 -1.803,0.61 -2.865,0.659Z" style="fill-rule:nonzero;"/></g><path d="M28.546,23.201c-2.825,2.436 -3.583,3.83 -3.068,5.657c0.232,0.889 0.294,1.506 0.091,1.413c-0.649,-0.296 -1.168,2.457 -0.682,3.756c0.225,0.69 0.172,1.719 -0.175,2.32c-0.798,1.376 0.258,4.111 2.82,7.36c3.943,5.055 4.522,5.882 4.506,6.83c-0.011,0.509 0.557,1.307 1.231,1.761c1.391,0.928 2.199,4.799 1.507,7.447c-0.219,0.856 0.005,2.624 0.491,3.923c0.497,1.329 1.195,4.366 1.573,6.816c0.605,4.048 0.779,4.421 1.959,4.788c2.088,0.632 0.519,0.849 -3.325,0.469c-5.025,-0.477 -8.9,0.502 -11.762,3.019c-3.035,2.684 -2.389,2.88 1.192,0.396c4.271,-2.978 14.068,-3.781 15.029,-1.212c0.188,0.502 0.365,0.436 0.698,-0.295c0.61,-1.338 1.322,-1.504 1.72,-0.441c0.176,0.473 0.006,1.007 -0.396,1.192c-0.414,0.154 0.202,0.361 1.342,0.44c1.14,0.078 1.697,0.307 1.266,0.503c-0.462,0.206 -0.602,0.46 -0.348,0.601c0.284,0.129 0.735,-0.107 1.06,-0.497c0.38,-0.513 0.159,-0.834 -0.889,-1.115c-1.361,-0.4 -1.383,-0.459 -0.618,-1.385c0.439,-0.534 0.713,-1.242 0.591,-1.567c-0.121,-0.325 -0.479,-0.292 -0.804,0.099c-0.469,0.545 -0.502,0.457 -0.144,-0.384c0.67,-1.631 -0.005,-2.893 -1.068,-1.957c-0.687,0.594 -0.798,0.568 -0.446,-0.203c0.332,-0.73 0.716,-0.874 1.483,-0.622c0.808,0.27 0.868,-0.022 0.304,-1.528c-0.913,-2.351 0.156,-4.804 1.96,-4.57c0.671,0.086 1.373,-0.109 1.55,-0.445c0.148,-0.324 0.317,-0.051 0.302,0.628c0.01,0.837 0.206,1 0.557,0.498c0.753,-0.955 6.525,-2.71 7.045,-2.13c0.199,0.262 0.587,0.218 0.786,-0.058c0.591,-0.76 0.567,1.605 -0.032,3.243c-0.263,0.738 -0.842,1.258 -1.245,1.172c-0.402,-0.085 -0.476,0.077 -0.147,0.325c0.328,0.247 0.264,1.247 -0.139,2.239c-0.421,1.033 -0.43,1.911 -0.024,2.096c1.014,0.462 3.16,-1.181 2.795,-2.156c-0.177,-0.472 0.045,-0.959 0.488,-1.125c0.414,-0.154 0.868,-1.099 1.013,-2.062c0.134,-0.992 0.647,-1.958 1.138,-2.176c0.609,-0.261 0.624,-0.401 0.085,-0.402c-0.479,-0.022 -0.937,-0.255 -1.047,-0.55c-0.11,-0.296 0.24,-0.528 0.779,-0.527c0.819,0.03 0.742,-0.446 -0.352,-2.561c-1.072,-2.056 -1.164,-2.662 -0.455,-2.927c1.093,-0.408 2.445,1.408 1.909,2.585c-0.222,0.487 -0.2,0.815 0.036,0.727c0.237,-0.089 0.347,0.476 0.235,1.258c-0.148,1.133 -0.001,1.347 0.708,1.082c0.472,-0.177 0.953,-0.962 1.064,-1.744c0.111,-0.783 0.444,-1.513 0.769,-1.634c0.384,-0.144 0.531,0.34 0.405,1.262c-0.119,0.852 -0.005,1.247 0.224,0.959c0.247,-0.328 0.485,-1.494 0.522,-2.652c0.049,-1.129 0.46,-2.191 0.932,-2.368c0.443,-0.166 0.632,-0.472 0.396,-0.653c-0.247,-0.21 -0.375,-1.542 -0.249,-3.003c0.157,-2.281 0.309,-2.506 0.961,-1.571c0.431,0.612 0.601,1.155 0.383,1.203c-1.148,0.261 -1.41,0.729 -0.506,0.896c1.246,0.274 1.369,3.931 0.18,4.981c-0.377,0.343 -0.529,1.107 -0.319,1.668c0.221,0.59 0.505,0.72 0.62,0.306c0.114,-0.413 0.576,-0.888 1.019,-1.054c0.709,-0.265 0.285,-10.036 -0.557,-12.918c-0.118,-0.495 -0.069,-1.893 0.168,-3.059l0.401,-2.169l0.558,2.484c0.298,1.336 0.594,4.557 0.677,7.118c0.172,6.398 0.764,8.431 2.31,7.887c0.65,-0.243 1.27,-0.745 1.366,-1.117c0.108,-0.343 0.558,-0.579 1.001,-0.475c1.125,0.218 1.456,1.374 0.342,1.184c-0.491,-0.052 -0.262,0.199 0.52,0.58c2.05,0.983 3.041,-1.137 3.556,-7.59c0.209,-2.771 0.824,-6.165 1.342,-7.57c0.518,-1.406 1.125,-4.191 1.352,-6.194c0.227,-2.004 0.597,-3.893 0.856,-4.191c0.247,-0.328 0.326,-1.738 0.206,-3.14c-0.498,-5.199 -5.672,-7.875 -10.216,-5.267c-1.075,0.638 -1.58,0.726 -1.218,0.254c0.787,-1.136 -4.939,-2.495 -7.065,-1.7c-0.886,0.332 -2.037,0.493 -2.502,0.33c-0.505,-0.181 -2.398,0.426 -4.211,1.34c-2.381,1.193 -3.152,1.381 -2.668,0.695c0.465,-0.646 0.429,-0.834 -0.114,-0.665c-1.299,0.486 -0.839,2.166 0.784,2.905c0.892,0.407 2.168,1.747 2.871,2.998c0.715,1.281 1.832,2.378 2.544,2.482c1.085,0.2 1.029,0.322 -0.359,0.841c-1.435,0.571 -1.524,0.873 -0.895,2.556c0.398,1.063 1.144,4.318 1.71,7.271c0.554,2.922 1.002,5.38 1.014,5.41c0.243,0.649 -1.701,4.002 -2.591,4.503c-7.56,4.174 -18.324,5.271 -21.838,2.176c-1.544,-1.341 -1.961,-6.233 -0.544,-6.225c0.55,0.03 1.421,-0.43 1.89,-0.976c0.661,-0.752 1.514,-0.903 3.351,-0.58c2.7,0.471 4,-0.823 2.492,-2.514c-1.518,-1.721 3.729,-10.819 7.605,-13.144c1.591,-0.965 2.013,-1.729 0.935,-1.73c-0.538,0 -0.796,-0.779 -0.942,-2.879c-0.098,-1.612 -0.477,-2.985 -0.798,-3.033c-0.764,-0.152 -0.821,1.855 -0.102,2.428c0.288,0.229 0.258,0.509 -0.067,0.63c-0.354,0.133 -0.936,-0.794 -1.3,-2.037c-0.508,-1.628 -0.936,-2.141 -1.596,-1.928c-0.532,0.199 -1.465,-0.496 -2.309,-1.762c-0.969,-1.421 -2.105,-2.208 -3.429,-2.42c-1.114,-0.189 -2.139,-0.68 -2.305,-1.123c-0.21,-0.561 -0.749,-0.562 -1.675,0.02c-0.879,0.531 -1.477,0.553 -1.653,0.08c-0.663,-1.771 -5.294,-0.746 -8.381,1.89Zm4.503,1.782c-0.328,0.291 -0.465,0.914 -0.289,1.387c0.177,0.472 0,0.808 -0.402,0.723c-0.403,-0.085 -0.635,0.103 -0.514,0.427c0.343,0.916 1.76,0.655 3.329,-0.639c0.794,-0.667 1.676,-1.098 1.931,-0.957c0.272,0.099 0.191,0.332 -0.193,0.475c-0.384,0.144 -0.579,0.52 -0.458,0.845c0.32,0.856 1.9,0.131 1.894,-0.877c0.022,-0.479 0.557,-0.04 1.191,0.935c0.633,0.975 1.223,1.562 1.345,1.348c0.111,-0.244 1.104,-0.11 2.206,0.319c1.103,0.429 1.472,0.426 0.819,0.03c-1.449,-0.905 -1.282,-1.809 0.134,-0.992c2.047,1.153 1.234,2.938 -0.913,2.058c-1.601,-0.68 -1.83,-0.662 -1.509,0.194c0.199,0.532 0.63,0.875 0.955,0.754c0.325,-0.122 0.712,0.104 0.855,0.487c0.199,0.532 0.022,0.598 -0.627,0.302c-1.014,-0.462 -2.447,0.478 -2.116,1.364c0.111,0.295 1.129,0.049 2.296,-0.522c2.381,-1.194 3.901,-1.358 3.716,-0.414c-0.178,0.874 0.992,0.403 2.104,-0.854c0.727,-0.844 0.897,-0.841 0.896,-0.032c-0.03,0.549 -0.34,1.069 -0.757,1.124c-0.406,0.085 -0.528,0.568 -0.259,1.107c0.228,0.52 0.124,1.232 -0.223,1.564c-0.436,0.365 -0.69,0.225 -0.682,-0.384c0.023,-1.018 -2.046,-2.23 -3.109,-1.833c-0.797,0.298 -0.231,1.904 0.707,1.89c0.398,-0.015 1.051,0.65 1.471,1.503c0.449,0.841 0.511,1.458 0.15,1.391c-0.332,-0.078 -0.767,-0.521 -0.944,-0.993c-0.177,-0.473 -0.759,-0.861 -1.339,-0.88c-0.538,0 -1.14,-0.347 -1.283,-0.731c-0.53,-1.418 -5.211,1.006 -5.043,2.626c0.11,1.103 -0.13,1.362 -1.377,1.357c-0.978,-0.005 -1.479,-0.356 -1.493,-1.024c0.015,-0.678 -0.313,-0.926 -0.963,-0.683c-0.531,0.199 -0.727,0.575 -0.399,0.822c0.328,0.248 0.162,0.613 -0.34,0.801c-0.502,0.188 -1.07,-0.071 -1.258,-0.573c-0.199,-0.532 -0.723,-0.672 -1.309,-0.352c-0.635,0.372 -1.03,0.217 -1.155,-0.477c-0.121,-0.594 -0.785,-1.019 -1.512,-0.983c-1.524,0.066 -2.744,-1.127 -2.039,-2.031c0.296,-0.379 0.447,-0.335 0.343,0.108c-0.151,0.763 1.793,1.012 2.838,0.386c1.21,-0.722 2.111,-0.655 2.11,0.153c0.018,0.498 0.626,1.045 1.39,1.197c1.627,0.3 1.491,-0.962 -0.172,-1.72c-0.771,-0.351 -0.737,-0.532 0.03,-0.819c0.561,-0.21 1.115,-0.08 1.236,0.244c0.133,0.355 0.461,0.333 0.757,-0.047c0.343,-0.431 0.476,-0.346 0.346,0.207c-0.092,0.472 0.28,1.107 0.84,1.436c0.561,0.329 0.914,1.005 0.833,1.506c-0.126,0.653 0.069,0.546 0.557,-0.309c0.695,-1.202 0.673,-1.262 -0.607,-1.624c-0.786,-0.211 -1.026,-0.492 -0.612,-0.646c0.413,-0.155 0.532,-0.469 0.255,-0.668c-0.288,-0.229 0.159,-0.564 0.96,-0.763c1.354,-0.338 1.388,-0.519 0.4,-1.631c-1.393,-1.565 -1.449,-1.713 -0.71,-1.989c0.354,-0.132 1.128,0.318 1.733,1.035c1.518,1.72 1.67,1.495 0.735,-0.915c-0.505,-1.258 -0.951,-1.731 -1.172,-1.244c-0.222,0.487 -1.041,0.456 -2.196,-0.021c-1.59,-0.65 -1.778,-0.614 -1.457,0.243c0.309,0.827 0.124,0.963 -0.997,0.844c-1.705,-0.238 -2.089,-0.094 -1.813,0.644c0.122,0.325 0.635,0.436 1.107,0.259c0.502,-0.188 1.085,0.2 1.328,0.85c0.32,0.856 0.058,1.325 -1.035,1.733c-1.122,0.42 -1.598,0.228 -2.003,-0.765c-0.431,-1.152 -0.571,-1.167 -0.893,-0.137c-0.322,1.029 -0.528,1.106 -1.756,0.522c-1.136,-0.518 -1.276,-0.802 -0.807,-1.617c0.366,-0.642 0.72,-0.774 1.14,-0.46c0.369,0.266 1.059,0.311 1.561,0.123c0.827,-0.309 0.772,-0.457 -0.519,-1.118c-1.383,-0.728 -1.394,-0.758 -0.092,-0.875c1.421,-0.161 1.47,-1.29 0.053,-1.568c-1.125,-0.219 1.091,-2.663 2.408,-2.651c0.679,0.015 0.805,0.171 0.387,0.495Zm-2.534,16.531c0.15,1.122 1.202,0.426 1.48,-0.991c0.186,-0.944 0.282,-1.048 0.477,-0.346c0.459,1.679 1.373,3.222 1.381,2.344c0.023,-0.48 0.411,-0.793 0.883,-0.7c0.461,0.063 0.273,-0.17 -0.38,-0.565c-0.652,-0.396 -1.062,-0.949 -0.914,-1.274c0.148,-0.325 0.69,-0.224 1.236,0.245c0.535,0.439 1.147,0.547 1.406,0.248c0.838,-1.088 3.742,-1.063 3.723,0.055c-0.001,0.539 0.158,0.782 0.387,0.495c0.41,-0.524 2.16,1.547 1.865,2.197c-0.082,0.232 -0.277,0.069 -0.432,-0.344c-0.143,-0.384 -0.494,-0.421 -0.789,-0.041c-0.296,0.38 -0.495,0.387 -0.458,0.036c0.037,-0.35 -0.796,-1.048 -1.862,-1.558c-1.604,-0.78 -1.803,-0.773 -1.055,0.058c0.77,0.89 0.722,0.941 -0.429,0.564c-0.778,-0.281 -1.213,-0.186 -1.081,0.169c0.133,0.354 0.564,0.698 0.966,0.783c0.432,0.074 0.705,0.443 0.638,0.805c-0.163,0.734 -2.015,0.821 -3.546,0.148c-0.579,-0.288 -1.236,-0.245 -1.495,0.054c-0.229,0.288 -0.553,0.14 -0.741,-0.362c-0.232,-0.62 -0.623,-0.676 -1.232,-0.145c-0.484,0.416 -0.801,0.468 -0.653,0.143c0.137,-0.354 -0.177,-1.011 -0.693,-1.491c-0.781,-0.65 -0.73,-0.872 0.112,-1.052c0.605,-0.091 1.151,0.108 1.206,0.525Zm12.459,-2.236c0.53,1.417 -0.508,1.974 -1.713,0.91c-0.804,-0.709 -0.903,-0.975 -0.35,-0.845c0.432,0.074 0.683,-0.155 0.55,-0.509c-0.132,-0.354 0.078,-0.601 0.48,-0.516c0.402,0.085 0.867,0.517 1.033,0.96Zm23.585,-9.562c2.2,-0.419 5.888,1.164 5.868,2.551c0,0.539 0.298,1.067 0.619,1.115c0.362,0.067 0.65,-0.243 0.672,-0.723c0.012,-0.509 0.174,-0.435 0.436,0.174c0.629,1.414 1.656,0.828 1.749,-0.991c0.083,-1.31 0.156,-1.203 0.52,0.58c0.261,1.147 0.873,2.332 1.363,2.654c1.243,0.713 2.476,-0.489 1.629,-1.585c-0.564,-0.698 -0.516,-0.75 0.251,-0.229c0.726,0.503 0.867,0.248 0.643,-1.25c-0.418,-3.008 -0.34,-3.34 0.33,-1.638c0.983,2.358 -0.559,6.065 -2.352,5.592c-0.745,-0.193 -2.254,-0.537 -3.349,-0.767c-1.096,-0.23 -2.077,-0.603 -2.177,-0.869c-0.099,-0.266 -0.918,-0.835 -1.832,-1.3c-0.904,-0.437 -1.778,-1.153 -1.943,-1.596c-0.155,-0.413 -0.671,-0.624 -1.173,-0.437c-0.473,0.177 -0.986,0.066 -1.107,-0.259c-0.122,-0.325 -0.871,-0.347 -1.697,-0.038c-0.798,0.298 -1.576,0.286 -1.687,-0.009c-0.121,-0.325 0.149,-0.594 0.617,-0.601c0.469,-0.007 1.65,-0.179 2.62,-0.374Zm-1.442,3.973c-0.237,0.627 -0.259,1.106 -0.082,1.04c0.177,-0.066 0.386,0.764 0.485,1.838c0.146,1.83 0.209,1.908 1.128,0.857c0.824,-0.948 0.983,-0.973 0.986,-0.066c-0.008,0.609 0.154,0.953 0.368,0.805c0.358,-0.302 0.841,0.089 1.15,0.916c0.059,0.247 -0.122,1.291 -0.426,2.28c-0.533,1.815 -0.562,1.826 -0.96,0.494c-0.235,-0.72 -0.131,-1.701 0.261,-2.184c0.506,-0.627 0.196,-0.646 -1.03,-0.053c-1.236,0.564 -1.558,1.054 -1.186,1.689c0.288,0.498 0.313,1.196 0.065,1.524c-0.277,0.339 -0.598,0.291 -0.73,-0.064c-0.133,-0.354 -0.472,-0.362 -0.72,-0.033c-0.277,0.339 -0.225,0.926 0.117,1.302c0.343,0.377 0.376,1.004 0.099,1.343c-0.285,0.41 -0.447,0.336 -0.336,-0.177c0.093,-0.472 -0.106,-0.734 -0.431,-0.613c-1.004,0.376 -0.931,1.829 0.094,2.052c0.583,0.118 0.749,0.292 0.424,0.413c-0.945,0.354 -2.999,-0.46 -3.035,-1.187c-0.015,-0.398 -0.386,-2.38 -0.808,-4.41c-0.754,-3.454 -0.757,-3.554 0.204,-1.254c1.391,3.451 3.669,1.623 3.703,-2.967c0.017,-2.564 -0.337,-2.971 -1.64,-2.046c-1.108,0.819 -1.1,0.749 -0.04,-0.557c1.573,-2.002 2.891,-2.528 2.34,-0.942Zm-29.107,14.959c0.978,0.274 1.206,0.525 0.645,0.735c-0.649,0.242 -0.624,0.401 0.147,0.752c1.664,0.758 1.416,1.356 -0.54,1.347c-2.295,-0.017 -3.216,-0.682 -2.706,-2.017c0.492,-1.295 0.639,-1.35 2.454,-0.817Zm40.692,-9.902c0.304,2.074 -0.879,5.479 -1.446,4.143c-0.335,-0.717 -0.388,-0.226 -0.483,4.017c-0.043,1.867 -0.139,1.97 -0.99,1.044c-0.903,-0.975 -0.903,-0.975 -0.51,0.257c0.254,0.68 0.294,1.506 0.146,1.831c-0.136,0.354 -0.24,0.796 -0.181,1.044c0.897,3.568 0.699,6.638 -0.367,6.128c-2.018,-0.895 -0.065,-15.021 2.083,-15.218c0.546,-0.07 0.524,-0.398 -0.083,-2.022c-0.317,-0.757 -0.457,-0.772 -0.613,-0.108c-0.278,1.417 -2.356,2.43 -3.547,1.764c-0.561,-0.328 -0.918,-0.834 -0.789,-1.118c0.13,-0.284 0.351,-0.232 0.484,0.122c0.121,0.325 0.823,-0.678 1.544,-2.261c1.608,-3.529 4.209,-3.324 4.752,0.377Zm1.552,1.81c0.102,0.904 0.453,1.21 1.143,0.986c0.76,-0.217 0.764,-0.118 -0.045,0.42c-0.554,0.409 -1.245,1.442 -1.533,2.29c-0.414,1.232 -0.695,1.472 -1.311,0.995c-0.483,-0.391 -0.468,-0.531 0.004,-0.439c0.443,0.104 0.861,-1.028 0.984,-2.589c0.22,-3.011 0.564,-3.711 0.758,-1.663Z" style="fill-rule:nonzero;"/><path d="M13.03,36.88c-4.14,4.14 -5.301,15.614 -3.26,32.319c0.736,6.019 1.465,12.646 1.629,14.705c0.164,2.059 0.528,3.842 0.771,3.953c0.782,0.38 -0.094,-10.87 -1.959,-25.487c-0.338,-2.432 -0.405,-5.133 -0.176,-5.959c0.219,-0.856 0.26,-1.915 0.094,-2.358c-0.43,-1.151 1.167,-8.851 2.29,-11.156c0.492,-1.025 0.788,-2.213 0.634,-2.626c-0.74,-1.979 4.978,-4.959 8.205,-4.248c0.996,0.234 1.723,0.198 1.613,-0.098c-1.02,-2.547 -6.924,-1.954 -9.841,0.955Z" style="fill-rule:nonzero;"/><path d="M54.041,32.513c0.342,1.185 0.659,1.403 1.191,0.935c0.532,-0.468 1.074,-0.099 1.995,1.374c0.66,1.133 1.216,1.632 1.18,1.174c-0.018,-1.036 -3.759,-5.46 -4.379,-5.228c-0.236,0.088 -0.219,0.856 0.013,1.745Z" style="fill-rule:nonzero;"/><path d="M126.633,10.279c-0.067,0.362 -0.861,0.759 -1.743,0.921c-0.922,0.143 -1.476,0.552 -1.332,0.936c0.132,0.354 -0.437,0.904 -1.234,1.202c-1.89,0.707 -3.112,2.207 -5.056,6.098c-1.098,2.195 -1.892,3.131 -2.818,3.175c-0.827,0.04 -1.03,0.216 -0.599,0.56c1.18,0.905 2.912,-0.315 4.405,-3.162c2.716,-5.156 7.663,-8.487 11.928,-8.063c2.214,0.249 3.871,-0.539 3.474,-1.602c-0.122,-0.325 -0.671,-0.355 -1.21,-0.086c-2.381,1.194 -3.536,1.255 -2.469,0.149c0.827,-0.848 0.746,-0.885 -0.535,-0.17c-0.841,0.45 -1.476,0.552 -1.428,0.231c0.059,-0.291 -0.202,-0.631 -0.564,-0.698c-0.391,-0.055 -0.753,0.147 -0.819,0.509Z" style="fill-rule:nonzero;"/><path d="M19.851,50.35c-4.781,3.774 -7.679,14.114 -4.611,16.467c0.328,0.247 0.339,0.546 0.044,0.656c-1.122,0.42 -0.716,4.206 0.962,9.233c1.803,5.451 2.002,10.661 0.455,12.014c-0.407,0.354 -0.784,1.774 -0.833,3.173c-0.049,1.398 -0.409,3.047 -0.804,3.7c-0.698,1.102 -0.647,1.15 0.726,1.041c2.059,-0.164 1.563,1.031 -0.769,1.903c-2.422,0.906 -3.653,0.222 -5.311,-2.86c-0.696,-1.322 -1.975,-2.762 -2.809,-3.191c-0.833,-0.428 -2.117,-1.16 -2.832,-1.633c-1.512,-0.983 -1.329,0.228 0.216,1.568c0.723,0.673 0.796,1.049 0.235,1.528c-1.285,1.154 -0.047,2.845 2.838,3.987c1.508,0.614 2.917,1.501 3.094,1.973c0.519,1.388 4.722,0.658 6.989,-1.2c1.134,-0.929 2.359,-1.522 2.912,-1.392c2.07,0.404 1.897,-0.238 -0.4,-1.702c-2.593,-1.622 -2.71,-2.116 -1.662,-7.052c0.108,-0.613 0.138,-1.97 0.04,-3.044c-0.162,-1.421 0.583,-0.151 2.674,4.721c1.764,4.086 2.416,5.29 1.658,3.083c-1.914,-5.747 -0.984,-5.96 1.059,-0.228c1.001,2.857 2.272,5.714 2.814,6.352c0.729,0.872 0.762,1.23 0.113,1.473c-0.857,0.32 -1.476,-0.526 -2.075,-2.758c-0.302,-1.167 -1.948,-0.888 -2.222,0.359c-0.074,0.432 0.623,1.484 1.533,2.389c1.261,1.211 1.692,2.093 1.687,3.341c-0.005,1.247 0.294,1.775 1.113,2.074c1.191,0.396 2.193,2.175 1.138,1.964c-0.361,-0.067 -0.251,0.498 0.195,1.24c0.858,1.395 2.057,1.991 2.415,1.15c0.141,-0.255 -0.276,-0.739 -0.877,-1.086c-0.601,-0.347 -1.036,-0.79 -0.914,-1.004c0.248,-0.598 5.294,1.015 5.57,1.753c0.144,0.384 0.682,0.654 1.18,0.636c0.568,-0.011 0.65,-0.243 0.27,-0.538c-1.18,-0.905 0.473,-0.985 1.782,-0.095c0.686,0.484 1.398,0.588 1.575,0.252c0.178,-0.335 0.252,-0.228 0.17,0.274c-0.178,1.143 4.252,2.819 6.473,2.459c1.488,-0.253 1.819,0.094 4.262,4.464c5.11,9.163 11.228,12.293 15.206,7.81c0.44,-0.535 1.673,-1.467 2.699,-2.053c1.045,-0.626 2.85,-1.739 4.028,-2.55c3.068,-2.056 12.555,-12.235 12.224,-13.121c-0.125,-0.425 0.049,-0.86 0.403,-0.992c0.354,-0.133 1.1,-1.018 1.684,-1.977c0.584,-0.958 1.367,-1.655 1.728,-1.588c0.332,0.077 0.658,-0.583 0.666,-1.461l0.023,-1.557l0.556,1.307c0.276,0.738 0.261,1.417 -0.064,1.538c-0.325,0.122 -0.292,1.018 0.072,1.993c0.365,0.974 0.899,1.683 1.194,1.573c0.266,-0.1 0.856,0.218 1.243,0.713c0.417,0.484 1.15,1.185 1.693,1.555c0.501,0.351 1.924,1.636 3.126,2.869c2.536,2.552 3.893,3.66 5.959,4.773c0.804,0.439 1.629,1.208 1.828,1.739c0.188,0.502 0.689,1.122 1.124,1.296c0.406,0.185 1.708,1.415 2.85,2.67c1.154,1.285 2.898,2.888 3.879,3.531c12.346,8.172 17.926,11.033 17.087,8.789c-0.122,-0.325 -1.043,-0.99 -2.069,-1.482c-7.841,-3.866 -15.809,-9.603 -21.306,-15.389c-0.424,-0.414 -1.659,-1.467 -2.787,-2.324c-1.14,-0.886 -3.422,-2.759 -5.1,-4.184c-1.688,-1.456 -3.83,-3.313 -4.819,-4.156c-1.677,-1.425 -1.85,-1.798 -2.374,-5.809c-0.763,-5.639 -0.057,-6.812 5.317,-8.822c7.204,-2.694 10.941,-1.163 17.852,7.325c3.332,4.139 7.034,6.928 11.98,9.084l2.847,1.223l-2.013,-1.872c-2.496,-2.264 -2.683,-2.766 -1.959,-4.787c0.307,-0.889 0.87,-2.446 1.243,-3.427c2.031,-5.64 3.075,-9.598 3.687,-13.9c0.393,-2.638 0.975,-5.312 1.322,-5.913c1.006,-1.723 12.015,-13.413 12.461,-13.21c0.76,0.322 2.633,10.19 2.432,12.621c-0.239,2.513 0.248,3.273 1.418,2.263c1.662,-1.497 -0.92,-14.97 -3.096,-16.108c-0.753,-0.392 -1.766,-1.662 -2.267,-2.821c-0.471,-1.17 -1.101,-2.045 -1.367,-1.946c-0.266,0.099 -0.657,-0.226 -0.834,-0.698c-0.187,-0.502 -0.036,-0.996 0.289,-1.118c0.355,-0.132 0.333,-0.461 -0.007,-0.738c-0.328,-0.247 -1.212,-2.071 -1.9,-4.001c-1.366,-3.831 -2.358,-3.965 -1.715,-0.267c0.183,1.21 0.112,2.28 -0.183,2.391c-0.325,0.121 -0.314,0.42 0.014,0.667c0.328,0.248 0.095,0.436 -0.543,0.439c-0.819,-0.03 -0.944,-0.185 -0.516,-0.749c0.61,-0.801 0.805,-0.638 -4.922,-4.251c-7.228,-4.567 -17.329,-14.387 -17.814,-17.302c-0.33,-1.963 -0.378,-1.912 -1.792,2.858l-1.254,4.205l2.809,2.113c1.549,1.171 3.82,3.553 5.08,5.303c1.261,1.75 2.713,3.563 3.248,4.002c1.235,1.053 1.525,1.92 0.357,1.045c-0.657,-0.495 -0.815,-0.47 -0.635,0.103c0.165,0.442 0.036,0.726 -0.296,0.649c-0.321,-0.049 -0.95,1.6 -1.342,3.699c-0.493,2.642 -1.251,4.305 -2.429,5.385c-0.986,0.874 -2.128,2.95 -2.602,4.743c-1.022,3.748 -3.405,7.904 -5.905,10.219l-1.765,1.67l-1.733,-1.843c-2.407,-2.566 -6.087,-4.757 -6.678,-3.998c-0.325,0.391 -0.429,0.295 -0.347,-0.206c0.237,-1.166 -5.402,-3.735 -6.126,-2.792c-0.325,0.391 -0.465,0.376 -0.373,-0.096c0.074,-0.431 -0.187,-0.771 -0.615,-0.746c-0.439,-0.004 0.244,-1.235 1.496,-2.747c7.532,-9.111 7.872,-9.911 5.151,-12.596c-1.128,-1.127 -2.879,-3.198 -3.867,-4.579c-1.017,-1.37 -2.053,-2.429 -2.318,-2.33c-0.266,0.099 -0.498,-0.251 -0.498,-0.79c0.001,-0.539 -0.655,-1.572 -1.47,-2.311c-0.844,-0.728 -2.249,-2.323 -3.181,-3.556c-0.933,-1.233 -2.183,-2.415 -2.769,-2.633c-0.605,-0.178 -0.922,-0.127 -0.723,0.136c0.199,0.262 0.364,1.513 0.41,2.808c0.054,2.033 -0.272,3.501 -1.877,7.939c-0.2,0.546 -0.137,0.892 0.11,0.834c0.266,-0.1 0.132,0.354 -0.292,1.018c-0.396,0.652 -0.588,1.398 -0.419,1.671c0.988,1.381 0.384,4.535 -1.304,6.681c-0.887,1.139 -0.876,1.169 0.232,0.351c0.904,-0.642 1.218,-0.523 1.649,0.628c0.53,1.418 -1.135,2.276 -2.418,1.275c-0.288,-0.229 -1.203,-0.156 -2,0.142c-0.827,0.309 -1.417,0.261 -1.351,-0.101c0.16,-0.834 -6.058,-0.09 -7.122,0.846c-0.435,0.365 -0.506,0.897 -0.178,1.144c0.329,0.248 0.369,0.535 0.074,0.646c-1.536,0.574 0.86,3.38 2.676,3.105c1.251,-0.165 1.513,-0.094 0.767,0.252c-2.03,0.961 -3.154,3.266 -1.235,2.548c0.857,-0.32 1.606,-0.836 1.654,-1.157c0.178,-0.874 3.818,-2.303 5.075,-1.999c0.956,0.215 1.004,0.433 0.276,1.546c-0.621,1.04 -0.614,1.239 0.095,0.974c1.358,-0.508 2.135,-3.02 1.495,-4.732c-0.63,-1.683 -1.353,-1.817 -4.136,-0.709c-1.063,0.398 -1.985,0.541 -2.085,0.275c-0.265,-0.708 1.367,-1.925 2.031,-1.5c0.317,0.218 0.918,0.296 1.343,0.171c0.424,-0.125 1.332,-0.397 2.004,-0.581c0.701,-0.195 1.184,-0.073 1.117,0.289c-0.055,0.391 0.343,0.915 0.922,1.203c0.579,0.289 1.195,0.765 1.364,1.038c0.151,0.314 0.652,0.934 1.047,1.359c0.582,0.657 0.383,0.934 -1.012,1.254c-0.96,0.224 -1.203,0.382 -0.547,0.339c2.27,-0.142 1.291,1.469 -1.507,2.448c-1.506,0.564 -2.532,1.149 -2.267,1.319c0.247,0.211 0.022,0.868 -0.495,1.465c-0.547,0.608 -0.88,1.338 -0.758,1.663c0.353,0.945 2.446,-0.208 2.455,-1.355c0,-0.809 0.495,-1.196 1.794,-1.412c1.022,-0.147 2.001,-0.681 2.241,-1.208c0.296,-0.65 0.502,-0.727 0.668,-0.284c0.132,0.354 -0.086,0.941 -0.521,1.306c-1.112,0.988 -0.452,2.121 0.722,1.211c0.572,-0.45 1.517,-0.534 2.206,-0.22c2.11,0.961 2.575,0.316 1.19,-1.589c-1.626,-2.186 -1.637,-2.215 -0.323,-1.764c0.929,0.325 1.014,0.193 0.58,-0.789c-0.704,-1.521 -1.394,-1.296 -1.794,0.603c-0.389,1.93 -0.943,2.07 -1.484,0.353c-0.294,-0.967 -0.065,-1.524 0.773,-1.803c1.34,-0.468 0.398,-3.616 -1.17,-3.938c-0.432,-0.074 -0.867,-0.248 -0.941,-0.355c-0.331,-0.617 0.67,-6.309 1.076,-6.124c0.284,0.129 0.313,0.657 0.072,1.184c-0.24,0.528 -0.344,1.24 -0.211,1.594c0.132,0.354 0.458,-0.306 0.706,-1.442c0.64,-2.697 2.089,-4.854 2.889,-4.245c0.339,0.277 0.328,0.517 -0.012,0.51c-0.874,0.091 -2.991,7.21 -2.283,7.753c1.088,0.839 2.794,-0.809 4.432,-4.35c1.101,-2.364 1.807,-3.267 2.039,-2.647c0.187,0.502 -0.035,1.258 -0.489,1.664c-0.454,0.405 -0.598,0.829 -0.344,0.97c0.284,0.129 1.203,-0.652 2.083,-1.722c1.44,-1.817 1.558,-1.862 1.686,-0.799c0.074,0.646 -0.928,2.198 -2.168,3.47c-4.314,4.306 -5.274,5.877 -4.63,7.689c0.32,0.857 2.332,-0.333 3.038,-1.775c0.24,-0.528 0.011,-0.51 -0.657,0.043c-0.572,0.45 0.108,-0.612 1.471,-2.367c1.403,-1.737 3.013,-3.282 3.619,-3.373c0.723,-0.136 0.871,-0.461 0.414,-0.963c-0.354,-0.406 -0.416,-1.022 -0.139,-1.362c0.247,-0.328 0.631,-0.202 0.829,0.33c0.221,0.59 0.594,0.686 0.948,0.285c0.326,-0.391 -0.022,0.479 -0.787,1.943c-1.475,2.807 -1.929,3.212 -2.618,2.36c-0.512,-0.65 -2.288,0.721 -1.99,1.518c0.11,0.295 0.523,0.41 0.937,0.255c0.413,-0.154 0.08,0.576 -0.721,1.583c-0.82,1.047 -1.81,2.629 -2.217,3.521c-0.425,0.934 -1.053,1.774 -1.407,1.907c-0.355,0.132 -0.337,0.63 0.069,1.085c0.394,0.424 0.582,1.196 0.43,1.69c-0.181,0.505 -0.212,1.594 -0.05,2.476c0.602,3.41 0.634,5.114 0.102,5.313c-0.324,0.122 -0.365,0.372 -0.089,0.572c0.247,0.21 -0.358,0.571 -1.358,0.777c-1.93,0.419 -2.992,-0.799 -1.707,-1.953c0.436,-0.365 0.676,-0.892 0.566,-1.188c-0.111,-0.295 -0.583,-0.388 -1.085,-0.2c-0.472,0.177 -0.864,0.39 -0.831,0.479c0.034,0.089 0.151,1.122 0.224,2.306c0.116,1.303 0.337,1.893 0.585,1.565c0.258,-0.298 0.539,-0.269 0.66,0.056c0.31,0.827 -1.035,2.272 -3.372,3.584c-1.055,0.597 -2.189,1.795 -2.467,2.673c-0.551,1.586 -1.426,2.485 -1.155,1.139c0.233,-1.266 -1.991,-2.622 -3.438,-2.08c-2.037,0.762 -3.498,0.635 -3.862,-0.34c-0.177,-0.472 -0.029,-0.797 0.362,-0.741c1.025,0.222 1.126,-1.397 0.072,-1.878c-0.65,-0.296 -0.816,-0.2 -0.606,0.361c0.166,0.443 -0.152,0.764 -0.69,0.763c-0.679,-0.015 -0.75,0.247 -0.271,0.808c0.572,0.628 0.479,0.831 -0.41,0.793c-3.125,-0.076 -3.52,0.038 -2.015,0.552c1.011,0.362 1.346,0.809 1.227,1.661c-0.152,1.033 -0.34,1.07 -1.601,0.128c-1.527,-1.112 -1.562,-2.916 -0.041,-3.62c2.207,-1.027 2.429,-1.245 1.905,-1.655c-0.719,-0.572 -0.453,-0.672 1.742,-0.651c1.177,-0.003 1.639,-0.209 1.484,-0.623c-0.132,-0.354 -0.819,-0.568 -1.534,-0.503c-0.716,0.066 -1.458,-0.296 -1.656,-0.828c-0.258,-0.778 -0.181,-0.841 0.465,-0.376c0.605,0.447 0.852,0.389 0.989,-0.235c0.107,-0.612 0.635,-0.641 1.793,-0.065c1.332,0.68 1.564,1.031 1.249,1.99c-0.499,1.365 0.707,2.159 2.666,1.729c0.882,-0.161 1.041,-0.456 0.573,-0.988c-0.354,-0.406 -0.837,-0.528 -1.066,-0.241c-0.229,0.288 -0.565,0.11 -0.752,-0.392c-0.188,-0.502 0.071,-1.07 0.543,-1.246c0.502,-0.188 1.018,0.023 1.195,0.495c0.574,1.536 4.166,0.159 5.156,-1.962c0.481,-1.055 1.105,-1.995 1.43,-2.117c1.093,-0.408 0.108,-1.42 -1.419,-1.455c-1.428,-0.038 -1.48,-0.086 -0.339,-0.546c0.679,-0.254 1.605,-0.298 2.092,-0.076c0.568,0.259 0.922,0.126 1.026,-0.316c0.056,-0.391 -0.601,-0.617 -1.505,-0.514c-1.004,0.106 -1.572,-0.153 -1.49,-0.655c0.13,-0.553 -0.228,-0.52 -1.103,0.11c-0.691,0.494 -1.658,1.058 -2.13,1.234c-0.62,0.232 -0.484,0.417 0.534,0.709c0.867,0.248 1.21,0.625 0.914,1.005c-0.639,0.811 -2.664,0.794 -2.505,-0.04c0.263,-1.276 -1.546,0.007 -2.149,1.545c-0.495,1.195 -0.853,1.497 -1.672,1.197c-1.232,-0.414 -2.827,-4.227 -1.911,-4.569c0.354,-0.133 0.373,-0.443 0.045,-0.69c-0.329,-0.248 0.015,-0.679 0.783,-0.966c1.151,-0.431 2.773,-3.023 2.453,-3.88c-0.044,-0.118 -0.93,-0.056 -1.982,0.102c-2.479,0.389 -2.538,0.411 -2.34,0.942c0.089,0.237 0.373,0.366 0.609,0.278c0.779,-0.258 2.262,0.197 2.482,0.788c0.111,0.295 -0.871,0.46 -2.203,0.319c-1.32,-0.112 -2.361,-0.463 -2.283,-0.795c0.219,-1.126 -1.103,-0.16 -1.839,1.293c-0.927,1.929 -1.954,2.515 -2.189,1.256c-0.113,-0.664 -0.692,-0.952 -1.504,-0.783c-0.971,0.195 -1.167,0.571 -0.784,1.505c0.284,0.668 0.242,1.457 -0.116,1.76c-0.465,0.376 -0.841,-0.09 -1.264,-1.581c-0.511,-1.727 -0.397,-2.14 0.614,-2.316c0.665,-0.114 1.444,-0.641 1.754,-1.161c0.403,-0.723 0.635,-0.642 1,0.333c0.254,0.679 0.729,1.141 1.054,1.019c0.325,-0.121 0.48,-0.516 0.348,-0.87c-0.133,-0.355 0.137,-0.624 0.594,-0.66c0.469,-0.007 1.528,-0.504 2.374,-1.124c0.912,-0.711 2.067,-1.042 3.019,-0.927c1.354,0.201 1.402,0.149 0.251,-0.498c-0.907,-0.536 -1.841,-0.422 -3.605,0.44c-1.705,0.84 -2.827,0.99 -4.089,0.587c-1.354,-0.47 -1.531,-0.673 -0.792,-0.949c0.62,-0.232 0.757,-0.856 0.403,-1.8c-0.397,-1.063 -0.282,-1.477 0.467,-1.454c1.077,0.001 2.582,-3.355 1.781,-3.965c-0.77,-0.62 -1.564,0.047 -1.211,0.992c0.188,0.502 0.051,0.856 -0.34,0.8c-0.915,-0.196 -3.344,5.727 -2.677,6.521c0.332,0.347 0.188,0.772 -0.314,0.959c-1.299,0.486 -1.431,-0.676 -0.352,-2.83c0.939,-1.899 0.933,-3.445 -0.012,-3.092c-0.768,0.287 -2.864,5.481 -2.296,5.739c0.254,0.141 -0.013,1.318 -0.634,2.627c-1.378,2.973 -1.042,6.482 0.692,6.978c0.664,0.155 1.117,0.558 0.958,0.853c-0.129,0.284 0.203,0.362 0.705,0.174c0.502,-0.188 0.971,-0.733 0.994,-1.213c0.022,-0.48 0.151,-0.225 0.22,0.59c0.118,1.034 0.438,1.351 1.117,1.097c0.502,-0.188 1.026,-0.047 1.148,0.278c0.132,0.354 0.442,0.373 0.69,0.045c0.247,-0.328 1.041,-0.457 1.734,-0.312c1.096,0.229 1.077,0.27 -0.185,0.405c-0.815,0.07 -1.373,0.379 -1.251,0.704c0.11,0.295 -0.148,0.863 -0.573,1.258c-0.465,0.376 -0.735,0.375 -0.649,-0.027c0.085,-0.402 -0.83,-1.137 -2.054,-1.621c-2.269,-0.936 -4.402,-0.34 -4.344,1.254c0.01,0.569 0.243,0.65 0.538,0.27c0.362,-0.472 0.944,0.455 1.938,3.112c1.602,4.282 5.204,7.344 8.698,7.417c1.007,-0.007 2.837,0.117 4.048,0.202c2.062,0.205 3.055,-0.2 5.82,-2.345c0.543,-0.439 0.465,-0.107 -0.174,0.705c-0.609,0.8 -2.403,1.942 -3.939,2.516c-3.562,1.366 -3.297,2.344 0.42,1.392c3.48,-0.864 8.296,-5.897 9.055,-9.446c0.282,-1.317 1.861,-1.773 1.856,-0.526c-0.012,1.856 1.355,-0.069 1.748,-2.437l0.337,-2.247l5.636,-1.67c9.219,-2.708 12.592,-2.421 22.366,1.934c2.799,1.275 5.387,4.414 5.875,7.16c0.294,1.775 -2.254,8.55 -3.347,8.959c-0.915,0.342 -3.582,-4.718 -3.102,-5.773c0.222,-0.487 0.308,-1.159 0.175,-1.513c-0.133,-0.354 -0.354,-0.137 -0.462,0.476c-0.352,1.578 -3.686,-0.136 -3.791,-1.948c-0.044,-0.926 -0.353,-1.214 -0.944,-0.994c-0.472,0.177 -1.409,-0.348 -2.076,-1.141c-0.678,-0.824 -2.386,-1.7 -3.843,-1.996c-1.446,-0.267 -3.106,-0.925 -3.663,-1.424c-1.143,-0.986 -2.405,-0.851 -1.738,0.213c0.254,0.409 -0.082,0.771 -0.823,0.947c-0.694,0.125 -2.115,0.556 -3.149,0.942c-1.074,0.368 -2.491,0.359 -3.294,-0.08c-0.782,-0.381 -1.594,-0.481 -1.823,-0.194c-0.658,0.852 -0.031,1.627 1.032,1.23c1.86,-0.696 -2.002,6.706 -7.314,14.011c-6.007,8.238 -8.669,11.017 -14.362,14.964c-2.326,1.611 -4.822,3.487 -5.546,4.161c-5.387,4.943 -16.307,-10.124 -20.903,-28.801c-0.809,-3.333 -1.438,-6.363 -1.341,-6.735c0.066,-0.362 -0.368,-1.074 -0.925,-1.573c-0.752,-0.661 -0.929,-1.134 -0.556,-1.576c0.277,-0.339 0.171,-1.074 -0.198,-1.609c-0.379,-0.565 -0.501,-1.159 -0.268,-1.347c1.086,-0.877 -0.641,-5.044 -2.353,-5.751c-4.607,-1.878 -14.687,2.128 -15.93,6.363c-1.158,3.832 -1.669,-7.791 -0.735,-16.184c0.227,-2.004 0.099,-3.874 -0.24,-4.151c-0.38,-0.296 -0.336,-0.447 0.137,-0.355c0.512,0.112 0.535,-0.368 0.089,-1.379c-0.931,-2.042 0.997,-4.446 5.183,-6.483c2.314,-1.101 2.65,-1.193 1.247,-0.264c-1.628,1.046 -1.359,1.047 1.83,-0.146c2.038,-0.762 3.769,-1.713 3.854,-2.115c0.093,-0.472 -0.177,-0.472 -0.708,-0.004c-0.706,0.634 -0.997,0.305 -1.913,-2.145c-1.966,-5.256 -3.604,-5.317 -9.878,-0.311Zm66.7,-4.349c0.191,0.602 0.109,1.912 -0.231,2.981c-0.352,1.041 -0.434,2.35 -0.265,2.893c0.365,0.974 -0.6,3.254 -1.249,2.958c-0.203,-0.092 -0.014,-2.015 0.413,-4.294c0.826,-4.45 0.613,-5.11 -0.615,-1.824c-0.581,1.597 -0.928,1.929 -1.532,1.482c-0.513,-0.38 -0.469,-0.531 0.074,-0.431c0.513,0.111 0.69,-0.225 0.48,-0.786c-0.806,-2.155 0.082,-5.18 1.34,-4.607c0.649,0.296 1.364,1.038 1.585,1.628Zm28.787,-3.934c1.865,2.197 2.134,2.736 1.646,3.592c-0.31,0.52 -0.69,0.763 -0.801,0.467c-1.44,-3.13 -2.265,-4.706 -3.113,-5.803c-1.798,-2.289 -0.054,-0.955 2.268,1.744Zm-23.833,9.351c0.384,0.396 0.361,0.875 0.007,1.008c-0.384,0.143 -1.078,1.076 -1.592,2.043c-1.161,2.386 -2.001,0.68 -0.873,-1.794c0.887,-1.948 1.574,-2.272 2.458,-1.257Zm-61.443,28.03c-1.872,0.936 -4.028,2.281 -4.77,2.996c-0.742,0.715 -1.414,1.168 -1.469,1.021c-0.354,-0.945 2.969,-3.4 6.062,-4.489l3.565,-1.266l-3.388,1.738Zm41.264,-14.76c0.121,0.325 -0.104,0.712 -0.458,0.844c-0.384,0.144 -1.016,0.885 -1.419,1.608c-0.661,1.291 -0.672,1.261 -0.534,-0.44c0.127,-1.73 1.947,-3.252 2.411,-2.012Zm-34.881,14.998c0.542,0.1 -0.388,0.583 -2.274,1.12c-4.473,1.269 -5.185,1.165 -1.653,-0.19c1.613,-0.637 3.373,-1.059 3.927,-0.93Zm-8.952,4.594c0.225,0.69 -2.179,6.772 -2.433,6.093c-0.221,-0.591 1.559,-6.271 2.002,-6.437c0.147,-0.055 0.343,0.107 0.431,0.344Zm7.798,-2.008c-3.418,2.288 -6.093,6.116 -6.93,9.997c-0.997,4.445 -1.734,4.452 -0.967,0.025c0.823,-4.818 4.115,-9.247 7.876,-10.62l2.067,-0.773l-2.046,1.371Zm-27.69,11.636c0.295,-0.111 0.361,0.605 0.139,1.63c-0.482,2.133 -1.478,2.169 -2.262,0.072c-0.431,-1.151 -0.294,-1.505 0.514,-1.505c0.579,0.019 1.314,-0.087 1.609,-0.197Zm30.893,-11.622c0.288,0.229 -0.052,0.49 -0.768,0.556c-0.745,0.077 -1.192,0.412 -1.037,0.826c0.143,0.384 -0.067,0.631 -0.469,0.545c-0.403,-0.085 -0.613,0.162 -0.481,0.516c0.133,0.355 -0.078,0.602 -0.48,0.517c-0.402,-0.086 -1.732,2.028 -2.974,4.646c-2.307,4.902 -2.883,5.521 -2.024,2.238c1.574,-6.142 6.058,-11.521 8.233,-9.844Zm21.04,-1.34c1.217,0.554 1.272,0.702 0.574,1.805c-1.001,1.552 -1.562,1.762 -1.971,0.669c-0.187,-0.502 -0.036,-0.996 0.319,-1.128c0.354,-0.133 0.347,-0.601 -0.007,-1.008c-0.874,-0.986 -0.538,-1.078 1.085,-0.338Zm65.074,-22.824c0.85,1.735 2.507,2.024 2.449,0.43c-0.118,-3.827 8.163,2.837 10.737,8.639c0.424,0.953 0.686,1.023 1.07,0.341c0.292,-0.48 0.779,-0.797 1.063,-0.667c0.255,0.14 -0.351,1.04 -1.374,1.995c-1.023,0.955 -3.15,3.096 -4.727,4.73c-1.566,1.662 -2.795,2.694 -2.729,2.333c0.482,-2.402 -4.41,1.616 -5.919,4.873c-0.491,1.025 -0.742,0.984 -1.988,-0.367c-0.8,-0.879 -1.755,-1.363 -2.135,-1.12c-0.37,0.273 -0.499,0.287 -0.318,0.051c0.65,-0.781 -0.253,-2.026 -1.975,-2.761c-0.952,-0.385 -1.94,-0.419 -2.206,-0.05c-0.488,0.586 -0.029,-1.336 0.807,-3.331c0.229,-0.557 0.673,-1.8 0.987,-2.76c0.87,-2.714 4.501,-8.213 5.742,-8.677c0.885,-0.331 0.908,-0.811 0.253,-2.383c-0.468,-1.07 -1.032,-1.768 -1.213,-1.532c-0.181,0.236 -0.498,0.018 -0.697,-0.514c-0.663,-1.771 1.278,-1.083 2.173,0.77Zm-54.419,23.685c0.553,1.207 0.516,1.288 -0.661,0.752c-0.689,-0.314 -1.523,-0.473 -1.848,-0.352c-0.295,0.111 -0.502,-0.081 -0.435,-0.443c0.211,-1.055 -1.777,-1.422 -2.52,-0.437c-0.524,0.667 -0.362,0.741 0.742,0.362c1.122,-0.42 1.336,-0.298 1.066,0.51c-0.463,1.284 0.301,1.705 1.364,0.769c0.532,-0.469 0.753,-0.417 0.635,0.166c-0.238,1.166 -1.511,1.541 -2.794,0.81c-0.601,-0.348 -1.572,-0.422 -2.221,-0.179c-1.861,0.695 -1.785,-1.622 0.109,-2.768c2.256,-1.348 5.742,-0.936 6.563,0.81Zm-36.688,14.396c0.043,0.926 0.121,0.863 0.517,-0.328c0.803,-2.623 2.087,-2.699 2.815,-0.212c0.806,2.694 0.514,7.314 -0.49,7.689c-2.421,0.906 -6.029,-4.241 -4.363,-6.177c0.517,-0.597 0.769,-1.364 0.525,-1.744c-0.272,-0.37 -0.132,-0.624 0.27,-0.539c0.373,0.096 0.723,0.672 0.726,1.311Zm43.332,-12.741c0.672,0.086 1.76,0.116 2.417,0.073c0.668,-0.015 1.147,0.277 1.043,0.72c-0.074,0.432 -0.65,0.782 -1.269,0.744c-0.609,-0.008 -1.524,0.065 -2.059,0.164c-0.506,0.089 -1.196,-0.226 -1.483,-0.724c-0.656,-1.034 -0.394,-1.233 1.351,-0.977Zm40.19,-5.304l2.822,0.526l-2.008,1.021c-1.724,0.88 -2.023,0.891 -1.867,-0.043c0.111,-0.782 -0.272,-1.177 -1.375,-1.337c-0.864,-0.148 -1.31,-0.351 -0.985,-0.473c0.314,-0.151 1.856,0.013 3.413,0.306Zm-2.078,4.883c0.47,-1.623 1.156,-1.678 1.225,-0.054c0.08,1.384 3.265,4.77 4.21,4.417c0.236,-0.089 0.63,0.336 0.862,0.956c0.232,0.62 0.7,1.152 0.999,1.141c0.34,0.008 0.601,0.617 0.608,1.355c0.018,1.036 -0.421,0.763 -2.135,-1.39c-1.806,-2.219 -3.256,-3.124 -8.032,-5.006c-3.198,-1.261 -5.787,-2.514 -5.728,-2.806c0.059,-0.291 1.812,0.164 3.877,1.007c3.25,1.309 3.84,1.358 4.114,0.38Zm-40.051,11.884c0.486,1.299 -1.64,2.094 -3.791,1.384l-1.948,-0.618l2.735,-0.787c1.816,-0.545 2.794,-0.54 3.004,0.021Zm46.893,-13.298c-0.621,0.77 -0.58,1.058 0.305,1.535c1.243,0.713 2.304,2.74 1.595,3.005c-0.295,0.11 -0.679,-0.285 -0.918,-0.835c-0.21,-0.561 -0.958,-1.392 -1.703,-1.854c-1.674,-1.056 -1.822,-1.54 -0.662,-2.31c1.373,-0.918 2.303,-0.592 1.383,0.459Z" style="fill-rule:nonzero;"/><path d="M124.043,71.19c0.077,0.746 0.655,1.573 1.304,1.868c0.609,0.278 1.247,0.813 1.379,1.168c0.122,0.324 0.469,0.531 0.764,0.421c0.59,-0.221 -1.86,-3.983 -2.926,-4.493c-0.365,-0.166 -0.598,0.291 -0.521,1.036Z" style="fill-rule:nonzero;"/><path d="M83.014,26.557c2.726,1.168 14.93,3.201 15.056,2.548c0.067,-0.362 -0.778,-0.82 -1.851,-0.991c-1.103,-0.159 -3.302,-0.549 -4.9,-0.86c-1.597,-0.311 -3.903,-0.627 -5.124,-0.742c-1.221,-0.116 -2.479,-0.419 -2.807,-0.667c-0.328,-0.247 -0.9,-0.336 -1.284,-0.193c-0.354,0.133 0.04,0.557 0.91,0.905Z" style="fill-rule:nonzero;"/><path d="M127.879,17.013c-0.599,1.369 -1.788,1.881 -3.005,1.326c-0.892,-0.407 -2.964,1.614 -2.611,2.559c0.243,0.649 1.056,0.211 1.518,-0.804c0.221,-0.486 0.613,-0.7 0.941,-0.453c0.287,0.229 -0.344,1.24 -1.375,2.265c-1.311,1.264 -1.828,2.4 -1.685,3.592c0.146,1.292 -0.024,1.557 -0.64,1.081c-0.862,-0.687 -0.858,2.475 0.012,3.9c0.656,1.033 -2.181,0.378 -3.553,-0.859c-0.608,-0.547 -0.818,-0.569 -0.472,-0.093c0.347,0.476 0.549,1.107 0.409,1.362c-0.37,0.811 0.425,2.937 0.986,2.727c0.266,-0.099 0.495,-0.656 0.525,-1.206c-0.01,-0.568 0.259,-1.106 0.555,-1.217c0.324,-0.121 0.531,0.071 0.453,0.403c-0.067,0.361 0.431,0.343 1.148,0.008c1.753,-0.891 1.764,-0.862 0.429,-1.641c-1.029,-0.592 -1.033,-0.691 -0.025,-0.698c0.848,0.019 0.97,-0.195 0.44,-0.804c-0.572,-0.628 -0.479,-0.83 0.369,-0.811c0.639,-0.003 1.011,-0.176 0.864,-0.391c-0.619,-0.845 -0.322,-3.38 0.416,-3.656c0.443,-0.165 0.791,-0.767 0.81,-1.346c0.008,-1.686 1.572,-0.925 1.766,0.854c0.132,1.162 0.372,1.443 0.837,1.067c0.358,-0.302 0.411,-1.332 0.087,-2.287c-0.368,-1.075 -0.294,-1.776 0.223,-1.834c1.31,-0.187 2.794,-1.617 2.382,-2.271c-0.222,-0.321 0.067,-0.9 0.632,-1.28c0.731,-0.475 1.044,-0.357 1.029,0.322c-0.009,1.417 1.245,2.16 2.242,1.316c1.584,-1.434 0.209,-2.771 -2.544,-2.482c-2.088,0.175 -2.745,0.488 -3.163,1.351Z" style="fill-rule:nonzero;"/><path d="M139.224,14.049c0.855,0.488 0.922,0.665 0.301,0.897c-0.531,0.199 -0.321,0.491 0.645,1.004c0.753,0.392 1.505,1.053 1.671,1.496c0.165,0.443 0.39,0.594 0.49,0.321c0.418,-0.863 -2.122,-4.322 -3.169,-4.334c-0.849,-0.019 -0.846,0.08 0.062,0.616Z" style="fill-rule:nonzero;"/><path d="M87.034,33.973c-0.089,0.572 0.127,1.602 0.492,2.307c0.685,1.292 0.656,1.303 -1.429,1.039c-4.748,-0.546 -3.66,0.561 2.249,2.323c6.776,2.009 10.18,4.27 11.48,7.655l0.832,2.045l0.241,-1.875c0.338,-2.246 -1.376,-4.668 -4.555,-6.508c-1.11,-0.629 -2.128,-1.46 -2.271,-1.844c-0.133,-0.354 -1.261,-1.211 -2.452,-1.876c-2.106,-1.131 -2.136,-1.12 -0.657,0.044c2.087,1.71 2.175,2.215 0.231,1.428c-1.184,-0.466 -1.656,-1.098 -1.843,-2.408c-0.308,-2.173 -1.985,-3.868 -2.318,-2.33Z" style="fill-rule:nonzero;"/><path d="M136.583,17.427c0.5,1.159 1.459,2.012 2.864,2.53c2.475,0.858 2.914,1.67 6.952,12.647c1.671,4.558 3.139,9.832 3.793,13.559c0.947,5.502 1.738,7.529 2.385,6.109c1.405,-3.084 -8.478,-35.536 -10.155,-33.361c-0.554,0.679 -5.71,-2.038 -5.532,-2.912c0.074,-0.432 -0.125,-0.694 -0.42,-0.583c-0.325,0.121 -0.292,1.018 0.113,2.011Z" style="fill-rule:nonzero;"/><path d="M132.209,23.371c-0.028,1.996 1.001,2.857 1.851,1.529c0.502,-0.726 0.484,-1.494 0.005,-2.055c-0.936,-1.064 -1.844,-0.791 -1.856,0.526Z" style="fill-rule:nonzero;"/><path d="M135.119,24.672c0.132,0.354 0.992,0.672 1.951,0.718c0.941,0.085 2.343,0.773 3.098,1.534c0.726,0.771 1.545,1.34 1.752,1.263c0.59,-0.221 -1.098,-2.484 -2.411,-3.205c-0.63,-0.336 -1.039,-0.89 -0.891,-1.215c0.147,-0.324 -0.1,-0.265 -0.554,0.14c-0.425,0.395 -1.089,0.508 -1.428,0.231c-0.8,-0.609 -1.804,-0.234 -1.517,0.534Z" style="fill-rule:nonzero;"/><path d="M131.47,33.273c-0.745,8.088 1.368,18.506 3.553,17.688c0.531,-0.198 0.186,-1.752 -1.199,-5.543c-1.836,-5.001 -1.906,-5.547 -1.234,-10.948c0.387,-3.107 0.603,-5.947 0.471,-6.302c-0.597,-1.594 -1.141,0.191 -1.591,5.105Z" style="fill-rule:nonzero;"/><path d="M103.772,52.99c0.542,0.639 0.468,0.801 -0.273,0.708c-0.543,-0.1 0.151,0.314 1.549,0.902c3.555,1.497 6.101,5.964 3.886,6.792c-1.358,0.508 -4.871,-2.587 -5.563,-4.886c-0.353,-1.214 -1.024,-2.377 -1.511,-2.599c-1.257,-0.573 -0.261,3.8 1.493,6.51c0.81,1.178 1.868,2.835 2.376,3.655c0.583,0.926 1.184,1.274 1.608,0.879c0.359,-0.302 1.185,-0.072 1.786,0.544c1.117,1.097 1.135,1.056 0.927,-1.121c-0.278,-2.723 0.638,-3.604 2.12,-2.071c1.12,1.196 0.181,-0.775 -2.24,-4.818c-0.869,-1.425 -0.337,-2.431 0.791,-1.574c0.288,0.229 1.51,-0.195 2.72,-0.917c2.042,-1.201 2.212,-1.197 3.019,0.15c0.552,0.938 0.545,0.739 -0.022,-0.597l-0.862,-2.034l-3.015,1.296c-2.555,1.09 -3.112,1.13 -3.812,0.248c-0.45,-0.573 -1.007,-0.802 -1.236,-0.514c-0.258,0.298 -0.528,0.298 -0.649,-0.027c-0.111,-0.295 -1.014,-0.731 -2.01,-0.964c-1.69,-0.378 -1.778,-0.345 -1.082,0.438Z" style="fill-rule:nonzero;"/><path d="M12.453,89.871c-0.016,0.949 -0.152,1.033 -0.798,0.568c-0.616,-0.477 -0.778,-0.281 -0.72,0.774c0.029,0.797 -0.175,1.513 -0.47,1.623c-0.325,0.122 -0.462,0.476 -0.34,0.801c0.42,1.122 2.17,-0.139 2.994,-2.164c0.832,-2.095 0.789,-3.29 -0.126,-2.948c-0.296,0.111 -0.543,0.708 -0.54,1.346Z" style="fill-rule:nonzero;"/><path d="M144.668,41.295c0.391,1.133 0.445,1.82 0.143,1.462c-0.332,-0.348 -0.752,-0.392 -0.981,-0.105c-0.229,0.288 0.062,0.886 0.637,1.344c0.8,0.609 1.098,1.407 1.148,3.071c0.095,2.051 0.128,2.14 0.527,0.779c0.367,-1.181 0.154,-2.919 -0.424,-3.746c-0.063,-0.077 -0.103,-0.904 -0.098,-1.882c0.012,-1.047 -0.342,-1.992 -0.825,-2.384c-0.605,-0.447 -0.638,0.003 -0.127,1.461Z" style="fill-rule:nonzero;"/><path d="M65.087,72.036c-0.735,1.184 -0.713,1.243 0.7,1.421c1.244,0.175 1.34,0.072 0.695,-0.663c-0.52,-0.58 -0.468,-0.801 0.115,-0.683c0.512,0.111 0.701,-0.195 0.491,-0.756c-0.42,-1.122 -0.951,-0.923 -2.001,0.681Z" style="fill-rule:nonzero;"/><path d="M72.545,71.367c0.428,0.244 0.634,0.706 0.497,1.06c-0.148,0.324 0.092,0.336 0.531,0.07c0.809,-0.538 1.345,-1.714 1.11,-2.434c-0.078,-0.207 -0.772,-0.082 -1.528,0.235c-0.953,0.423 -1.159,0.77 -0.61,1.069Z" style="fill-rule:nonzero;"/><path d="M114.144,57.592c1.456,1.913 2.654,2.777 2.246,1.685c-0.556,-1.576 -2.005,-3.289 -2.595,-3.069c-0.296,0.111 -0.163,0.735 0.349,1.384Z" style="fill-rule:nonzero;"/><path d="M47.673,87.839c0.088,0.236 -0.1,0.542 -0.454,0.675c-0.325,0.121 -1.001,1.014 -1.445,1.987c-0.443,0.974 -0.566,1.457 -0.241,1.067c0.326,-0.391 0.683,-0.424 0.816,-0.07c0.121,0.325 -0.034,0.72 -0.388,0.852c-0.325,0.122 -1.001,1.014 -1.456,1.958l-0.824,1.756l2.809,-1.488c9.458,-4.951 9.033,-4.826 10.493,-3.083c0.918,1.104 1.367,2.215 1.384,3.521c0.029,1.066 0.187,2.118 0.356,2.391c0.391,0.594 0.459,2.487 0.162,5.022c-0.134,1.262 0.072,1.992 0.599,2.233c0.487,0.222 1.592,2.097 2.476,4.19c0.924,2.111 1.86,3.983 2.096,4.164c1.847,1.429 -2.907,7.616 -6.106,7.972c-2.365,0.245 -2.531,0.341 -1.466,0.851c1.42,0.647 4.133,-0.2 6.016,-1.914c1.44,-1.279 4.46,-7.154 3.515,-6.801c-0.295,0.111 -1.043,-1.259 -1.658,-3.082c-0.603,-1.794 -1.774,-4.116 -2.619,-5.113c-1.419,-1.724 -1.426,-1.923 -0.318,-3.011c0.923,-0.951 0.96,-1.301 0.186,-1.752c-0.734,-0.433 -1.109,-1.436 -1.424,-4.079c-0.338,-2.701 -0.661,-3.657 -1.392,-3.989c-0.487,-0.222 -1.099,-0.868 -1.286,-1.37c-1.138,-3.042 -4.438,-4.937 -7.232,-4.128c-1.521,0.434 -2.687,1.005 -2.599,1.241Zm5.627,-0.253c1.849,0.082 -1.429,1.308 -3.838,1.435c-1.495,0.054 -1.476,0.014 0.402,-0.722c1.152,-0.431 2.687,-0.736 3.436,-0.713Z" style="fill-rule:nonzero;"/><path d="M75.346,79.037c-1.148,1.338 -1.137,1.368 0.162,0.882c0.749,-0.247 1.251,-0.704 1.152,-0.969c-0.11,-0.296 0.595,-0.66 1.547,-0.814c0.941,-0.184 1.439,-0.472 1.074,-0.638c-1.077,-0.54 -2.731,0.079 -3.935,1.539Z" style="fill-rule:nonzero;"/><path d="M81.909,76.785c0.099,0.265 1.047,0.82 2.091,1.271c2.309,0.954 2.675,-0.496 0.363,-1.55c-1.542,-0.702 -2.775,-0.578 -2.454,0.279Z" style="fill-rule:nonzero;"/><path d="M153.027,52.575c-0.218,0.586 -0.263,1.276 -0.093,1.549c0.188,0.233 0.275,1.008 0.26,1.687c-0.045,0.69 0.128,1.332 0.412,1.461c0.8,0.34 1.824,-1.961 1.179,-2.696c-0.331,-0.347 -0.401,-0.893 -0.154,-1.221c0.555,-0.679 -0.023,-2.314 -0.732,-2.049c-0.266,0.099 -0.683,0.693 -0.872,1.269Z" style="fill-rule:nonzero;"/><path d="M46.017,95.56c-1.344,0.638 -2.333,1.412 -2.212,1.736c0.133,0.355 0.838,0.259 1.609,-0.198c0.772,-0.456 1.455,-0.611 1.565,-0.316c0.099,0.266 1.83,-0.146 3.846,-0.967l3.646,-1.498l-3.38,0.86l-3.381,0.861l3.049,-1.477c1.687,-0.799 3.256,-1.285 3.492,-1.104c0.84,0.628 2.734,-0.518 2.392,-1.433c-0.353,-0.945 -2.147,-0.342 -10.626,3.536Z" style="fill-rule:nonzero;"/><path d="M148.832,60.438c-0.101,1.889 0.658,3.826 1.237,3.307c0.3,-0.281 0.249,-1.406 -0.152,-2.569c-0.803,-2.325 -1.028,-2.476 -1.085,-0.738Z" style="fill-rule:nonzero;"/><path d="M152.608,58.924c-0.281,0.779 0.242,2.535 1.663,5.706c1.149,2.532 1.911,4.839 1.682,5.127c-0.229,0.287 -0.204,0.985 0.025,1.505c0.261,0.609 0.412,0.653 0.424,0.144c0.03,-1.358 1.244,-1.441 1.384,-0.08c0.091,0.875 1.374,1.876 4.137,3.232c2.235,1.117 3.972,2.251 3.923,2.572c-0.144,0.693 4.651,2.535 4.928,1.926c0.082,-0.232 -0.77,-0.89 -1.91,-1.507c-9.475,-4.904 -9.869,-5.329 -13.002,-13.615c-1.303,-3.484 -1.707,-5.285 -1.301,-5.639c0.388,-0.313 0.222,-0.487 -0.487,-0.491c-0.579,-0.019 -1.258,0.504 -1.466,1.12Z" style="fill-rule:nonzero;"/><path d="M65.136,101.772c1.552,0.732 2.361,0.732 3.025,0.08c0.82,-0.778 0.787,-0.866 -0.531,-0.609c-0.811,0.169 -1.737,-0.057 -2.091,-0.463c-0.343,-0.377 -1.077,-0.54 -1.609,-0.341c-0.708,0.265 -0.447,0.605 1.206,1.333Z" style="fill-rule:nonzero;"/><path d="M151.326,69.804c0.111,0.296 0.417,0.484 0.712,0.374c0.266,-0.1 0.642,0.365 0.874,0.985c0.213,0.661 0.589,1.126 0.825,1.038c0.247,-0.059 0.399,-0.284 0.344,-0.431c-0.067,-0.178 -0.299,-0.798 -0.53,-1.418c-0.232,-0.62 -0.859,-1.126 -1.427,-1.115c-0.55,-0.03 -0.919,0.242 -0.798,0.567Z" style="fill-rule:nonzero;"/><path d="M109.023,87.276c5.332,8.675 5.807,9.137 5.541,5.096c-0.215,-3.184 -0.336,-3.509 -1.141,-2.871c-0.34,0.261 -1.693,-0.478 -3.013,-1.667c-1.962,-1.824 -2.194,-1.906 -1.387,-0.558Z" style="fill-rule:nonzero;"/><path d="M149.13,74.462c0.42,0.853 0.692,2.03 0.563,2.584c-0.141,0.793 0.021,0.867 0.667,0.255c0.514,-0.428 0.949,-0.793 1.038,-0.826c0.059,-0.022 -0.354,-0.945 -0.891,-2.022c-0.579,-1.097 -1.275,-1.88 -1.6,-1.758c-0.295,0.11 -0.197,0.915 0.223,1.767Z" style="fill-rule:nonzero;"/><path d="M58.052,109.47c-0.378,1.959 0.906,6.292 1.762,5.971c0.473,-0.176 0.632,-0.471 0.396,-0.652c-0.247,-0.211 -0.678,-1.632 -0.953,-3.178c-0.529,-3.033 -0.901,-3.668 -1.205,-2.141Z" style="fill-rule:nonzero;"/><path d="M155.019,74.279c0.276,0.739 0.143,2 -0.297,2.804c-0.525,0.937 -0.541,2.155 -0.033,3.513c0.538,1.347 0.892,1.753 0.999,1.141c0.152,-0.764 1.045,-0.896 4.137,-0.639c2.151,0.172 3.863,0.609 3.796,0.97c-0.067,0.362 0.733,0.702 1.792,0.744c1.059,0.041 2.697,0.371 3.678,0.744c1.103,0.429 1.672,0.419 1.495,-0.054c-0.431,-1.151 -2.278,-2.581 -3.016,-2.305c-0.355,0.133 -2.155,-0.271 -4.044,-0.911c-1.848,-0.621 -3.663,-0.885 -4.05,-0.571c-0.348,0.331 -1.679,0.19 -2.956,-0.342l-2.268,-0.936l2.2,-1.227c1.222,-0.692 1.883,-1.175 1.459,-1.05c-0.436,0.096 -0.949,-0.285 -1.158,-0.846c-0.21,-0.561 -0.807,-1.347 -1.309,-1.698c-0.737,-0.532 -0.793,-0.411 -0.425,0.663Z" style="fill-rule:nonzero;"/><path d="M67.317,109.404c-0.61,1.339 -0.046,2.576 0.958,2.2c1.004,-0.375 1.097,-1.925 0.153,-2.649c-0.512,-0.381 -0.778,-0.281 -1.111,0.449Z" style="fill-rule:nonzero;"/><path d="M92.185,102.459c0.265,0.709 0.847,1.366 1.249,1.451c0.432,0.075 0.778,0.551 0.785,1.019c-0.022,0.48 0.63,1.145 1.379,1.437c0.789,0.311 2.172,1.577 3.093,2.781c1.898,2.555 8.649,8.815 9.807,9.122c2.608,0.674 1.879,-0.736 -1.171,-2.322c-1.372,-0.698 -2.545,-1.404 -2.611,-1.581c-0.42,-1.122 -8.972,-10.31 -10.805,-11.61c-1.884,-1.348 -2.135,-1.389 -1.726,-0.297Z" style="fill-rule:nonzero;"/><path d="M102.152,100.313c1.154,1.016 2.17,0.4 1.64,-1.017c-0.177,-0.472 -0.852,-0.657 -1.531,-0.403c-1.004,0.375 -1.027,0.585 -0.109,1.42Z" style="fill-rule:nonzero;"/><path d="M146.761,83.427c-0.111,0.512 0.515,1.557 1.352,2.355c1.033,0.96 1.313,1.528 0.87,1.694c-1.27,0.475 0.807,0.809 3.622,0.597c1.532,-0.135 3.802,-0.816 5.005,-1.468c1.399,-0.759 2.318,-1.001 2.462,-0.617c0.132,0.354 0.763,0.421 1.413,0.178c0.649,-0.243 1.28,-0.176 1.391,0.119c0.121,0.325 1.242,0.713 2.504,0.847c1.262,0.134 3.033,0.549 3.944,0.915c4.363,1.767 17.219,0.325 16.413,-1.831c-0.243,-0.649 -0.789,-0.58 -2.343,0.305c-1.466,0.851 -1.971,0.939 -1.864,0.326c0.119,-0.583 -0.49,-0.59 -1.907,-0.06c-1.122,0.419 -2.314,0.562 -2.642,0.315c-0.328,-0.248 -1.225,-0.215 -1.963,0.061c-0.768,0.287 -3.144,-0.036 -5.324,-0.735c-5.511,-1.776 -10.097,-2.249 -12.607,-1.31c-3.011,1.126 -8.143,0.454 -9.252,-1.251c-0.612,-0.916 -0.966,-1.053 -1.074,-0.44Z" style="fill-rule:nonzero;"/><path d="M100.776,105.271c0.829,1.406 2.283,1.064 1.753,-0.353c-0.277,-0.738 -0.848,-1.096 -1.38,-0.898c-0.561,0.21 -0.701,0.734 -0.373,1.251Z" style="fill-rule:nonzero;"/><path d="M106.9,106.077c1.258,0.573 1.53,1.481 0.438,1.351c-0.491,-0.052 -0.225,0.117 0.582,0.388c1.494,0.484 2.698,-0.168 1.702,-0.94c-0.298,-0.258 -0.298,-0.528 -0.032,-0.627c1.505,-0.563 -0.272,-1.716 -1.829,-1.201c-1.311,0.457 -1.551,0.715 -0.861,1.029Z" style="fill-rule:nonzero;"/><path d="M104.581,108.156c-0.628,0.571 -1.02,1.324 -0.887,1.678c0.133,0.354 0.413,0.384 0.642,0.096c0.229,-0.287 0.638,-0.272 0.889,0.038c0.251,0.31 0.521,-0.228 0.584,-1.228c0.075,-0.97 0.087,-1.749 0.027,-1.727c-0.077,0.063 -0.627,0.571 -1.255,1.143Z" style="fill-rule:nonzero;"/><path d="M130.693,112.189c-0.11,0.243 0.664,1.233 1.725,2.182c1.033,0.96 2.043,2.131 2.197,2.544c0.166,0.443 1.323,1.828 2.606,3.098c1.283,1.271 2.603,2.999 2.952,3.844c0.35,0.845 0.778,1.358 0.959,1.122c0.439,-0.534 2.327,1.183 2.89,2.689c0.243,0.649 0.756,1.03 1.136,0.787c0.654,-0.413 0.853,-0.151 1.979,2.322c0.251,0.58 0.638,0.805 0.867,0.518c0.525,-0.668 2.157,1.717 2.233,3.271c0.044,0.926 0.125,0.963 0.347,0.207c0.2,-0.816 0.407,-0.893 1.022,-0.416c0.432,0.343 0.527,0.779 0.188,1.04c-0.388,0.313 0.109,1.104 1.481,2.341c2.186,1.976 3.4,2.161 2.759,0.449c-0.301,-0.897 -0.253,-0.949 0.536,-0.369c1.537,1.142 0.477,-0.885 -1.179,-2.252l-1.409,-1.156l0.652,1.742l0.633,1.783l-1.493,-1.023c-0.819,-0.569 -1.283,-1.271 -1.065,-1.588c0.218,-0.317 0.237,-0.896 0.023,-1.288c-0.214,-0.391 -0.505,-0.989 -0.656,-1.303c-0.191,-0.332 -0.549,-0.299 -0.845,0.081c-0.314,0.42 -0.476,0.346 -0.383,-0.126c0.103,-0.443 -1.883,-2.695 -4.402,-5.018c-5.943,-5.451 -9.799,-9.462 -11.752,-12.164c-1.692,-2.363 -3.686,-4.007 -4.001,-3.317Z" style="fill-rule:nonzero;"/><path d="M122.276,118.03c0.815,0.469 0.737,0.801 -0.345,1.778c-1.373,1.187 -0.932,2.368 0.663,1.772c1.033,-0.387 1.357,0.3 0.766,1.598c-0.333,0.73 -0.097,0.642 0.875,-0.361c1.174,-1.179 1.167,-1.379 0.079,-1.678c-1.251,-0.374 -1.659,-2.275 -0.596,-2.672c1.122,-0.42 0.263,-1.277 -1.098,-1.138c-1.104,0.11 -1.159,0.232 -0.344,0.701Z" style="fill-rule:nonzero;"/><path d="M125.895,123.476c0.394,0.424 0.785,1.019 0.906,1.343c0.122,0.325 0.439,0.274 0.716,-0.065c0.266,-0.369 0.864,-0.391 1.295,-0.047c0.431,0.343 0.911,0.366 1.04,0.082c0.119,-0.314 -0.405,-0.993 -1.172,-1.514c-1.677,-1.156 -3.836,-0.988 -2.785,0.201Z" style="fill-rule:nonzero;"/><path d="M177.125,82.538c0.262,0.339 1.874,0.78 3.586,0.947c1.722,0.197 3.549,0.49 4.054,0.672c1.446,0.536 1.586,0.281 0.717,-1.413c-0.449,-0.842 -0.914,-1.812 -1.105,-2.145c-0.151,-0.313 -0.764,-0.421 -1.347,-0.27c-0.572,0.18 -1.771,0.393 -2.675,0.496c-0.875,0.091 -0.189,0.306 1.534,0.503c2.203,0.219 2.882,0.504 2.199,0.928c-0.536,0.368 -2.44,0.407 -4.225,0.133c-1.786,-0.275 -3.04,-0.21 -2.738,0.149Z" style="fill-rule:nonzero;"/><path d="M170.514,85.111c0.133,0.354 4.486,0.746 4.664,0.41c0.432,-1.003 -1.574,-1.868 -3.05,-1.316c-0.945,0.353 -1.669,0.758 -1.614,0.906Z" style="fill-rule:nonzero;"/></svg>